<svg id="Layer_1" data-name="Layer 1" xmlns="http://www.w3.org/2000/svg" xmlns:xlink="http://www.w3.org/1999/xlink" viewBox="0 0 363.06 328.6"><defs><style>.cls-1,.cls-5{fill:none;}.cls-2{clip-path:url(#clip-path);}.cls-11,.cls-12,.cls-14,.cls-15,.cls-16,.cls-17,.cls-18,.cls-20,.cls-21,.cls-22,.cls-23,.cls-24,.cls-26,.cls-27,.cls-28,.cls-29,.cls-3,.cls-4,.cls-5,.cls-7,.cls-8,.cls-9{stroke:#9cf;stroke-miterlimit:10;}.cls-11,.cls-12,.cls-14,.cls-15,.cls-16,.cls-17,.cls-18,.cls-20,.cls-21,.cls-22,.cls-23,.cls-24,.cls-26,.cls-27,.cls-28,.cls-29,.cls-3,.cls-4,.cls-7,.cls-8,.cls-9{stroke-width:5px;}.cls-3{fill:url(#radial-gradient);}.cls-4{fill:url(#radial-gradient-2);}.cls-5{stroke-linecap:round;stroke-width:80px;}.cls-6{clip-path:url(#clip-path-2);}.cls-7{fill:url(#radial-gradient-3);}.cls-8{fill:url(#radial-gradient-4);}.cls-9{fill:url(#radial-gradient-5);}.cls-10{clip-path:url(#clip-path-3);}.cls-11{fill:url(#radial-gradient-6);}.cls-12{fill:url(#radial-gradient-7);}.cls-13{clip-path:url(#clip-path-4);}.cls-14{fill:url(#radial-gradient-8);}.cls-15{fill:url(#radial-gradient-9);}.cls-16{fill:url(#radial-gradient-10);}.cls-17{fill:url(#radial-gradient-11);}.cls-18{fill:url(#radial-gradient-12);}.cls-19{clip-path:url(#clip-path-5);}.cls-20{fill:url(#radial-gradient-13);}.cls-21{fill:url(#radial-gradient-14);}.cls-22{fill:url(#radial-gradient-15);}.cls-23{fill:url(#radial-gradient-16);}.cls-24{fill:url(#radial-gradient-17);}.cls-25{clip-path:url(#clip-path-6);}.cls-26{fill:url(#radial-gradient-18);}.cls-27{fill:url(#radial-gradient-19);}.cls-28{fill:url(#radial-gradient-20);}.cls-29{fill:url(#radial-gradient-21);}</style><clipPath id="clip-path"><path class="cls-1" d="M-586.09-377.17H-457s-20.27-23.68-13.13-44.89c6.07-18,32.08-27,36-28.35,8.9-3.07,25-8.64,41.42-3.17a37.51,37.51,0,0,1,25.22,28.65c.95,6.31-.77,11.25-4.21,21.13-6.76,19.48-11.58,26.63-11.58,26.63h144.69v97.58s-19.58-7.84-48.75-9.19c-11.09-.52-40-1.85-53.53,13-9.68,10.66-8.72,26.66,1,36.76,12.29,12.76,35.84,13.34,54.54,13.79,28.89.71,46.73-2.3,46.73-2.3v86.24H-360.08s20,31.35,10.1,57c-5,13-19.45,23.6-35.35,27.57-26.91,6.72-59.94-5-71.7-22.21-16.63-24.28-4.05-62.36-4.05-62.36h-125Z"/></clipPath><radialGradient id="radial-gradient" cx="287.71" cy="-63.64" r="145.62" gradientTransform="translate(-444.21) scale(1.32 1)" gradientUnits="userSpaceOnUse"><stop offset="0" stop-color="#0b3d91"/><stop offset="0.99" stop-color="#082759"/></radialGradient><radialGradient id="radial-gradient-2" cx="506.74" cy="-22.83" r="151.33" xlink:href="#radial-gradient"/><clipPath id="clip-path-2"><path class="cls-1" d="M14-386.13v97.57s-17.21-6.94-48.76-9.19c-14-1-30.39-2-43.92,6-1.61,1-16.09,9.74-16.38,23.86-.4,19.56,26.81,30,28.07,30.49,10.35,3.83,19.67,3.66,38.31,3.34C2-234.64,14-236.47,14-236.47v86.23H141s-22.69-18-22.22-38c.41-16.83,19.88-31.83,39.39-38.3,3.25-1.07,34.64-11,61.6,3.07,18.24,9.52,31,28.26,24.24,46.72-6.4,17.34-26.7,25.16-30.3,26.49h147.8V-240.3s16.72,6.37,48.11,10.72c14.18,2,31.73,4.4,44.44-.77,27.89-11.33,37.53-51.63,19.19-65.1-24.7-18.15-70.88-9.1-73.72-8.43-23.43,5.53-38,13-38,13v-95.27H230.88s-5.84,19.6-5.95,22.53c-.59,16.21,7,21,3.93,32.91-3.23,12.76-15.22,20.79-18.39,22.79-1.12.71-25.8,15.74-54,7.38-13.91-4.12-28-13.72-30.84-25.75-1.22-5.23.42-7.85,9.18-30.53,8.94-23.17,8.24-26,8.24-26Z"/></clipPath><radialGradient id="radial-gradient-3" cx="259.94" cy="-32.29" r="149.76" xlink:href="#radial-gradient"/><radialGradient id="radial-gradient-4" cx="479.34" cy="-72.61" r="145.62" xlink:href="#radial-gradient"/><radialGradient id="radial-gradient-5" cx="698.38" cy="-31.8" r="151.33" xlink:href="#radial-gradient"/><clipPath id="clip-path-3"><path class="cls-1" d="M656.12-382.47H778s10.88-16.76,11.11-22.68c.69-11.15-6-14.09-7.07-26-.35-3.9-1.81-20,12.69-31.81,16.71-13.64,42-11.42,45.66-11.06,6.19.62,22,2.21,31.53,12.23,10.77,11.36,5.8,25.56,5,27.57-4,10.84-12.2,11.29-17.2,25.3-3,8.51-1.84,13.48-.5,16.53l8.61,10h135.75v235.89H883c0,8.93.07,21.62,0,38.62,0,7.11-.11,12.14-3,18.38a45.29,45.29,0,0,1-19.19,19.92C841.08-58.84,808.92-59,790.08-72.73c-19.57-14.21-16-36.61-15.83-37.68.61-3.42,1.73-5.11,3.71-14.4,2.06-9.65,4.06-21.77,4-21.77H656.12v-90.06s15.34,5.41,48.12,10.72c17,2.76,26.14,4.15,36.83,1.39,21.86-5.63,30.57-23.56,32.43-27.81,1.25-2.87,10.79-24.71-5.64-39.45-16.23-14.57-46.15-11.73-55.55-10.85-33.72,3.19-56.19,15.45-56.19,15.45Z"/></clipPath><radialGradient id="radial-gradient-6" cx="483.4" cy="-28.63" r="149.76" xlink:href="#radial-gradient"/><radialGradient id="radial-gradient-7" cx="702.8" cy="-68.94" r="145.62" xlink:href="#radial-gradient"/><clipPath id="clip-path-4"><path class="cls-1" d="M-604,107.86V293.38s2.19,20.14,15.33,32.18c11.9,10.92,28,15.09,30.46,15.71a102.5,102.5,0,0,0,20.63,2.48h281V260.6s24.61-.68,31,.77a62.22,62.22,0,0,1,11.6,3.73c12.05,5.31,17.4,9,21.72,10.82,15.36,6.56,48-6,51.7-28.4,3.3-19.92-17.5-40.48-35.85-43.15-15.65-2.27-23.05,9.41-50.18,12.57a108,108,0,0,1-30-.77V107.86H-377.95s13.51,17.81,12.81,40.15c-.11,3.7-.87,27.93-26.1,40.05-19.65,9.45-43.83,6.57-59.64-.06-17.8-7.46-25.12-19.75-27.45-23.81-8.85-15.43-5.78-31.6-4.18-40,2.2-11.59,3.57-16.35,3.57-16.35Z"/></clipPath><radialGradient id="radial-gradient-8" cx="278.73" cy="-10.09" r="175.93" xlink:href="#radial-gradient"/><radialGradient id="radial-gradient-9" cx="537.7" cy="-13.75" r="173.05" xlink:href="#radial-gradient"/><radialGradient id="radial-gradient-10" cx="274.15" cy="185.49" r="145.62" xlink:href="#radial-gradient"/><radialGradient id="radial-gradient-11" cx="493.19" cy="226.29" r="151.33" xlink:href="#radial-gradient"/><radialGradient id="radial-gradient-12" cx="474.83" cy="164.38" r="145.62" xlink:href="#radial-gradient"/><clipPath id="clip-path-5"><path class="cls-1" d="M8.09,86.75h127a56.43,56.43,0,0,1-18.15-22c-7.71-17.33,3.33-33.51,4.09-34.58,15.76-22.27,51-23.86,55.25-24,6-.2,22-.55,37.58,7.34,1.59.81,27,14.16,26.08,36.75A36.3,36.3,0,0,1,227,75.53a59.53,59.53,0,0,1-19.28,11.22H355.55V201.19a41.47,41.47,0,0,1-15.87,1.11c-8.29-1.12-13.26-4.72-18.82-8-3.95-2.34-18.58-11-31.3-13-15.82-2.55-36.23,3.89-47.18,16.4C240.8,199.49,230,212.33,236,228c5.42,14,21.55,23.05,36.35,25.28,17.42,2.61,35.87-3.79,40.4-5.37,5.27-1.83,7.7-3.24,13.29-4.29,11.49-2.16,22.1-.15,29.47,2v77H8.09V239.49s28.66.19,31,.76a53,53,0,0,1,9.75,3.29c13.92,6.33,16.7,9,23.58,11.27,16.8,5.59,33.78-5.2,35-6,3.92-2.58,14.65-9.61,16.72-22.42,1.63-10.07-3-18.11-5.36-22.18-2.2-3.81-8.58-13.45-20.56-17.92-15.77-5.89-32,.63-35.23,1.93a171.9,171.9,0,0,1-18.7,6.28,53.52,53.52,0,0,1-6.18,1.31c-11.87,1.88-30-.77-30-.77Z"/></clipPath><radialGradient id="radial-gradient-13" cx="211.28" cy="-27.32" r="169.69" xlink:href="#radial-gradient"/><radialGradient id="radial-gradient-14" cx="479.41" cy="-31.2" r="175.93" xlink:href="#radial-gradient"/><radialGradient id="radial-gradient-15" cx="738.37" cy="-34.87" r="173.05" xlink:href="#radial-gradient"/><radialGradient id="radial-gradient-16" cx="255.42" cy="204.69" r="149.76" xlink:href="#radial-gradient"/><radialGradient id="radial-gradient-17" cx="693.86" cy="205.18" r="151.33" xlink:href="#radial-gradient"/><clipPath id="clip-path-6"><path class="cls-1" d="M636.47,107.37V221.81s-15.06,1.2-15.88,1.11c-13.11-1.47-17.3-8.22-29.73-13.92-3.82-1.76-20.44-9.39-38.62-6.48-16.67,2.66-30.36,13.51-35,25.91a29.19,29.19,0,0,0,3.57,27.12,40.81,40.81,0,0,0,13.71,11.86c17.74,9.68,38.54,6.34,41.18,5.88,5.28-.92,3.5-1.33,21.71-6.1,11.77-3.09,15.85-3.79,20.66-3.86,8.41-.11,18.45,2.91,18.45,2.91v77c157,.36,289.79,1,289.79,1a76.21,76.21,0,0,0,19-2.32c6.5-1.76,17.46-4.92,26.79-14.92a51.26,51.26,0,0,0,11.66-21.29,59.57,59.57,0,0,0,1.65-12.82l-1.43-185.52H863.33s.49,6.54,0,30.19c-.43,22.55-3.65,28.21-4.92,30.28-9,14.53-26.54,20.41-28.62,21.08a71.6,71.6,0,0,1-36.24,1.74c-18.74-4.09-31.15-15.32-36.28-26-1.16-2.41-4.93-11.37-2.7-21.15.61-2.7,2.95-11,2.95-11l4.8-25.14Z"/></clipPath><radialGradient id="radial-gradient-18" cx="423.47" cy="-6.69" r="169.69" xlink:href="#radial-gradient"/><radialGradient id="radial-gradient-19" cx="691.59" cy="-10.58" r="175.93" xlink:href="#radial-gradient"/><radialGradient id="radial-gradient-20" cx="467.61" cy="225.32" r="149.76" xlink:href="#radial-gradient"/><radialGradient id="radial-gradient-21" cx="687.01" cy="185" r="145.62" xlink:href="#radial-gradient"/></defs><g class="cls-2"><path class="cls-3" d="M-238.62-141.27h127a56.52,56.52,0,0,1-18.15-22c-7.71-17.33,3.33-33.5,4.09-34.58,15.76-22.27,51-23.86,55.25-24,6-.19,22-.54,37.58,7.34,1.59.81,27,14.16,26.08,36.75a36.26,36.26,0,0,1-12.86,25.25,59.3,59.3,0,0,1-19.28,11.22h147.8V-26.83A41.32,41.32,0,0,1,93-25.72c-8.29-1.12-13.25-4.72-18.81-8-4-2.33-18.59-11-31.31-13C27-49.29,6.62-42.84-4.33-30.34-5.91-28.53-16.75-15.69-10.67,0-5.24,14,10.88,23,25.68,25.26c17.42,2.62,35.87-3.79,40.4-5.36,5.27-1.83,7.7-3.24,13.3-4.29,11.48-2.16,22.09-.15,29.47,2v77H-238.62V11.47s28.67.2,31,.77a54.07,54.07,0,0,1,9.75,3.28c13.92,6.33,16.69,9,23.57,11.27,16.81,5.59,33.78-5.2,35-6,3.92-2.57,14.65-9.61,16.72-22.42,1.63-10.07-3-18.1-5.36-22.18-2.19-3.8-8.58-13.45-20.56-17.92-15.77-5.88-32,.64-35.23,1.94a173.77,173.77,0,0,1-18.69,6.28,56.44,56.44,0,0,1-6.18,1.3c-11.88,1.88-30-.76-30-.76Z"/><path class="cls-4" d="M110-141.27V-26.83S95-25.63,94.13-25.72C81-27.19,76.83-33.94,64.4-39.64,60.58-41.4,44-49,25.78-46.12,9.11-43.46-4.58-32.61-9.27-20.21A29.19,29.19,0,0,0-5.7,6.91,40.9,40.9,0,0,0,8,18.77c17.74,9.68,38.54,6.34,41.18,5.88,5.28-.92,3.5-1.33,21.71-6.1,11.77-3.09,15.85-3.79,20.66-3.86C100,14.58,110,17.6,110,17.6v77c157,.36,289.79,1,289.79,1a76.21,76.21,0,0,0,19-2.32c6.5-1.76,17.46-4.92,26.79-14.92a51.14,51.14,0,0,0,11.66-21.29,59.57,59.57,0,0,0,1.65-12.82l-1.43-185.52H336.88s.48,6.54,0,30.19c-.43,22.55-3.65,28.21-4.92,30.28-9,14.53-26.54,20.41-28.62,21.08A71.6,71.6,0,0,1,267.12-58C248.38-62.07,236-73.3,230.84-84c-1.16-2.41-4.93-11.37-2.7-21.15.61-2.7,3-11,3-11l4.8-25.14Z"/><path class="cls-5" d="M69-431.77C57.63-444.11,27-474-21.1-482.59c-73.8-13.16-129.42,34.42-140.25,43.68-64.05,54.78-69.6,137.33-73,187.91-1.78,26.46-3.31,52.81,6.13,85.79,4.55,15.9,26.17,91.4,96.76,124.07C-63.38-9.63,31.7-26.7,77.77-91.72,102.4-126.5,119.34-185.64,91.56-232,55.22-292.6-41-285.3-92.38-268.77c-86.84,27.94-123,108-129.51,123"/></g><g class="cls-6"><path class="cls-7" d="M-333.43-150.24V35.28s2.19,20.14,15.32,32.18c11.91,10.92,28,15.09,30.47,15.72A103.27,103.27,0,0,0-267,85.66H14V2.5s24.61-.68,31,.77A61.56,61.56,0,0,1,56.67,7c12,5.31,17.4,9,21.72,10.81,15.36,6.57,48-6,51.69-28.39,3.3-19.93-17.49-40.49-35.84-43.15-15.66-2.28-23,9.4-50.19,12.56a107.55,107.55,0,0,1-30-.76V-150.24H-107.43s13.51,17.81,12.82,40.15c-.12,3.7-.87,27.94-26.1,40.06-19.66,9.44-43.83,6.57-59.64-.06-17.8-7.47-25.13-19.76-27.45-23.81-8.86-15.43-5.78-31.61-4.19-40,2.21-11.6,3.57-16.36,3.57-16.36Z"/><path class="cls-8" d="M14-150.24H141a56.52,56.52,0,0,1-18.15-22c-7.71-17.33,3.33-33.5,4.09-34.58,15.76-22.26,51-23.86,55.25-24,6-.19,22-.54,37.58,7.35,1.59.8,27,14.16,26.08,36.74A36.33,36.33,0,0,1,233-161.45a59.38,59.38,0,0,1-19.28,11.21h147.8V-35.79a41.57,41.57,0,0,1-15.88,1.1c-8.29-1.12-13.26-4.72-18.81-8-4-2.33-18.59-11-31.31-13-15.82-2.54-36.23,3.9-47.18,16.41C246.75-37.5,235.91-24.66,242-9c5.42,14,21.55,23.06,36.35,25.28,17.42,2.62,35.87-3.79,40.4-5.36C324,9.1,326.44,7.69,332,6.64c11.48-2.16,22.09-.15,29.47,2v77H14V2.5s28.66.2,31,.77a53.53,53.53,0,0,1,9.75,3.28c13.92,6.34,16.7,9,23.58,11.27,16.81,5.59,33.78-5.2,35-6,3.92-2.57,14.65-9.61,16.72-22.41,1.63-10.08-3-18.11-5.36-22.18-2.2-3.81-8.58-13.45-20.56-17.93-15.77-5.88-32,.64-35.23,1.94a174.23,174.23,0,0,1-18.7,6.28,55.93,55.93,0,0,1-6.18,1.3c-11.87,1.88-30-.76-30-.76Z"/><path class="cls-9" d="M362.67-150.24V-35.79s-15.06,1.19-15.88,1.1c-13.11-1.47-17.31-8.22-29.73-13.92-3.82-1.75-20.44-9.39-38.62-6.48-16.67,2.66-30.36,13.51-35.05,25.92A29.16,29.16,0,0,0,247-2.06,40.92,40.92,0,0,0,260.67,9.8c17.74,9.68,38.54,6.34,41.17,5.88,5.29-.91,3.51-1.33,21.72-6.1,11.77-3.09,15.85-3.79,20.66-3.86,8.41-.11,18.45,2.91,18.45,2.91v77c157,.36,289.79,1,289.79,1a75.67,75.67,0,0,0,19-2.32c6.5-1.76,17.46-4.92,26.79-14.92A51.18,51.18,0,0,0,709.92,48.1a59.57,59.57,0,0,0,1.65-12.82l-1.43-185.52H589.53s.48,6.54,0,30.19c-.43,22.55-3.65,28.21-4.92,30.28-9,14.53-26.54,20.41-28.63,21.08a71.43,71.43,0,0,1-36.23,1.74C501-71,488.63-82.27,483.49-92.93c-1.16-2.41-4.92-11.37-2.7-21.14.62-2.71,3-11,3-11l4.8-25.14Z"/><path class="cls-5" d="M321.63-440.74c-11.34-12.34-41.95-42.24-90.07-50.82-73.8-13.16-129.42,34.42-140.26,43.68-64,54.78-69.59,137.33-73,187.91-1.78,26.46-3.31,52.81,6.13,85.79,4.55,15.9,26.17,91.4,96.75,124.07,68.09,31.51,163.17,14.45,209.23-50.58,24.64-34.78,41.58-93.92,13.8-140.26-36.34-60.61-132.52-53.32-183.94-36.78-86.84,27.93-123,108-129.51,123"/></g><g class="cls-10"><path class="cls-11" d="M-38.81-146.58V39s2.18,20.13,15.32,32.18C-11.58,82.05,4.47,86.21,7,86.84A103.27,103.27,0,0,0,27.6,89.32h281V6.17s24.62-.68,31,.76a63,63,0,0,1,11.61,3.74c12,5.31,17.39,9,21.72,10.82,15.36,6.56,48-6,51.69-28.4,3.3-19.93-17.49-40.48-35.85-43.15-15.65-2.28-23,9.4-50.18,12.57a108,108,0,0,1-30-.77V-146.58H187.19S200.7-128.77,200-106.42c-.11,3.7-.86,27.93-26.09,40.05-19.66,9.44-43.83,6.57-59.64-.06C96.47-73.9,89.14-86.18,86.81-90.24c-8.85-15.43-5.77-31.6-4.18-40,2.21-11.59,3.57-16.36,3.57-16.36Z"/><path class="cls-12" d="M308.65-146.58h127a56.44,56.44,0,0,1-18.15-22c-7.72-17.33,3.32-33.51,4.09-34.59,15.76-22.26,51-23.85,55.25-24,6-.2,22-.55,37.58,7.34,1.59.81,27,14.16,26.08,36.75a36.3,36.3,0,0,1-12.86,25.25,59.38,59.38,0,0,1-19.28,11.21H656.12V-32.13A41.47,41.47,0,0,1,640.25-31c-8.3-1.12-13.26-4.72-18.82-8-3.95-2.34-18.58-11-31.3-13-15.83-2.55-36.24,3.89-47.18,16.4C541.37-33.83,530.53-21,536.6-5.32,542,8.67,558.16,17.73,573,20c17.42,2.61,35.87-3.79,40.39-5.37,5.28-1.83,7.7-3.24,13.3-4.29,11.49-2.16,22.1-.15,29.47,2v77H308.65V6.17s28.67.19,31,.76a53,53,0,0,1,9.75,3.29c13.92,6.33,16.69,9,23.58,11.27,16.8,5.59,33.78-5.21,35-6,3.92-2.58,14.65-9.61,16.72-22.42,1.63-10.07-3-18.11-5.36-22.18-2.2-3.81-8.58-13.45-20.56-17.92-15.77-5.89-32,.63-35.23,1.93a171.9,171.9,0,0,1-18.7,6.28,53.52,53.52,0,0,1-6.18,1.31c-11.87,1.88-30-.77-30-.77Z"/><path class="cls-5" d="M616.25-437.07c-11.34-12.34-42-42.25-90.07-50.83-73.8-13.15-129.43,34.42-140.26,43.69-64,54.78-69.59,137.33-73,187.9-1.78,26.47-3.31,52.82,6.13,85.79,4.55,15.9,26.16,91.4,96.75,124.07C483.89-14.94,579-32,625-97c24.64-34.77,41.58-93.91,13.8-140.25C602.5-297.9,506.32-290.61,454.9-274.07c-86.84,27.93-123,108-129.51,123"/></g><g class="cls-13"><path class="cls-14" d="M-256.49-128v97.58s-17.21-6.95-48.75-9.19c-14-1-30.4-2-43.93,6-1.61.94-16.08,9.73-16.37,23.86-.4,19.56,26.8,30,28.07,30.49,10.35,3.82,19.66,3.66,38.3,3.33,30.66-.53,42.68-2.37,42.68-2.37v86.24h127s-22.69-18-22.21-38c.4-16.83,19.87-31.84,39.38-38.3,3.25-1.08,34.65-11,61.6,3.06,18.25,9.52,31.05,28.27,24.24,46.73-6.39,17.34-26.69,25.16-30.3,26.49H91V17.79s16.72,6.37,48.12,10.73c14.17,2,31.73,4.39,44.43-.77,27.9-11.34,37.53-51.63,19.19-65.11C178-55.5,131.85-46.45,129-45.78c-23.43,5.52-38,13-38,13V-128H-39.65s-5.83,19.6-5.94,22.54c-.6,16.21,7,21,3.92,32.91C-44.9-59.84-56.88-51.8-60-49.8c-1.12.7-25.81,15.73-54,7.37-13.9-4.11-28-13.72-30.83-25.74-1.22-5.23.41-7.86,9.17-30.53,9-23.17,8.24-26,8.24-26Z"/><path class="cls-15" d="M91-128H212.82s10.87-16.75,11.11-22.68c.68-11.15-6-14.09-7.07-26-.36-3.89-1.82-20,12.69-31.8,16.71-13.65,42-11.43,45.65-11.07,6.2.62,22,2.21,31.54,12.23,10.77,11.36,5.79,25.56,5,27.57-4,10.84-12.19,11.29-17.19,25.3-3,8.52-1.85,13.48-.51,16.54l8.62,10H438.45v235.9H317.84c0,8.92.07,21.61,0,38.61,0,7.11-.1,12.14-3,18.39a45.29,45.29,0,0,1-19.18,19.91c-19.69,10.82-51.85,10.63-70.69-3.06-19.57-14.22-16-36.62-15.83-37.69.6-3.42,1.73-5.11,3.71-14.4,2.06-9.65,4.06-21.77,4-21.77H91V17.79s15.33,5.41,48.12,10.73c17,2.75,26.14,4.14,36.83,1.39,21.85-5.64,30.57-23.57,32.42-27.82,1.26-2.87,10.79-24.71-5.63-39.45-16.23-14.56-46.16-11.73-55.56-10.84C113.44-45,91-32.76,91-32.76Z"/><path class="cls-16" d="M-256.49,107.86h127a56.52,56.52,0,0,1-18.15-22c-7.71-17.33,3.33-33.5,4.09-34.58,15.76-22.27,51-23.86,55.25-24,6-.2,22-.55,37.58,7.34,1.59.81,27,14.16,26.08,36.75A36.26,36.26,0,0,1-37.54,96.64a59.3,59.3,0,0,1-19.28,11.22H91V222.3a41.52,41.52,0,0,1-15.88,1.11c-8.29-1.12-13.25-4.72-18.81-8-4-2.34-18.59-11-31.31-13-15.82-2.55-36.23,3.9-47.18,16.4-1.58,1.81-12.41,14.65-6.34,30.32,5.43,14,21.55,23.05,36.36,25.28C25.23,277,43.68,270.6,48.21,269c5.27-1.84,7.7-3.24,13.3-4.3,11.48-2.16,22.1-.15,29.47,2v77H-256.49V260.6s28.67.2,31,.77a52.55,52.55,0,0,1,9.75,3.28c13.92,6.33,16.69,9,23.57,11.27,16.81,5.59,33.78-5.2,35-6,3.92-2.57,14.65-9.61,16.73-22.42,1.62-10.07-3-18.1-5.36-22.18-2.2-3.81-8.59-13.45-20.56-17.92-15.78-5.89-32,.64-35.24,1.93a169.18,169.18,0,0,1-18.69,6.28,54,54,0,0,1-6.18,1.31c-11.87,1.88-30-.77-30-.77Z"/><path class="cls-17" d="M92.14,107.86V222.3s-15.06,1.2-15.88,1.11c-13.11-1.47-17.3-8.22-29.73-13.93-3.82-1.75-20.44-9.38-38.61-6.47-16.68,2.66-30.37,13.51-35.06,25.91A29.19,29.19,0,0,0-23.57,256,40.9,40.9,0,0,0-9.86,267.9c17.74,9.68,38.54,6.33,41.18,5.88,5.29-.92,3.5-1.33,21.72-6.11,11.76-3.08,15.84-3.78,20.65-3.85,8.41-.11,18.45,2.91,18.45,2.91v77c157,.37,289.79,1,289.79,1a75.93,75.93,0,0,0,19-2.31c6.5-1.76,17.46-4.92,26.8-14.92a51.28,51.28,0,0,0,11.65-21.29A59.57,59.57,0,0,0,441,293.38l-1.43-185.52H319s.48,6.54,0,30.18c-.43,22.56-3.65,28.22-4.92,30.28-9,14.54-26.53,20.41-28.62,21.08a71.45,71.45,0,0,1-36.24,1.75c-18.74-4.1-31.15-15.32-36.28-26-1.16-2.41-4.93-11.38-2.7-21.15.61-2.71,2.95-11,2.95-11l4.8-25.14Z"/><path class="cls-5" d="M51.1-182.64C39.76-195,9.16-224.89-39-233.47c-73.79-13.15-129.42,34.43-140.25,43.69-64.05,54.78-69.6,137.33-73,187.91-1.78,26.46-3.31,52.81,6.13,85.78,4.55,15.91,26.17,91.41,96.76,124.08C-81.25,239.5,13.83,222.43,59.9,157.4c24.63-34.77,41.57-93.91,13.79-140.25C37.35-43.47-58.83-36.18-110.24-19.64c-86.85,27.93-123.06,108-129.52,123"/></g><path class="cls-18" d="M8.09,86.75h127a56.43,56.43,0,0,1-18.15-22c-7.71-17.33,3.33-33.51,4.09-34.58,15.76-22.27,51-23.86,55.25-24,6-.2,22-.55,37.58,7.34,1.59.81,27,14.16,26.08,36.75A36.3,36.3,0,0,1,227,75.53a59.53,59.53,0,0,1-19.28,11.22H355.55V201.19a41.47,41.47,0,0,1-15.87,1.11c-8.29-1.12-13.26-4.72-18.82-8-3.95-2.34-18.58-11-31.3-13-15.82-2.55-36.23,3.89-47.18,16.4C240.8,199.49,230,212.33,236,228c5.42,14,21.55,23.05,36.35,25.28,17.42,2.61,35.87-3.79,40.4-5.37,5.27-1.83,7.7-3.24,13.29-4.29,11.49-2.16,22.1-.15,29.47,2v77H8.09V239.49s28.66.19,31,.76a53,53,0,0,1,9.75,3.29c13.92,6.33,16.7,9,23.58,11.27,16.8,5.59,33.78-5.2,35-6,3.92-2.58,14.65-9.61,16.72-22.42,1.63-10.07-3-18.11-5.36-22.18-2.2-3.81-8.58-13.45-20.56-17.92-15.77-5.89-32,.63-35.23,1.93a171.9,171.9,0,0,1-18.7,6.28,53.52,53.52,0,0,1-6.18,1.31c-11.87,1.88-30-.77-30-.77Z"/><g class="cls-19"><path class="cls-20" d="M-339.38-149.15h129.06s-20.27-23.68-13.13-44.89c6.06-18,32.08-27,36-28.36,8.9-3.07,25-8.63,41.41-3.16a37.53,37.53,0,0,1,25.23,28.65c.94,6.3-.78,11.24-4.21,21.13-6.77,19.47-11.58,26.63-11.58,26.63H8.09v97.58s-19.59-7.85-48.76-9.2c-11.09-.51-40-1.85-53.52,13-9.68,10.67-8.72,26.66,1,36.77C-80.9,1.78-57.34,2.35-38.65,2.81-9.76,3.51,8.09.51,8.09.51V86.75H-113.38s20,31.35,10.1,57c-5,13-19.45,23.61-35.34,27.58-26.91,6.72-59.94-5-71.7-22.21-16.63-24.28-4.05-62.36-4.05-62.36h-125Z"/><path class="cls-21" d="M8.09-149.15v97.58s-17.21-7-48.76-9.2c-14-1-30.39-2-43.92,6-1.61.94-16.09,9.73-16.38,23.86-.4,19.56,26.81,30,28.07,30.48,10.35,3.83,19.67,3.67,38.31,3.34C-3.94,2.35,8.09.51,8.09.51V86.75h127s-22.69-18-22.22-38c.4-16.84,19.88-31.84,39.39-38.3,3.25-1.08,34.64-11,61.6,3.06,18.24,9.52,31,28.26,24.24,46.72-6.4,17.35-26.7,25.16-30.3,26.5H355.55V-3.32S372.27,3.05,403.67,7.4c14.18,2,31.73,4.4,44.44-.76C476-4.7,485.64-45,467.29-58.47c-24.69-18.14-70.87-9.1-73.72-8.42-23.42,5.52-38,13-38,13v-95.28H224.93s-5.84,19.6-6,22.53c-.59,16.22,7,21,3.93,32.92-3.23,12.75-15.22,20.79-18.39,22.79-1.12.7-25.8,15.73-54,7.37-13.91-4.12-28-13.72-30.84-25.74-1.22-5.23.42-7.86,9.17-30.53,9-23.17,8.25-26,8.25-26Z"/><path class="cls-22" d="M355.55-149.15H477.39s10.88-16.76,11.11-22.68c.69-11.15-6-14.09-7.07-26-.35-3.9-1.81-20,12.7-31.8,16.71-13.65,42-11.43,45.65-11.07,6.19.62,22,2.21,31.53,12.23,10.77,11.36,5.8,25.56,5.05,27.57-4,10.84-12.2,11.29-17.19,25.3-3,8.51-1.85,13.48-.51,16.54l8.61,9.95H703V86.75H582.42c0,8.92.07,21.61,0,38.61,0,7.11-.11,12.14-3,18.38a45.29,45.29,0,0,1-19.19,19.92c-19.69,10.82-51.84,10.62-70.69-3.07-19.56-14.21-16-36.61-15.83-37.68.61-3.42,1.73-5.11,3.71-14.4,2.06-9.65,4.06-21.77,4.05-21.77H355.55V-3.32S370.89,2.09,403.67,7.4c17,2.76,26.14,4.15,36.83,1.39C462.36,3.16,471.07-14.77,472.93-19c1.25-2.87,10.79-24.71-5.64-39.45C451.06-73,421.14-70.2,411.74-69.31,378-66.12,355.55-53.87,355.55-53.87Z"/><path class="cls-23" d="M-339.38,86.75V272.27s2.18,20.13,15.32,32.18c11.91,10.92,28,15.08,30.47,15.71A102.44,102.44,0,0,0-273,322.64H8.09V239.49s24.61-.68,31,.76A63,63,0,0,1,50.72,244c12,5.31,17.4,9,21.72,10.82,15.36,6.56,48-6,51.69-28.4,3.3-19.93-17.49-40.48-35.85-43.15-15.65-2.28-23,9.41-50.18,12.57a107.87,107.87,0,0,1-30-.77V86.75H-113.38s13.51,17.81,12.82,40.15c-.12,3.7-.87,27.93-26.1,40-19.66,9.44-43.83,6.57-59.64-.06-17.8-7.47-25.13-19.75-27.45-23.81-8.86-15.43-5.78-31.6-4.19-40,2.21-11.59,3.57-16.35,3.57-16.35Z"/><path class="cls-24" d="M356.72,86.75V201.19s-15.06,1.2-15.88,1.11c-13.11-1.47-17.31-8.22-29.74-13.93-3.81-1.75-20.43-9.38-38.61-6.48-16.67,2.67-30.36,13.51-35.06,25.92A29.21,29.21,0,0,0,241,234.92a40.71,40.71,0,0,0,13.72,11.86c17.74,9.69,38.54,6.34,41.17,5.89,5.29-.92,3.51-1.33,21.72-6.11,11.77-3.08,15.84-3.79,20.65-3.85,8.42-.12,18.46,2.91,18.46,2.91v77c157,.36,289.79,1,289.79,1a75.93,75.93,0,0,0,19-2.31c6.5-1.76,17.45-4.92,26.79-14.92A51.26,51.26,0,0,0,704,285.09a59.64,59.64,0,0,0,1.65-12.82L704.18,86.75H583.58s.48,6.53,0,30.18c-.44,22.55-3.65,28.22-4.93,30.28-9,14.54-26.53,20.41-28.62,21.08A71.4,71.4,0,0,1,513.83,170c-18.74-4.1-31.15-15.32-36.29-26-1.16-2.41-4.92-11.38-2.7-21.15.62-2.71,3-11,3-11l4.79-25.13Z"/><path class="cls-5" d="M315.68-203.75c-11.34-12.34-41.95-42.25-90.07-50.83-73.8-13.15-129.43,34.42-140.26,43.69-64,54.78-69.59,137.33-73,187.9C10.58,3.48,9.05,29.83,18.49,62.8,23,78.7,44.65,154.2,115.24,186.87c68.08,31.51,163.17,14.45,209.23-50.58C349.11,101.52,366.05,42.38,338.27-4,301.93-64.58,205.75-57.29,154.33-40.75c-86.84,27.93-123,108-129.51,123"/></g><g class="cls-25"><path class="cls-26" d="M-59.63-128.53H69.43S49.16-152.21,56.3-173.42c6.07-18,32.08-27,36-28.35,8.9-3.07,25-8.64,41.42-3.17a37.53,37.53,0,0,1,25.22,28.65c.94,6.31-.77,11.25-4.21,21.13-6.76,19.48-11.58,26.63-11.58,26.63H287.84v97.58s-19.58-7.84-48.75-9.19c-11.09-.52-40-1.85-53.53,13-9.68,10.66-8.72,26.66,1,36.76C198.86,22.4,222.41,23,241.11,23.43c28.89.71,46.73-2.3,46.73-2.3v86.24H166.38s20,31.35,10.09,57c-5,13-19.44,23.6-35.34,27.57-26.91,6.72-59.94-5-71.7-22.21-16.63-24.28-4.05-62.36-4.05-62.36h-125Z"/><path class="cls-27" d="M287.84-128.53v97.58s-17.21-6.94-48.75-9.19c-14-1-30.4-2-43.93,6-1.61,1-16.08,9.74-16.37,23.86-.4,19.56,26.8,30,28.07,30.49,10.34,3.82,19.66,3.66,38.3,3.34,30.66-.54,42.68-2.38,42.68-2.38v86.24h127s-22.69-18-22.21-38c.4-16.83,19.87-31.84,39.38-38.3,3.25-1.07,34.64-11,61.6,3.07,18.24,9.52,31,28.26,24.24,46.72-6.39,17.34-26.7,25.16-30.3,26.49h147.8V17.3S652,23.68,683.43,28c14.17,2,31.72,4.4,44.43-.77,27.89-11.33,37.53-51.63,19.19-65.1-24.7-18.15-70.87-9.1-73.72-8.43-23.43,5.53-38,13-38,13v-95.28H504.68s-5.84,19.61-5.94,22.54c-.6,16.21,6.95,20.95,3.92,32.91-3.23,12.76-15.21,20.79-18.38,22.79-1.13.71-25.81,15.73-54,7.38-13.91-4.12-28-13.72-30.84-25.75-1.22-5.23.42-7.85,9.18-30.53,8.94-23.17,8.24-26,8.24-26Z"/><path class="cls-28" d="M-59.63,107.37V292.89s2.19,20.14,15.32,32.18c11.91,10.92,28,15.09,30.47,15.72a103.33,103.33,0,0,0,20.63,2.48h281V260.11s24.61-.68,31,.77a61.67,61.67,0,0,1,11.6,3.74c12,5.31,17.4,9,21.72,10.81,15.36,6.57,48-6,51.69-28.4,3.31-19.92-17.49-40.48-35.84-43.15-15.66-2.27-23.05,9.41-50.18,12.57a107.63,107.63,0,0,1-30-.76V107.37H166.38s13.5,17.81,12.81,40.15c-.12,3.7-.87,27.93-26.1,40-19.65,9.45-43.83,6.58-59.64-.06-17.8-7.46-25.12-19.75-27.45-23.8-8.86-15.43-5.78-31.61-4.19-40,2.21-11.6,3.57-16.36,3.57-16.36Z"/><path class="cls-29" d="M287.84,107.37h127a56.52,56.52,0,0,1-18.15-22c-7.71-17.33,3.33-33.5,4.09-34.58,15.76-22.27,51-23.86,55.25-24,6-.19,22-.54,37.58,7.34,1.59.81,27,14.16,26.08,36.75a36.26,36.26,0,0,1-12.86,25.25,59.3,59.3,0,0,1-19.28,11.22h147.8V221.81a41.32,41.32,0,0,1-15.88,1.11c-8.29-1.12-13.25-4.72-18.81-8-4-2.33-18.59-11-31.31-13-15.82-2.55-36.23,3.9-47.18,16.4-1.58,1.81-12.42,14.65-6.34,30.32,5.42,14,21.55,23.05,36.35,25.28,17.42,2.62,35.87-3.79,40.4-5.36,5.27-1.83,7.7-3.24,13.3-4.29,11.48-2.16,22.09-.15,29.47,2v77H287.84V260.11s28.66.2,31,.77a53.67,53.67,0,0,1,9.74,3.28c13.92,6.33,16.7,9,23.58,11.27,16.81,5.59,33.78-5.2,35-6,3.92-2.57,14.65-9.61,16.72-22.42,1.63-10.07-3-18.1-5.36-22.18-2.19-3.8-8.58-13.45-20.56-17.92-15.77-5.88-32,.64-35.23,1.94a174.23,174.23,0,0,1-18.7,6.28,55.71,55.71,0,0,1-6.17,1.3c-11.88,1.88-30-.76-30-.76Z"/><path class="cls-5" d="M595.43-183.13c-11.34-12.34-41.95-42.24-90.07-50.82-73.8-13.16-129.42,34.42-140.25,43.68-64.05,54.78-69.6,137.33-73,187.91-1.78,26.46-3.31,52.81,6.13,85.79,4.55,15.9,26.17,91.4,96.76,124.07,68.08,31.51,163.16,14.44,209.23-50.58C628.86,122.14,645.8,63,618,16.66,581.68-44,485.5-36.66,434.08-20.13c-86.84,27.94-123,108-129.51,123"/></g></svg>