<svg id="Layer_1" data-name="Layer 1" xmlns="http://www.w3.org/2000/svg" xmlns:xlink="http://www.w3.org/1999/xlink" viewBox="0 0 361.28 430.07"><defs><style>.cls-1,.cls-10{fill:none;}.cls-2{clip-path:url(#clip-path);}.cls-10,.cls-12,.cls-13,.cls-14,.cls-15,.cls-17,.cls-18,.cls-19,.cls-20,.cls-21,.cls-23,.cls-24,.cls-26,.cls-27,.cls-28,.cls-3,.cls-4,.cls-6,.cls-7,.cls-8,.cls-9{stroke:#9cf;stroke-miterlimit:10;}.cls-12,.cls-13,.cls-14,.cls-15,.cls-17,.cls-18,.cls-19,.cls-20,.cls-21,.cls-23,.cls-24,.cls-26,.cls-27,.cls-28,.cls-3,.cls-4,.cls-6,.cls-7,.cls-8,.cls-9{stroke-width:5px;}.cls-3{fill:url(#radial-gradient);}.cls-4{fill:url(#radial-gradient-2);}.cls-5{clip-path:url(#clip-path-2);}.cls-6{fill:url(#radial-gradient-3);}.cls-7{fill:url(#radial-gradient-4);}.cls-8{fill:url(#radial-gradient-5);}.cls-9{fill:url(#radial-gradient-6);}.cls-10{stroke-linecap:round;stroke-width:80px;}.cls-11{clip-path:url(#clip-path-3);}.cls-12{fill:url(#radial-gradient-7);}.cls-13{fill:url(#radial-gradient-8);}.cls-14{fill:url(#radial-gradient-9);}.cls-15{fill:url(#radial-gradient-10);}.cls-16{clip-path:url(#clip-path-4);}.cls-17{fill:url(#radial-gradient-11);}.cls-18{fill:url(#radial-gradient-12);}.cls-19{fill:url(#radial-gradient-13);}.cls-20{fill:url(#radial-gradient-14);}.cls-21{fill:url(#radial-gradient-15);}.cls-22{clip-path:url(#clip-path-5);}.cls-23{fill:url(#radial-gradient-16);}.cls-24{fill:url(#radial-gradient-17);}.cls-25{clip-path:url(#clip-path-6);}.cls-26{fill:url(#radial-gradient-18);}.cls-27{fill:url(#radial-gradient-19);}.cls-28{fill:url(#radial-gradient-20);}</style><clipPath id="clip-path"><path class="cls-1" d="M-631.37-424.73c0,80.71,4.42,90.43,4.42,90.43a177,177,0,0,0,23.7-1.5c19.26-2.4,22.47-2.54,26.12-2.39,6.48.26,15.76.63,23.24,4.89,16.85,9.59,11.86,31.66,11.2,34.59-1.31,5.82-4.4,19.5-18.27,25.16-10.36,4.22-22.32,2.17-35.87-.16-25.91-4.45-34.54-5.62-34.54-5.62v90.5l129,3.36c2.49,3.63.17,8.87-4,18.38-5.43,12.29-11.43,13.9-14.14,21.45-4.39,12.24,3.79,29.16,21.21,38.3,21.4,11.22,45.35,4.72,48.48,3.83,17.65-5,31.34-17.15,34.33-29.87,2.28-9.69-3.41-12.2-4-36-.25-9.51,1.76-14.89,6.06-19.45H-283.9v-85.49s-22.85,7.21-53.88,7.66c-5.76.08-50.65.73-62.61-19.92-9-15.49,3.4-38.12,22.22-45.19,15-5.64,35.85-2,73.72,4.6,13.06,2.28,18.57,2.74,18.57,2.74l2-100.3Z"/></clipPath><radialGradient id="radial-gradient" cx="96.02" cy="-74.55" r="173.05" gradientTransform="translate(-236.77) scale(1.32 1)" gradientUnits="userSpaceOnUse"><stop offset="0" stop-color="#0b3d91"/><stop offset="0.99" stop-color="#082759"/></radialGradient><radialGradient id="radial-gradient-2" cx="51.51" cy="165.5" r="151.33" xlink:href="#radial-gradient"/><clipPath id="clip-path-2"><path class="cls-1" d="M11.75-393.39s-2.09,25.26,0,46.23v53.62s-5.39.55-20.55-2.3c-24.94-4.68-37.41-7-46.44-7-6.19,0-29.29.14-43.14,13.51-9.35,9-13.18,22.85-6.36,34.06,10.89,17.89,43,19.33,51.52,19.71A135.84,135.84,0,0,0-9.1-240.89C-.29-246,11.75-246,11.75-246v88.55H133.59a39.34,39.34,0,0,0,11.11-22.68c.74-11.22-5.87-14.83-7.07-26-.15-1.4-1.91-21,14.14-32.94,19.93-14.82,61.07-13.14,75.74,2.3,9.78,10.3,5.84,24.66,5.05,27.58-4.79,17.47-21.56,22-19.77,35.81,1.12,8.69,10.68,16,10.68,16H359.22q1-91.67,2-183.33a49.49,49.49,0,0,0-3-20.46,47.17,47.17,0,0,0-7.51-13.28,48.11,48.11,0,0,0-18.62-13.68c-7.39-3.28-13.64-4.08-20.17-4.92a99.47,99.47,0,0,0-15.32-.77Z"/></clipPath><radialGradient id="radial-gradient-3" cx="61.3" cy="-39.55" r="175.93" xlink:href="#radial-gradient"/><radialGradient id="radial-gradient-4" cx="320.27" cy="-43.21" r="173.05" xlink:href="#radial-gradient"/><radialGradient id="radial-gradient-5" cx="56.72" cy="156.03" r="145.62" xlink:href="#radial-gradient"/><radialGradient id="radial-gradient-6" cx="275.76" cy="196.84" r="151.33" xlink:href="#radial-gradient"/><clipPath id="clip-path-3"><path class="cls-1" d="M-637.41,98.72v97.57s-17.21-6.94-48.75-9.19c-14-1-30.4-2-43.93,6-1.61.95-16.08,9.74-16.37,23.86-.4,19.56,26.8,30,28.07,30.49,10.35,3.83,19.66,3.66,38.3,3.34,30.66-.54,42.68-2.37,42.68-2.37v86.23h127s-22.69-18-22.21-38c.4-16.83,19.87-31.83,39.38-38.3,3.25-1.07,34.65-11,61.6,3.07,18.24,9.52,31.05,28.26,24.24,46.72-6.39,17.34-26.69,25.16-30.3,26.49h147.8V244.55s16.72,6.37,48.12,10.72c14.17,2,31.73,4.4,44.43-.77,27.9-11.33,37.53-51.62,19.19-65.1-24.7-18.15-70.87-9.1-73.72-8.43-23.43,5.53-38,13-38,13V98.72H-420.57s-5.84,19.6-5.94,22.53c-.6,16.22,6.95,21,3.92,32.91C-425.82,166.92-437.8,175-441,177c-1.12.71-25.81,15.74-54,7.38-13.9-4.12-28-13.72-30.84-25.75-1.21-5.23.42-7.85,9.18-30.53,8.95-23.17,8.24-26,8.24-26Z"/></clipPath><radialGradient id="radial-gradient-7" cx="46.73" cy="-19.52" r="151.13" xlink:href="#radial-gradient"/><radialGradient id="radial-gradient-8" cx="91.44" cy="213" r="173.05" xlink:href="#radial-gradient"/><radialGradient id="radial-gradient-9" cx="46.93" cy="453.05" r="151.33" xlink:href="#radial-gradient"/><radialGradient id="radial-gradient-10" cx="314.9" cy="216.66" r="173.05" xlink:href="#radial-gradient"/><clipPath id="clip-path-4"><path class="cls-1" d="M4.68,102.38H126.52s10.87-16.76,11.1-22.68c.69-11.15-6-14.09-7.07-26-.35-3.9-1.81-20,12.7-31.8,16.71-13.65,42-11.43,45.65-11.07,6.19.62,22,2.21,31.53,12.23,10.77,11.36,5.8,25.56,5,27.57-4,10.84-12.2,11.29-17.19,25.3-3,8.51-1.85,13.48-.51,16.54l8.61,9.95H352.14v235.9H231.54c0,8.92.07,21.61,0,38.61,0,7.11-.11,12.14-3,18.38a45.23,45.23,0,0,1-19.19,19.92c-19.69,10.82-51.84,10.63-70.69-3.06-19.56-14.22-16-36.62-15.83-37.69.61-3.42,1.73-5.11,3.72-14.4,2-9.65,4-21.77,4-21.77H4.68V248.21S20,253.62,52.8,258.93c17,2.76,26.14,4.15,36.82,1.39,21.86-5.63,30.57-23.56,32.43-27.81,1.25-2.87,10.79-24.71-5.63-39.45-16.23-14.57-46.16-11.73-55.56-10.84-33.72,3.19-56.18,15.44-56.18,15.44Z"/></clipPath><radialGradient id="radial-gradient-11" cx="51.35" cy="28.43" r="147.63" xlink:href="#radial-gradient"/><radialGradient id="radial-gradient-12" cx="270.19" cy="-15.86" r="151.13" xlink:href="#radial-gradient"/><radialGradient id="radial-gradient-13" cx="55.94" cy="220.33" r="175.93" xlink:href="#radial-gradient"/><radialGradient id="radial-gradient-14" cx="51.35" cy="415.91" r="145.62" xlink:href="#radial-gradient"/><radialGradient id="radial-gradient-15" cx="270.39" cy="456.71" r="151.33" xlink:href="#radial-gradient"/><clipPath id="clip-path-5"><path class="cls-1" d="M-643.36,571.6h127a56.52,56.52,0,0,1-18.15-22c-7.71-17.33,3.33-33.5,4.09-34.58,15.76-22.27,51-23.86,55.25-24,6-.2,22-.55,37.58,7.34,1.59.81,27,14.16,26.08,36.75a36.26,36.26,0,0,1-12.86,25.25,59.3,59.3,0,0,1-19.28,11.22h147.8V686a41.52,41.52,0,0,1-15.88,1.11c-8.29-1.12-13.25-4.72-18.81-8-4-2.34-18.59-11-31.31-13-15.82-2.55-36.23,3.89-47.18,16.4-1.58,1.81-12.42,14.65-6.34,30.32,5.42,14,21.55,23,36.35,25.28,17.42,2.62,35.87-3.79,40.4-5.36,5.27-1.84,7.7-3.25,13.3-4.3,11.48-2.16,22.09-.15,29.47,2v77H-643.36V724.34s28.67.2,31,.77a52.16,52.16,0,0,1,9.74,3.28c13.92,6.33,16.7,9,23.58,11.27,16.81,5.59,33.78-5.2,35-6,3.92-2.58,14.65-9.61,16.72-22.42,1.63-10.07-3-18.11-5.36-22.18-2.19-3.81-8.58-13.45-20.56-17.92-15.77-5.89-32,.64-35.23,1.93a171.9,171.9,0,0,1-18.7,6.28,53.31,53.31,0,0,1-6.17,1.31c-11.88,1.88-30-.77-30-.77Z"/></clipPath><radialGradient id="radial-gradient-16" cx="42.22" cy="217.46" r="151.13" xlink:href="#radial-gradient"/><radialGradient id="radial-gradient-17" cx="86.93" cy="449.98" r="173.05" xlink:href="#radial-gradient"/><clipPath id="clip-path-6"><path class="cls-1" d="M-15,592.22V706.67s-15.06,1.19-15.87,1.1c-13.12-1.47-17.31-8.22-29.74-13.92-3.81-1.75-20.44-9.39-38.61-6.48-16.68,2.66-30.36,13.51-35.06,25.91a29.19,29.19,0,0,0,3.57,27.12A40.9,40.9,0,0,0-117,752.26c17.74,9.68,38.55,6.34,41.18,5.88,5.29-.92,3.51-1.33,21.72-6.1,11.77-3.09,15.84-3.79,20.65-3.86C-25,748.07-15,751.09-15,751.09v77c157,.36,289.79,1,289.79,1a75.67,75.67,0,0,0,19-2.32c6.5-1.76,17.46-4.92,26.8-14.92a51.3,51.3,0,0,0,11.66-21.29,59.94,59.94,0,0,0,1.64-12.82l-1.43-185.52H211.89s.48,6.54,0,30.19c-.43,22.55-3.64,28.21-4.92,30.28-9,14.53-26.53,20.41-28.62,21.08a71.49,71.49,0,0,1-36.24,1.74c-18.74-4.09-31.15-15.32-36.28-26-1.16-2.41-4.92-11.37-2.7-21.15.61-2.7,2.95-11,2.95-11l4.8-25.14Z"/></clipPath><radialGradient id="radial-gradient-18" cx="254.4" cy="238.09" r="151.13" xlink:href="#radial-gradient"/><radialGradient id="radial-gradient-19" cx="40.15" cy="474.27" r="175.93" xlink:href="#radial-gradient"/><radialGradient id="radial-gradient-20" cx="299.11" cy="470.61" r="173.05" xlink:href="#radial-gradient"/></defs><g class="cls-2"><path class="cls-3" d="M-283.9-188.83h121.84s10.87-16.76,11.1-22.68c.69-11.15-6-14.09-7.06-26-.36-3.9-1.82-20,12.69-31.81,16.71-13.64,42-11.42,45.65-11.06,6.2.62,22,2.21,31.53,12.23,10.78,11.36,5.8,25.56,5.05,27.57-4,10.84-12.19,11.29-17.19,25.29-3,8.52-1.85,13.49-.51,16.54l8.61,10H63.57V47.06H-57c0,8.93.07,21.61,0,38.62,0,7.11-.1,12.13-3,18.38A45.24,45.24,0,0,1-79.25,124c-19.7,10.82-51.85,10.62-70.7-3.07-19.56-14.21-16-36.61-15.83-37.68.61-3.42,1.74-5.11,3.72-14.4,2.05-9.65,4.06-21.77,4-21.78H-283.9V-43s15.33,5.41,48.12,10.72c17,2.76,26.14,4.15,36.83,1.39,21.85-5.63,30.57-23.56,32.42-27.81,1.25-2.87,10.79-24.71-5.63-39.45-16.23-14.57-46.16-11.74-55.56-10.85-33.72,3.19-56.18,15.45-56.18,15.45Z"/><path class="cls-4" d="M-282.74,47.06V161.51s-15.06,1.2-15.88,1.11c-13.11-1.47-17.3-8.22-29.73-13.93-3.82-1.75-20.44-9.38-38.62-6.48-16.67,2.67-30.36,13.51-35,25.92a29.17,29.17,0,0,0,3.57,27.11,40.69,40.69,0,0,0,13.71,11.86c17.74,9.69,38.54,6.34,41.18,5.88,5.28-.91,3.5-1.32,21.71-6.1,11.77-3.09,15.85-3.79,20.66-3.85,8.41-.12,18.45,2.91,18.45,2.91v77c157,.36,289.79,1,289.79,1a75.67,75.67,0,0,0,19-2.32c6.5-1.75,17.46-4.91,26.79-14.92a51.19,51.19,0,0,0,11.66-21.28,59.64,59.64,0,0,0,1.65-12.82L64.73,47.06H-55.88s.49,6.54,0,30.19c-.43,22.55-3.65,28.22-4.92,30.28-9,14.53-26.54,20.41-28.62,21.08a71.45,71.45,0,0,1-36.24,1.75c-18.74-4.1-31.15-15.32-36.28-26-1.16-2.41-4.93-11.37-2.7-21.14.61-2.71,3-11,3-11l4.8-25.14Z"/></g><g class="cls-5"><path class="cls-6" d="M-335.72-157.5v97.58s-17.21-6.94-48.75-9.19c-14-1-30.4-2-43.93,6-1.61.95-16.08,9.73-16.37,23.86-.4,19.56,26.8,30,28.07,30.49C-406.35-5-397-5.14-378.4-5.46c30.66-.54,42.68-2.38,42.68-2.38V78.4h127s-22.69-18-22.21-38c.4-16.83,19.87-31.84,39.38-38.3,3.25-1.08,34.65-11,61.6,3.06,18.25,9.52,31.05,28.27,24.24,46.73-6.39,17.34-26.69,25.16-30.3,26.49H11.75V-11.67S28.47-5.3,59.87-.94C74,1,91.6,3.46,104.3-1.71,132.2-13,141.83-53.34,123.49-66.82,98.8-85,52.62-75.91,49.77-75.24c-23.43,5.53-38,13-38,13V-157.5H-118.88s-5.83,19.6-5.94,22.54c-.6,16.21,6.95,21,3.92,32.91-3.23,12.76-15.21,20.79-18.38,22.79-1.12.71-25.81,15.73-54,7.38-13.9-4.12-28-13.72-30.83-25.75-1.22-5.23.41-7.85,9.17-30.53,8.95-23.17,8.24-26,8.24-26Z"/><path class="cls-7" d="M11.75-157.5H133.59s10.87-16.75,11.11-22.68c.68-11.15-6-14.09-7.07-26-.36-3.89-1.82-19.95,12.69-31.8,16.71-13.65,42-11.43,45.65-11.06,6.2.62,22,2.2,31.54,12.22,10.77,11.36,5.79,25.57,5.05,27.58-4,10.83-12.2,11.28-17.2,25.29-3,8.52-1.85,13.48-.5,16.54l8.61,9.95H359.22V78.4H238.61c0,8.92.07,21.61,0,38.61,0,7.12-.1,12.14-3,18.39a45.29,45.29,0,0,1-19.18,19.91c-19.69,10.82-51.85,10.63-70.69-3.06-19.57-14.22-16-36.61-15.83-37.69.61-3.41,1.73-5.11,3.71-14.4,2.06-9.65,4.06-21.77,4-21.77H11.75V-11.67S27.09-6.26,59.87-.94C76.86,1.81,86,3.2,96.7.45c21.85-5.64,30.57-23.57,32.43-27.82,1.25-2.86,10.78-24.7-5.64-39.45C107.26-81.38,77.33-78.55,67.93-77.66,34.21-74.47,11.75-62.22,11.75-62.22Z"/><path class="cls-8" d="M-335.72,78.4h127a56.52,56.52,0,0,1-18.15-22c-7.71-17.33,3.33-33.5,4.09-34.58,15.76-22.27,51-23.86,55.25-24,6-.19,22-.54,37.58,7.34,1.59.81,27,14.16,26.08,36.75a36.26,36.26,0,0,1-12.86,25.25A59.3,59.3,0,0,1-136,78.4H11.75V192.84A41.32,41.32,0,0,1-4.13,194c-8.29-1.12-13.25-4.72-18.81-8-4-2.34-18.59-11-31.31-13-15.82-2.55-36.23,3.9-47.18,16.4-1.58,1.81-12.41,14.65-6.34,30.32,5.43,14,21.55,23,36.36,25.28,17.41,2.62,35.86-3.79,40.39-5.36,5.27-1.83,7.7-3.24,13.3-4.29,11.48-2.16,22.1-.15,29.47,2v77H-335.72V231.14s28.67.2,31,.77a54.07,54.07,0,0,1,9.75,3.28c13.92,6.33,16.69,9,23.57,11.27,16.81,5.59,33.78-5.2,35-6,3.92-2.57,14.66-9.61,16.73-22.42,1.63-10.07-3-18.1-5.36-22.18-2.2-3.8-8.59-13.45-20.56-17.92-15.78-5.89-32,.64-35.24,1.94a173.77,173.77,0,0,1-18.69,6.28,55.93,55.93,0,0,1-6.18,1.3c-11.87,1.88-30-.76-30-.76Z"/><path class="cls-9" d="M12.91,78.4V192.84S-2.15,194-3,194c-13.11-1.47-17.3-8.22-29.73-13.92-3.82-1.76-20.44-9.39-38.61-6.48-16.68,2.66-30.37,13.51-35.06,25.91a29.19,29.19,0,0,0,3.57,27.12,40.9,40.9,0,0,0,13.71,11.86c17.74,9.68,38.55,6.34,41.18,5.88,5.29-.92,3.5-1.33,21.72-6.1,11.76-3.09,15.84-3.79,20.65-3.86,8.41-.11,18.45,2.91,18.45,2.91v77c157,.36,289.79,1,289.79,1a76.21,76.21,0,0,0,19-2.32c6.5-1.76,17.46-4.92,26.8-14.92a51.28,51.28,0,0,0,11.65-21.29,59.57,59.57,0,0,0,1.65-12.82L360.38,78.4H239.78s.48,6.54,0,30.19c-.43,22.55-3.65,28.21-4.92,30.28-9,14.53-26.53,20.41-28.62,21.08A71.6,71.6,0,0,1,170,161.69c-18.74-4.1-31.15-15.32-36.28-26-1.16-2.41-4.93-11.37-2.7-21.15.61-2.7,3-11,3-11l4.8-25.14Z"/><path class="cls-10" d="M-28.13-212.1c-11.34-12.34-41.94-42.24-90.07-50.82C-192-276.08-247.62-228.5-258.45-219.24c-64.05,54.78-69.6,137.33-73,187.91-1.77,26.46-3.31,52.81,6.13,85.78,4.55,15.91,26.17,91.41,96.76,124.08C-160.48,210-65.4,193-19.33,128,5.3,93.17,22.24,34-5.54-12.31-41.88-72.93-138.06-65.63-189.47-49.1c-86.85,27.94-123.06,108-129.52,123"/></g><g class="cls-11"><path class="cls-12" d="M-289.94-137.18s-2.09,25.27,0,46.24v53.61s-5.39.55-20.55-2.29c-24.94-4.68-37.41-7-46.45-7-6.18,0-29.28.15-43.13,13.51-9.35,9-13.18,22.86-6.36,34.06,10.89,17.89,43,19.33,51.52,19.72a136.12,136.12,0,0,0,44.12-5.37c8.81-5.06,20.85-5.16,20.85-5.16V98.72H-168.1A39.34,39.34,0,0,0-157,76c.74-11.23-5.87-14.84-7.07-26.05-.15-1.4-1.91-21,14.13-32.93C-130,2.23-88.85,3.91-74.19,19.36c9.79,10.29,5.85,24.65,5,27.57-4.78,17.47-21.55,22-19.76,35.81,1.12,8.7,10.68,16,10.68,16H57.53q1-91.66,2-183.34a49.5,49.5,0,0,0-3-20.46A47.33,47.33,0,0,0,49-118.36,48.11,48.11,0,0,0,30.38-132C23-135.32,16.74-136.12,10.21-137a99.32,99.32,0,0,0-15.32-.76Z"/><path class="cls-13" d="M-289.94,98.72H-168.1S-157.23,82-157,76c.68-11.16-6-14.09-7.07-26.05-.36-3.89-1.82-20,12.69-31.8,16.71-13.65,42-11.43,45.65-11.06,6.2.62,22,2.21,31.53,12.23,10.78,11.36,5.8,25.56,5,27.57-4,10.83-12.19,11.29-17.19,25.29-3,8.52-1.85,13.48-.51,16.54l8.62,10H57.53V334.61H-63.08c0,8.93.07,21.61,0,38.62,0,7.11-.1,12.13-3,18.38a45.29,45.29,0,0,1-19.18,19.92c-19.69,10.82-51.85,10.62-70.69-3.07-19.57-14.21-16-36.61-15.84-37.68.61-3.42,1.74-5.11,3.72-14.4,2-9.65,4.06-21.78,4-21.78H-289.94V244.55s15.33,5.4,48.12,10.72c17,2.76,26.14,4.15,36.83,1.39,21.85-5.64,30.57-23.56,32.42-27.82,1.26-2.86,10.79-24.7-5.63-39.44-16.23-14.57-46.16-11.74-55.56-10.85-33.72,3.19-56.18,15.44-56.18,15.44Z"/><path class="cls-14" d="M-288.78,334.61V449.06s-15.06,1.2-15.88,1.1c-13.11-1.47-17.3-8.22-29.73-13.92-3.82-1.75-20.44-9.38-38.62-6.48-16.67,2.67-30.36,13.51-35.05,25.92a29.17,29.17,0,0,0,3.57,27.11,40.79,40.79,0,0,0,13.71,11.86c17.74,9.68,38.54,6.34,41.18,5.88,5.28-.91,3.5-1.32,21.71-6.1,11.77-3.09,15.85-3.79,20.66-3.86,8.41-.11,18.45,2.91,18.45,2.91v77c157,.36,289.79,1,289.79,1a75.67,75.67,0,0,0,19-2.32c6.5-1.76,17.46-4.91,26.8-14.92A51.21,51.21,0,0,0,58.47,533a59.57,59.57,0,0,0,1.65-12.82L58.69,334.61H-61.91s.48,6.54,0,30.19c-.43,22.55-3.65,28.21-4.92,30.28-9,14.53-26.54,20.41-28.62,21.08a71.37,71.37,0,0,1-36.24,1.74c-18.74-4.09-31.15-15.31-36.28-26-1.16-2.41-4.93-11.37-2.7-21.14.61-2.71,3-11,3-11l4.8-25.14Z"/></g><path class="cls-15" d="M4.68,102.38H126.52s10.87-16.76,11.1-22.68c.69-11.15-6-14.09-7.07-26-.35-3.9-1.81-20,12.7-31.8,16.71-13.65,42-11.43,45.65-11.07,6.19.62,22,2.21,31.53,12.23,10.77,11.36,5.8,25.56,5,27.57-4,10.84-12.2,11.29-17.19,25.3-3,8.51-1.85,13.48-.51,16.54l8.61,9.95H352.14v235.9H231.54c0,8.92.07,21.61,0,38.61,0,7.11-.11,12.14-3,18.38a45.23,45.23,0,0,1-19.19,19.92c-19.69,10.82-51.84,10.63-70.69-3.06-19.56-14.22-16-36.62-15.83-37.69.61-3.42,1.73-5.11,3.72-14.4,2-9.65,4-21.77,4-21.77H4.68V248.21S20,253.62,52.8,258.93c17,2.76,26.14,4.15,36.82,1.39,21.86-5.63,30.57-23.56,32.43-27.81,1.25-2.87,10.79-24.71-5.63-39.45-16.23-14.57-46.16-11.73-55.56-10.84-33.72,3.19-56.18,15.44-56.18,15.44Z"/><g class="cls-16"><path class="cls-17" d="M-342.79-133.52c0,80.71,4.42,90.43,4.42,90.43a177,177,0,0,0,23.7-1.5c19.25-2.4,22.47-2.54,26.12-2.39,6.48.26,15.76.63,23.24,4.89,16.85,9.59,11.86,31.66,11.2,34.6-1.31,5.81-4.4,19.49-18.27,25.15-10.36,4.22-22.32,2.17-35.87-.16-25.91-4.45-34.54-5.61-34.54-5.61v90.49l129,3.36c2.49,3.63.17,8.87-4,18.39-5.43,12.28-11.43,13.89-14.14,21.44-4.39,12.25,3.79,29.16,21.21,38.3,21.4,11.22,45.34,4.73,48.47,3.83,17.66-5,31.35-17.15,34.34-29.87,2.28-9.68-3.41-12.2-4-36-.25-9.51,1.76-14.89,6.06-19.45H4.68V16.89S-18.17,24.1-49.2,24.55c-5.76.08-50.65.74-62.61-19.91-9-15.5,3.4-38.12,22.21-45.2,15-5.64,35.86-2,73.72,4.6,13.07,2.28,18.57,2.74,18.57,2.74l2-100.3Z"/><path class="cls-18" d="M4.68-133.52s-2.1,25.27,0,46.24v53.62s-5.4.54-20.56-2.3c-24.94-4.68-37.41-7-46.44-7-6.18,0-29.28.15-43.13,13.52-9.36,9-13.19,22.85-6.36,34.06,10.89,17.88,43,19.33,51.52,19.71A136.13,136.13,0,0,0-16.18,19c8.82-5.07,20.86-5.16,20.86-5.16v88.55H126.52a39.29,39.29,0,0,0,11.1-22.68c.75-11.22-5.86-14.83-7.07-26-.15-1.4-1.9-21,14.14-32.94C164.63,5.89,205.76,7.58,220.43,23c9.78,10.3,5.85,24.66,5,27.57-4.78,17.47-21.55,22-19.76,35.82,1.12,8.69,10.67,16,10.67,16H352.14q1-91.66,2-183.33a49.25,49.25,0,0,0-3-20.46,47.7,47.7,0,0,0-7.51-13.29A48.07,48.07,0,0,0,325-128.37c-7.39-3.28-13.64-4.09-20.16-4.92a99.58,99.58,0,0,0-15.32-.77Z"/><path class="cls-19" d="M-342.79,102.38V200s-17.21-7-48.75-9.2c-14-1-30.4-2-43.93,6-1.61.94-16.08,9.73-16.37,23.86-.41,19.56,26.8,30,28.06,30.48,10.35,3.83,19.67,3.67,38.31,3.34,30.66-.53,42.68-2.37,42.68-2.37v86.24h127s-22.69-18-22.22-38c.41-16.83,19.88-31.84,39.39-38.3,3.25-1.08,34.64-11,61.6,3.06,18.24,9.52,31,28.26,24.24,46.73-6.39,17.34-26.7,25.15-30.3,26.49H4.68V248.21s16.72,6.37,48.12,10.72c14.17,2,31.72,4.4,44.43-.76,27.89-11.34,37.53-51.63,19.19-65.11-24.7-18.14-70.87-9.1-73.72-8.42-23.43,5.52-38,13-38,13V102.38H-125.95s-5.84,19.6-5.94,22.53c-.6,16.22,6.95,21,3.92,32.92-3.23,12.75-15.21,20.79-18.39,22.79-1.12.7-25.8,15.73-54,7.37-13.91-4.12-28-13.72-30.84-25.74-1.22-5.23.42-7.86,9.18-30.53,8.94-23.17,8.24-26,8.24-26Z"/><path class="cls-20" d="M-342.79,338.28h127a56.52,56.52,0,0,1-18.15-22c-7.71-17.33,3.33-33.5,4.09-34.58,15.76-22.27,51-23.86,55.25-24,6-.2,22-.55,37.58,7.34,1.59.81,27,14.16,26.08,36.75a36.26,36.26,0,0,1-12.86,25.25,59.3,59.3,0,0,1-19.28,11.22H4.68V452.72a41.52,41.52,0,0,1-15.88,1.11c-8.29-1.12-13.26-4.72-18.81-8-4-2.34-18.59-11-31.31-13-15.82-2.55-36.23,3.89-47.18,16.4-1.58,1.81-12.42,14.65-6.34,30.32,5.42,14,21.55,23.05,36.35,25.28,17.42,2.62,35.87-3.79,40.4-5.37,5.27-1.83,7.7-3.24,13.3-4.29,11.48-2.16,22.09-.15,29.47,2v77H-342.79V491s28.66.2,31,.76a52.72,52.72,0,0,1,9.75,3.29c13.92,6.33,16.7,9,23.58,11.27,16.81,5.59,33.78-5.2,35-6,3.92-2.58,14.65-9.61,16.72-22.42,1.63-10.07-3-18.11-5.36-22.18-2.2-3.81-8.58-13.45-20.56-17.92-15.77-5.89-32,.64-35.23,1.93a171.9,171.9,0,0,1-18.7,6.28,53.52,53.52,0,0,1-6.18,1.31c-11.87,1.88-30-.77-30-.77Z"/><path class="cls-21" d="M5.84,338.28V452.72s-15.06,1.2-15.88,1.11c-13.11-1.47-17.31-8.22-29.73-13.93-3.82-1.75-20.44-9.38-38.62-6.48-16.67,2.67-30.36,13.52-35,25.92a29.17,29.17,0,0,0,3.57,27.11,40.69,40.69,0,0,0,13.71,11.86C-78.42,508-57.62,504.65-55,504.2c5.28-.92,3.5-1.33,21.71-6.11,11.77-3.08,15.85-3.79,20.66-3.85,8.41-.12,18.45,2.91,18.45,2.91v77c157,.36,289.79,1,289.79,1a75.93,75.93,0,0,0,19-2.31c6.5-1.76,17.46-4.92,26.79-14.92a51.26,51.26,0,0,0,11.66-21.29,59.57,59.57,0,0,0,1.65-12.82l-1.43-185.52H232.7s.48,6.53,0,30.18c-.43,22.55-3.65,28.22-4.92,30.28-9,14.54-26.54,20.41-28.62,21.08A71.45,71.45,0,0,1,163,421.57c-18.74-4.1-31.15-15.32-36.28-26-1.16-2.41-4.93-11.38-2.71-21.15.62-2.71,3-11,3-11l4.8-25.14Z"/><path class="cls-10" d="M-35.2,47.78C-46.54,35.44-77.15,5.53-125.27-3c-73.8-13.15-129.42,34.43-140.25,43.69-64.05,54.78-69.6,137.33-73,187.9-1.78,26.47-3.31,52.82,6.13,85.79,4.55,15.9,26.17,91.4,96.76,124.07,68.08,31.51,163.16,14.45,209.22-50.58,24.64-34.77,41.58-93.91,13.8-140.25C-48.95,187-145.13,194.24-196.55,210.78c-86.84,27.93-123,108-129.51,123"/></g><g class="cls-22"><path class="cls-23" d="M-295.89,99.8s-2.1,25.27,0,46.24v53.62s-5.39.55-20.55-2.3c-24.94-4.68-37.41-7-46.45-7-6.18,0-29.28.14-43.13,13.51-9.35,9-13.19,22.85-6.36,34.06,10.89,17.88,43,19.33,51.52,19.71a136.13,136.13,0,0,0,44.11-5.36c8.82-5.07,20.86-5.16,20.86-5.16V335.7H-174A39.29,39.29,0,0,0-162.95,313c.75-11.22-5.86-14.83-7.06-26-.15-1.4-1.91-21,14.13-32.94,19.94-14.83,61.08-13.14,75.74,2.3,9.79,10.3,5.85,24.66,5,27.57-4.78,17.47-21.55,22-19.76,35.82,1.12,8.69,10.67,16,10.67,16H51.58q1-91.67,2-183.33a49.47,49.47,0,0,0-3-20.46,47.44,47.44,0,0,0-7.51-13.29A48.06,48.06,0,0,0,24.43,105C17,101.67,10.79,100.87,4.26,100a99.58,99.58,0,0,0-15.32-.77Z"/><path class="cls-24" d="M-295.89,335.7H-174s10.87-16.76,11.1-22.68c.69-11.15-6-14.09-7.06-26-.36-3.89-1.82-20,12.69-31.8,16.71-13.65,42-11.43,45.65-11.07,6.2.62,22,2.21,31.53,12.23,10.78,11.36,5.8,25.56,5,27.57-4,10.84-12.19,11.29-17.19,25.3-3,8.51-1.85,13.48-.51,16.54l8.61,9.95H51.58V571.6H-69c0,8.92.07,21.61,0,38.61,0,7.11-.1,12.14-3,18.38a45.24,45.24,0,0,1-19.18,19.92c-19.7,10.82-51.85,10.63-70.7-3.06-19.56-14.22-16-36.62-15.83-37.69.61-3.42,1.74-5.11,3.72-14.4,2.05-9.65,4.06-21.77,4-21.77H-295.89V481.53s15.33,5.41,48.12,10.72c17,2.76,26.14,4.15,36.83,1.4,21.85-5.64,30.57-23.57,32.42-27.82,1.25-2.87,10.79-24.71-5.63-39.45-16.23-14.56-46.16-11.73-55.56-10.84-33.72,3.19-56.18,15.44-56.18,15.44Z"/></g><g class="cls-25"><path class="cls-26" d="M-16.14,120.43s-2.09,25.27,0,46.24v53.61s-5.39.55-20.55-2.29c-24.94-4.69-37.41-7-46.44-7-6.19,0-29.29.14-43.14,13.51-9.35,9-13.18,22.85-6.36,34.06,10.89,17.89,43,19.33,51.52,19.71A135.84,135.84,0,0,0-37,272.93c8.81-5.07,20.85-5.16,20.85-5.16v88.55H105.7a39.34,39.34,0,0,0,11.11-22.68c.74-11.22-5.86-14.83-7.07-26-.15-1.4-1.91-21,14.14-32.93,19.93-14.83,61.07-13.15,75.74,2.29,9.78,10.3,5.84,24.66,5,27.58-4.79,17.47-21.56,22-19.77,35.81,1.12,8.69,10.68,16,10.68,16H331.33q1-91.67,2-183.33a49.61,49.61,0,0,0-3-20.46,47.26,47.26,0,0,0-7.52-13.28,48.11,48.11,0,0,0-18.62-13.68c-7.39-3.28-13.64-4.08-20.17-4.92a98,98,0,0,0-15.32-.76Z"/><path class="cls-27" d="M-363.61,356.32V453.9s-17.2-6.94-48.75-9.19c-14-1-30.4-2-43.92,6-1.61.95-16.09,9.74-16.38,23.86-.4,19.56,26.8,30,28.07,30.49,10.35,3.82,19.67,3.66,38.3,3.34,30.66-.54,42.68-2.37,42.68-2.37v86.23h127s-22.7-18-22.22-38c.4-16.83,19.87-31.84,39.38-38.3,3.25-1.07,34.65-11,61.6,3.07,18.25,9.52,31.05,28.26,24.24,46.72-6.39,17.34-26.69,25.16-30.29,26.49H-16.14V502.16S.58,508.53,32,512.88c14.17,2,31.73,4.4,44.43-.77,27.9-11.33,37.53-51.63,19.19-65.1-24.69-18.15-70.87-9.1-73.72-8.43-23.42,5.53-38,13-38,13V356.32H-146.77s-5.83,19.61-5.94,22.54c-.6,16.21,7,20.95,3.92,32.91-3.23,12.76-15.21,20.79-18.38,22.79-1.12.71-25.81,15.74-54,7.38-13.9-4.12-28-13.72-30.83-25.75-1.22-5.23.42-7.85,9.17-30.53,9-23.17,8.25-26,8.25-26Z"/><path class="cls-28" d="M-16.14,356.32H105.7s10.87-16.75,11.11-22.68c.69-11.15-6-14.08-7.07-26-.36-3.89-1.82-20,12.69-31.8,16.71-13.65,42-11.43,45.65-11.06,6.2.62,22,2.2,31.54,12.22,10.77,11.37,5.79,25.57,5,27.58-4,10.83-12.2,11.29-17.2,25.29-3,8.52-1.85,13.48-.5,16.54l8.61,9.95H331.33v235.9H210.73c0,8.92.06,21.61,0,38.62,0,7.11-.11,12.13-3,18.38a45.29,45.29,0,0,1-19.19,19.91c-19.69,10.82-51.85,10.63-70.69-3.06-19.57-14.21-16-36.61-15.83-37.69.61-3.41,1.73-5.1,3.71-14.39,2.06-9.65,4.06-21.78,4-21.78H-16.14V502.15S-.8,507.56,32,512.88c17,2.75,26.14,4.15,36.83,1.39,21.85-5.64,30.57-23.56,32.43-27.82,1.25-2.86,10.78-24.7-5.64-39.44C79.37,432.44,49.44,435.27,40,436.16,6.33,439.35-16.14,451.6-16.14,451.6Z"/><path class="cls-10" d="M-56,301.72C-67.36,289.38-98,259.48-146.09,250.9c-73.79-13.16-129.42,34.42-140.25,43.68-64.05,54.78-69.6,137.33-73,187.91-1.77,26.46-3.31,52.81,6.13,85.79,4.56,15.9,26.17,91.4,96.76,124.07,68.08,31.51,163.16,14.45,209.23-50.58C-22.59,607-5.64,547.85-33.43,501.51c-36.34-60.61-132.52-53.32-183.93-36.78-86.84,27.93-123,108-129.51,123"/></g></svg>