<svg id="Layer_1" data-name="Layer 1" xmlns="http://www.w3.org/2000/svg" xmlns:xlink="http://www.w3.org/1999/xlink" viewBox="0 0 483.7 250.47"><defs><style>.cls-1,.cls-10{fill:none;}.cls-2{clip-path:url(#clip-path);}.cls-10,.cls-3,.cls-4,.cls-5,.cls-7,.cls-8,.cls-9{stroke:#9cf;stroke-miterlimit:10;}.cls-3,.cls-4,.cls-5,.cls-7,.cls-8,.cls-9{stroke-width:5px;}.cls-3{fill:url(#radial-gradient);}.cls-4{fill:url(#radial-gradient-2);}.cls-5{fill:url(#radial-gradient-3);}.cls-6{clip-path:url(#clip-path-2);}.cls-7{fill:url(#radial-gradient-4);}.cls-8{fill:url(#radial-gradient-5);}.cls-9{fill:url(#radial-gradient-6);}.cls-10{stroke-linecap:round;stroke-width:80px;}</style><clipPath id="clip-path"><path class="cls-1" d="M-515.33-24.9c0,80.71,4.43,90.43,4.43,90.43A177,177,0,0,0-487.2,64c19.25-2.4,22.46-2.54,26.12-2.39,6.47.26,15.75.63,23.23,4.89,16.85,9.59,11.87,31.66,11.2,34.59-1.31,5.82-4.4,19.5-18.27,25.16-10.36,4.22-22.32,2.17-35.86-.16-25.92-4.45-34.55-5.62-34.55-5.62V211l129,3.36c2.49,3.63.17,8.87-4,18.38-5.44,12.29-11.44,13.9-14.14,21.45-4.39,12.24,3.78,29.16,21.2,38.3,21.4,11.22,45.35,4.72,48.48,3.83,17.65-5.05,31.34-17.15,34.33-29.87,2.28-9.69-3.41-12.2-4-36-.25-9.51,1.76-14.89,6.06-19.45h130.63V125.51s-22.85,7.21-53.88,7.66c-5.75.08-50.64.73-62.61-19.92-9-15.49,3.41-38.12,22.22-45.19,15-5.64,35.86-2,73.72,4.6,13.07,2.28,18.57,2.74,18.57,2.74l2-100.3Z"/></clipPath><radialGradient id="radial-gradient" cx="167.35" cy="92.76" r="151.13" gradientTransform="translate(-273.72) scale(1.32 1)" gradientUnits="userSpaceOnUse"><stop offset="0" stop-color="#0b3d91"/><stop offset="0.99" stop-color="#082759"/></radialGradient><radialGradient id="radial-gradient-2" cx="212.06" cy="325.28" r="173.05" xlink:href="#radial-gradient"/><radialGradient id="radial-gradient-3" cx="391.6" cy="124.09" r="151.13" xlink:href="#radial-gradient"/><clipPath id="clip-path-2"><path class="cls-1" d="M127.79,6.44s-2.09,25.26,0,46.23v53.62s-5.39.55-20.55-2.3C82.3,99.31,69.83,97,60.8,97c-6.18,0-29.29.14-43.14,13.51-9.35,9-13.18,22.85-6.36,34.06,10.9,17.89,43,19.33,51.52,19.71a135.84,135.84,0,0,0,44.12-5.36c8.81-5.07,20.85-5.16,20.85-5.16v88.55H249.63a39.34,39.34,0,0,0,11.11-22.68c.74-11.22-5.86-14.83-7.07-26-.15-1.4-1.91-21,14.14-32.94,19.94-14.82,61.07-13.14,75.74,2.3,9.78,10.3,5.85,24.66,5.05,27.58-4.79,17.47-21.56,22-19.77,35.81,1.12,8.69,10.68,16,10.68,16H475.26q1-91.67,2-183.33a49.44,49.44,0,0,0-3-20.46,47.43,47.43,0,0,0-7.51-13.28,48.12,48.12,0,0,0-18.63-13.68c-7.39-3.28-13.64-4.08-20.17-4.92a99.47,99.47,0,0,0-15.32-.77Z"/></clipPath><radialGradient id="radial-gradient-4" cx="172.76" cy="168.39" r="147.63" xlink:href="#radial-gradient"/><radialGradient id="radial-gradient-5" cx="177.34" cy="360.28" r="175.93" xlink:href="#radial-gradient"/><radialGradient id="radial-gradient-6" cx="436.31" cy="356.62" r="173.05" xlink:href="#radial-gradient"/></defs><g class="cls-2"><path class="cls-3" d="M-167.86-24.9s-2.09,25.27,0,46.24V75s-5.39.54-20.55-2.3c-24.94-4.68-37.41-7-46.44-7-6.19,0-29.29.15-43.14,13.52-9.35,9-13.18,22.85-6.36,34.05,10.89,17.89,43,19.33,51.52,19.72a136.17,136.17,0,0,0,44.12-5.36c8.81-5.07,20.85-5.16,20.85-5.16V211H-46a39.34,39.34,0,0,0,11.11-22.68c.74-11.23-5.87-14.84-7.07-26-.15-1.4-1.91-21,14.14-32.94,19.93-14.83,61.07-13.14,75.74,2.3,9.78,10.29,5.84,24.66,5.05,27.57-4.79,17.47-21.56,22-19.77,35.81,1.12,8.7,10.68,16,10.68,16H179.61q1-91.67,2-183.33a49.47,49.47,0,0,0-3-20.46,47.44,47.44,0,0,0-7.51-13.29,48.06,48.06,0,0,0-18.62-13.67c-7.39-3.29-13.64-4.09-20.17-4.92A98.22,98.22,0,0,0,117-25.44Z"/><path class="cls-4" d="M-167.86,211H-46s10.87-16.76,11.11-22.68c.68-11.15-6-14.09-7.07-26-.36-3.9-1.82-20,12.69-31.81,16.71-13.64,42-11.42,45.65-11.06,6.2.62,22,2.21,31.54,12.23C58.67,143,53.69,157.2,53,159.21c-4,10.84-12.2,11.29-17.2,25.29-3,8.52-1.85,13.49-.5,16.54l8.61,10H179.61V446.89H59c0,8.93.07,21.61,0,38.62,0,7.11-.1,12.13-3,18.38a45.29,45.29,0,0,1-19.19,19.92c-19.69,10.82-51.85,10.62-70.69-3.07-19.57-14.21-16-36.61-15.83-37.68.61-3.42,1.73-5.11,3.71-14.4C-44,459-42,446.89-42,446.88H-167.86V356.83s15.34,5.41,48.12,10.72c17,2.76,26.14,4.15,36.83,1.39,21.85-5.63,30.57-23.56,32.43-27.81,1.25-2.87,10.78-24.71-5.64-39.45-16.23-14.57-46.16-11.74-55.56-10.85-33.72,3.19-56.18,15.45-56.18,15.45Z"/></g><path class="cls-5" d="M127.79,6.44s-2.09,25.26,0,46.23v53.62s-5.39.55-20.55-2.3C82.3,99.31,69.83,97,60.8,97c-6.18,0-29.29.14-43.14,13.51-9.35,9-13.18,22.85-6.36,34.06,10.9,17.89,43,19.33,51.52,19.71a135.84,135.84,0,0,0,44.12-5.36c8.81-5.07,20.85-5.16,20.85-5.16v88.55H249.63a39.34,39.34,0,0,0,11.11-22.68c.74-11.22-5.86-14.83-7.07-26-.15-1.4-1.91-21,14.14-32.94,19.94-14.82,61.07-13.14,75.74,2.3,9.78,10.3,5.85,24.66,5.05,27.58-4.79,17.47-21.56,22-19.77,35.81,1.12,8.69,10.68,16,10.68,16H475.26q1-91.67,2-183.33a49.44,49.44,0,0,0-3-20.46,47.43,47.43,0,0,0-7.51-13.28,48.12,48.12,0,0,0-18.63-13.68c-7.39-3.28-13.64-4.08-20.17-4.92a99.47,99.47,0,0,0-15.32-.77Z"/><g class="cls-6"><path class="cls-7" d="M-219.68,6.44c0,80.7,4.43,90.43,4.43,90.43a176.22,176.22,0,0,0,23.7-1.51C-172.3,93-169.08,92.82-165.43,93c6.48.26,15.75.64,23.23,4.9,16.85,9.59,11.87,31.66,11.21,34.59-1.32,5.81-4.41,19.5-18.28,25.15-10.36,4.23-22.32,2.17-35.86-.15-25.91-4.45-34.55-5.62-34.55-5.62v90.49l129,3.37c2.48,3.63.16,8.87-4,18.38-5.44,12.29-11.43,13.89-14.14,21.45-4.39,12.24,3.78,29.16,21.21,38.29,21.4,11.23,45.34,4.73,48.47,3.83,17.66-5,31.34-17.14,34.34-29.87,2.27-9.68-3.41-12.2-4-36-.26-9.51,1.75-14.89,6.05-19.45H127.79V156.84S105,164.05,73.91,164.5c-5.75.09-50.64.74-62.61-19.91-9-15.5,3.41-38.12,22.22-45.19,15-5.65,35.86-2,73.72,4.59,13.07,2.29,18.57,2.74,18.57,2.74l2-100.29Z"/><path class="cls-8" d="M-219.68,242.33v97.58s-17.2-6.94-48.75-9.19c-14-1-30.39-2-43.92,6-1.61.95-16.09,9.73-16.38,23.86-.4,19.56,26.81,30,28.07,30.49,10.35,3.82,19.67,3.66,38.31,3.34,30.65-.54,42.67-2.38,42.67-2.38v86.24h127s-22.7-18-22.22-38c.4-16.83,19.87-31.84,39.38-38.3,3.26-1.08,34.65-11,61.61,3.06,18.24,9.52,31,28.27,24.23,46.73C3.9,469.08-16.4,476.9-20,478.23H127.79V388.16s16.72,6.37,48.12,10.73c14.17,2,31.73,4.4,44.43-.77,27.9-11.34,37.53-51.63,19.19-65.11-24.69-18.14-70.87-9.09-73.72-8.42-23.42,5.53-38,13-38,13V242.33H-2.84s-5.83,19.6-5.94,22.54c-.59,16.21,7,20.95,3.93,32.91-3.23,12.76-15.22,20.79-18.39,22.79-1.12.71-25.8,15.73-54,7.38-13.9-4.12-28-13.72-30.83-25.75-1.22-5.23.42-7.85,9.17-30.53,9-23.17,8.25-26,8.25-26Z"/><path class="cls-9" d="M127.79,242.33H249.63s10.88-16.75,11.11-22.68c.69-11.15-6-14.09-7.07-26-.35-3.89-1.81-20,12.69-31.8,16.71-13.65,42-11.43,45.66-11.06,6.19.62,22,2.2,31.53,12.22,10.77,11.36,5.8,25.57,5.05,27.58-4,10.83-12.2,11.28-17.2,25.29-3,8.52-1.84,13.48-.5,16.54l8.61,10H475.26v235.9H354.66c0,8.92.06,21.61,0,38.61,0,7.12-.11,12.14-3,18.39a45.34,45.34,0,0,1-19.19,19.91c-19.69,10.82-51.85,10.63-70.69-3.06-19.57-14.22-16-36.61-15.83-37.69.61-3.41,1.73-5.11,3.71-14.4,2.06-9.65,4.06-21.77,4-21.77H127.79V388.16s15.34,5.41,48.12,10.73c17,2.75,26.14,4.14,36.83,1.39,21.86-5.64,30.57-23.57,32.43-27.82,1.25-2.86,10.79-24.71-5.64-39.45-16.23-14.56-46.16-11.73-55.55-10.84-33.72,3.19-56.19,15.44-56.19,15.44Z"/><path class="cls-10" d="M87.92,187.73C76.57,175.39,46,145.48-2.16,136.91c-73.79-13.16-129.42,34.42-140.25,43.68-64.05,54.78-69.59,137.33-73,187.91-1.78,26.46-3.32,52.81,6.12,85.78,4.56,15.91,26.17,91.41,96.76,124.08,68.08,31.51,163.16,14.44,209.23-50.59,24.64-34.77,41.58-93.91,13.8-140.25C74.16,326.9-22,334.2-73.43,350.73c-86.84,27.94-123,108-129.51,123"/></g></svg>