<svg id="Layer_1" data-name="Layer 1" xmlns="http://www.w3.org/2000/svg" xmlns:xlink="http://www.w3.org/1999/xlink" viewBox="0 0 481.4 252.77"><defs><style>.cls-1,.cls-7{fill:none;}.cls-10,.cls-2,.cls-4,.cls-5,.cls-6,.cls-7,.cls-9{stroke:#9cf;stroke-miterlimit:10;}.cls-10,.cls-2,.cls-4,.cls-5,.cls-6,.cls-9{stroke-width:5px;}.cls-2{fill:url(#radial-gradient);}.cls-3{clip-path:url(#clip-path);}.cls-4{fill:url(#radial-gradient-2);}.cls-5{fill:url(#radial-gradient-3);}.cls-6{fill:url(#radial-gradient-4);}.cls-7{stroke-linecap:round;stroke-width:80px;}.cls-8{clip-path:url(#clip-path-2);}.cls-9{fill:url(#radial-gradient-5);}.cls-10{fill:url(#radial-gradient-6);}</style><radialGradient id="radial-gradient" cx="669.43" cy="127" r="149.76" gradientTransform="translate(-639.94) scale(1.32 1)" gradientUnits="userSpaceOnUse"><stop offset="0" stop-color="#0b3d91"/><stop offset="0.99" stop-color="#082759"/></radialGradient><clipPath id="clip-path"><path class="cls-1" d="M10.72,9.05V194.57s2.19,20.14,15.33,32.18c11.9,10.92,28,15.09,30.46,15.71A102.9,102.9,0,0,0,77.14,245H358.19V161.79s24.61-.68,31,.77a62.6,62.6,0,0,1,11.61,3.73c12,5.31,17.39,9,21.71,10.82,15.36,6.56,48-6,51.7-28.4,3.3-19.92-17.49-40.48-35.85-43.15-15.65-2.27-23.05,9.41-50.18,12.57a107.63,107.63,0,0,1-30-.76V9.05H236.73s13.51,17.81,12.81,40.15c-.11,3.7-.87,27.93-26.1,40.05-19.65,9.45-43.82,6.58-59.63-.06-17.8-7.46-25.13-19.75-27.46-23.8-8.85-15.43-5.78-31.61-4.18-40,2.2-11.6,3.57-16.36,3.57-16.36Z"/></clipPath><radialGradient id="radial-gradient-2" cx="625.29" cy="-105.01" r="169.69" xlink:href="#radial-gradient"/><radialGradient id="radial-gradient-3" cx="893.41" cy="-108.9" r="175.93" xlink:href="#radial-gradient"/><radialGradient id="radial-gradient-4" cx="888.83" cy="86.68" r="145.62" xlink:href="#radial-gradient"/><clipPath id="clip-path-2"><path class="cls-1" d="M622.77-12.06h127a56.52,56.52,0,0,1-18.15-22c-7.71-17.33,3.33-33.5,4.09-34.58,15.76-22.27,51-23.86,55.25-24,6-.2,22-.55,37.58,7.34,1.59.81,27,14.16,26.08,36.75a36.3,36.3,0,0,1-12.86,25.25,59.3,59.3,0,0,1-19.28,11.22h147.8V102.38a41.54,41.54,0,0,1-15.88,1.11c-8.29-1.12-13.26-4.72-18.81-8-4-2.34-18.59-11-31.31-13-15.82-2.55-36.23,3.89-47.18,16.4-1.58,1.81-12.42,14.65-6.34,30.32,5.42,14,21.55,23.05,36.35,25.28,17.42,2.62,35.87-3.79,40.4-5.36,5.27-1.84,7.7-3.24,13.3-4.3,11.48-2.16,22.09-.15,29.47,2v77H622.77V140.68s28.66.2,31,.77a52,52,0,0,1,9.75,3.28c13.92,6.33,16.7,9,23.58,11.27,16.8,5.59,33.78-5.2,35-6,3.92-2.57,14.65-9.61,16.72-22.42,1.63-10.07-3-18.11-5.36-22.18-2.2-3.81-8.58-13.45-20.56-17.92-15.77-5.89-32,.64-35.23,1.93A169.62,169.62,0,0,1,659,95.71,53.52,53.52,0,0,1,652.78,97c-11.87,1.88-30-.77-30-.77Z"/></clipPath><radialGradient id="radial-gradient-5" cx="825.96" cy="-126.13" r="169.69" xlink:href="#radial-gradient"/><radialGradient id="radial-gradient-6" cx="870.1" cy="105.88" r="149.76" xlink:href="#radial-gradient"/></defs><path class="cls-2" d="M10.72,9.05V194.57s2.19,20.14,15.33,32.18c11.9,10.92,28,15.09,30.46,15.71A102.9,102.9,0,0,0,77.14,245H358.19V161.79s24.61-.68,31,.77a62.6,62.6,0,0,1,11.61,3.73c12,5.31,17.39,9,21.71,10.82,15.36,6.56,48-6,51.7-28.4,3.3-19.92-17.49-40.48-35.85-43.15-15.65-2.27-23.05,9.41-50.18,12.57a107.63,107.63,0,0,1-30-.76V9.05H236.73s13.51,17.81,12.81,40.15c-.11,3.7-.87,27.93-26.1,40.05-19.65,9.45-43.82,6.58-59.63-.06-17.8-7.46-25.13-19.75-27.46-23.8-8.85-15.43-5.78-31.61-4.18-40,2.2-11.6,3.57-16.36,3.57-16.36Z"/><g class="cls-3"><path class="cls-4" d="M10.72-226.85H139.78s-20.27-23.68-13.13-44.89c6.07-18,32.08-27,36-28.35,8.9-3.08,25-8.64,41.42-3.17a37.51,37.51,0,0,1,25.22,28.65c1,6.31-.77,11.25-4.2,21.13-6.77,19.48-11.59,26.63-11.59,26.63H358.19v97.58s-19.58-7.84-48.75-9.19c-11.09-.52-40-1.85-53.52,13-9.69,10.66-8.73,26.66,1,36.76,12.28,12.76,35.84,13.34,54.53,13.79,28.89.71,46.73-2.3,46.73-2.3V9.05H236.73s20,31.35,10.1,57c-5,13-19.45,23.6-35.35,27.57-26.9,6.72-59.93-5-71.7-22.21-16.63-24.28-4-62.36-4-62.36h-125Z"/><path class="cls-5" d="M358.19-226.85v97.58s-17.2-6.94-48.75-9.19c-14-1-30.4-2-43.92,6-1.62.95-16.09,9.73-16.38,23.86-.4,19.56,26.8,30,28.07,30.49,10.35,3.82,19.67,3.66,38.3,3.33,30.66-.53,42.68-2.37,42.68-2.37V9.05h127s-22.7-18-22.22-38c.4-16.83,19.87-31.84,39.38-38.3,3.25-1.08,34.65-11,61.6,3.06C582.17-54.65,595-35.9,588.16-17.44,581.77-.1,561.47,7.72,557.87,9.05H705.66V-81s16.72,6.37,48.12,10.73c14.17,2,31.73,4.39,44.43-.77,27.9-11.34,37.53-51.63,19.19-65.11-24.69-18.14-70.87-9.09-73.72-8.42-23.42,5.53-38,13-38,13v-95.28H575s-5.83,19.6-5.94,22.54c-.6,16.21,6.95,20.95,3.92,32.91-3.23,12.76-15.21,20.79-18.38,22.79-1.12.71-25.81,15.73-54,7.38-13.9-4.12-28-13.72-30.83-25.75-1.22-5.23.42-7.85,9.17-30.53,8.95-23.17,8.24-26,8.24-26Z"/><path class="cls-6" d="M358.19,9.05h127a56.5,56.5,0,0,1-18.16-22c-7.71-17.33,3.33-33.5,4.1-34.58,15.75-22.27,51-23.86,55.25-24,6-.19,22-.55,37.57,7.34,1.59.81,27,14.16,26.08,36.75A36.21,36.21,0,0,1,577.14-2.17,59.31,59.31,0,0,1,557.87,9.05H705.66V123.49a41.32,41.32,0,0,1-15.88,1.11c-8.29-1.12-13.25-4.72-18.81-8-4-2.34-18.59-11-31.31-13-15.82-2.55-36.23,3.9-47.18,16.4-1.58,1.81-12.41,14.65-6.34,30.32,5.43,14,21.55,23,36.36,25.28,17.42,2.62,35.86-3.79,40.39-5.36,5.27-1.83,7.7-3.24,13.3-4.3,11.48-2.15,22.1-.14,29.47,2v77H358.19V161.79s28.67.2,31,.77a53.8,53.8,0,0,1,9.75,3.28c13.92,6.33,16.69,9,23.57,11.27,16.81,5.59,33.78-5.2,35-6,3.93-2.57,14.66-9.61,16.73-22.42,1.63-10.07-3-18.1-5.36-22.18-2.2-3.8-8.58-13.45-20.56-17.92-15.77-5.89-32,.64-35.23,1.94a175.07,175.07,0,0,1-18.7,6.28,55.93,55.93,0,0,1-6.18,1.3c-11.87,1.88-30-.76-30-.76Z"/><path class="cls-7" d="M665.78-281.45c-11.34-12.34-41.94-42.25-90.07-50.82-73.79-13.16-129.42,34.42-140.25,43.68-64,54.78-69.6,137.33-73,187.91-1.77,26.46-3.31,52.81,6.13,85.78C373.14,1,394.76,76.51,465.35,109.18c68.08,31.51,163.16,14.44,209.23-50.59,24.63-34.77,41.58-93.91,13.79-140.25C652-142.28,555.85-135,504.44-118.45c-86.84,27.93-123,108-129.51,123"/></g><g class="cls-8"><path class="cls-9" d="M275.3-248H404.36s-20.27-23.68-13.13-44.89c6.07-18,32.08-27,36-28.36,8.9-3.07,25-8.63,41.41-3.16a37.53,37.53,0,0,1,25.23,28.65c.94,6.3-.77,11.25-4.21,21.13C482.89-255.11,478.08-248,478.08-248H622.77v97.58s-19.59-7.85-48.76-9.2c-11.09-.51-40-1.85-53.52,13-9.68,10.66-8.72,26.65,1,36.76C533.78-97,557.34-96.46,576-96c28.9.7,46.74-2.3,46.74-2.3v86.24H501.3s20,31.35,10.1,57c-5,13-19.45,23.6-35.34,27.57-26.91,6.72-59.94-5-71.7-22.21-16.63-24.28-4.05-62.36-4.05-62.36h-125Z"/><path class="cls-10" d="M275.3-12.06V173.46s2.19,20.14,15.32,32.18c11.91,10.92,28,15.09,30.47,15.71a102.44,102.44,0,0,0,20.62,2.48H622.77V140.68s24.61-.68,31,.77a62.35,62.35,0,0,1,11.61,3.73c12,5.31,17.4,9,21.72,10.82,15.36,6.56,48-6,51.69-28.4,3.3-19.92-17.49-40.48-35.84-43.15-15.66-2.27-23.05,9.41-50.19,12.57a107.87,107.87,0,0,1-30-.77V-12.06H501.3s13.51,17.81,12.82,40.15C514,31.79,513.25,56,488,68.14c-19.66,9.44-43.83,6.57-59.64-.06-17.8-7.46-25.13-19.75-27.45-23.81-8.86-15.43-5.78-31.6-4.19-40,2.21-11.59,3.57-16.35,3.57-16.35Z"/></g></svg>