<svg id="Layer_1" data-name="Layer 1" xmlns="http://www.w3.org/2000/svg" xmlns:xlink="http://www.w3.org/1999/xlink" viewBox="0 0 359.06 334.22"><defs><style>.cls-1,.cls-7{fill:none;}.cls-2{clip-path:url(#clip-path);}.cls-10,.cls-11,.cls-12,.cls-13,.cls-14,.cls-16,.cls-17,.cls-18,.cls-19,.cls-21,.cls-22,.cls-24,.cls-25,.cls-26,.cls-28,.cls-29,.cls-3,.cls-4,.cls-5,.cls-6,.cls-7,.cls-8{stroke:#9cf;stroke-miterlimit:10;}.cls-10,.cls-11,.cls-12,.cls-13,.cls-14,.cls-16,.cls-17,.cls-18,.cls-19,.cls-21,.cls-22,.cls-24,.cls-25,.cls-26,.cls-28,.cls-29,.cls-3,.cls-4,.cls-5,.cls-6,.cls-8{stroke-width:5px;}.cls-3{fill:url(#radial-gradient);}.cls-4{fill:url(#radial-gradient-2);}.cls-5{fill:url(#radial-gradient-3);}.cls-6{fill:url(#radial-gradient-4);}.cls-7{stroke-linecap:round;stroke-width:80px;}.cls-8{fill:url(#radial-gradient-5);}.cls-9{clip-path:url(#clip-path-2);}.cls-10{fill:url(#radial-gradient-6);}.cls-11{fill:url(#radial-gradient-7);}.cls-12{fill:url(#radial-gradient-8);}.cls-13{fill:url(#radial-gradient-9);}.cls-14{fill:url(#radial-gradient-10);}.cls-15{clip-path:url(#clip-path-3);}.cls-16{fill:url(#radial-gradient-11);}.cls-17{fill:url(#radial-gradient-12);}.cls-18{fill:url(#radial-gradient-13);}.cls-19{fill:url(#radial-gradient-14);}.cls-20{clip-path:url(#clip-path-4);}.cls-21{fill:url(#radial-gradient-15);}.cls-22{fill:url(#radial-gradient-16);}.cls-23{clip-path:url(#clip-path-5);}.cls-24{fill:url(#radial-gradient-17);}.cls-25{fill:url(#radial-gradient-18);}.cls-26{fill:url(#radial-gradient-19);}.cls-27{clip-path:url(#clip-path-6);}.cls-28{fill:url(#radial-gradient-20);}.cls-29{fill:url(#radial-gradient-21);}</style><clipPath id="clip-path"><path class="cls-1" d="M-519.76,23.22s-23.58,1-40.38,9.67c-3.22,1.66-21.53,11.41-28.11,29.08-3.67,9.85-1.78,20.5-1.78,20.5V259.11H-461s-20-24-13.13-44.89c6.34-19.35,35.33-28.21,38.37-29.11,8.19-2.4,28.15-8.26,45.45,0,19.78,9.45,19.26,30.31,19.19,32.17-.21,4.94-3.17,12-9.09,26.05-2.81,6.66-5.32,12.1-7.07,15.78h144.69V168.62s8.48,1.95,34.54,5.61c16.91,2.38,25.5,3.53,32.39,1.33,19.63-6.25,22.37-29,22.59-31.12.44-4.25,2.21-21.38-12-29.8-8.77-5.17-19.62-4.7-39.39-3.82-24,1.05-33.67,2.83-33.67,2.83l-4.42-90.43Z"/></clipPath><radialGradient id="radial-gradient" cx="281.66" cy="185.16" r="147.63" gradientTransform="translate(-440.18) scale(1.32 1)" gradientUnits="userSpaceOnUse"><stop offset="0" stop-color="#0b3d91"/><stop offset="0.99" stop-color="#082759"/></radialGradient><radialGradient id="radial-gradient-2" cx="500.5" cy="140.87" r="151.13" xlink:href="#radial-gradient"/><radialGradient id="radial-gradient-3" cx="286.24" cy="377.06" r="175.93" xlink:href="#radial-gradient"/><radialGradient id="radial-gradient-4" cx="545.21" cy="373.4" r="173.05" xlink:href="#radial-gradient"/><radialGradient id="radial-gradient-5" cx="471.28" cy="166.92" r="147.63" xlink:href="#radial-gradient"/><clipPath id="clip-path-2"><path class="cls-1" d="M7.44,5c0,80.71,4.42,90.44,4.42,90.44a178.29,178.29,0,0,0,23.7-1.51C54.81,91.5,58,91.36,61.68,91.51c6.48.26,15.76.64,23.24,4.89,16.85,9.59,11.86,31.66,11.2,34.6-1.31,5.81-4.4,19.49-18.27,25.15C67.49,160.37,55.53,158.32,42,156c-25.91-4.45-34.54-5.61-34.54-5.61v90.49l129,3.36c2.49,3.63.17,8.87-4,18.39-5.44,12.29-11.43,13.89-14.14,21.44-4.39,12.25,3.79,29.16,21.21,38.3,21.4,11.22,45.34,4.73,48.47,3.83,17.66-5.05,31.35-17.15,34.34-29.87,2.27-9.68-3.41-12.2-4-36-.25-9.51,1.76-14.89,6.06-19.45H354.91V155.38S332.06,162.59,301,163c-5.76.09-50.65.74-62.61-19.91-9-15.5,3.4-38.12,22.21-45.19,15-5.65,35.86-2,73.72,4.59,13.07,2.28,18.57,2.74,18.57,2.74l2-100.3Z"/></clipPath><radialGradient id="radial-gradient-6" cx="690.12" cy="122.63" r="151.13" xlink:href="#radial-gradient"/><radialGradient id="radial-gradient-7" cx="241.62" cy="122.92" r="144.01" xlink:href="#radial-gradient"/><radialGradient id="radial-gradient-8" cx="207.74" cy="362.7" r="169.69" xlink:href="#radial-gradient"/><radialGradient id="radial-gradient-9" cx="475.86" cy="358.82" r="175.93" xlink:href="#radial-gradient"/><radialGradient id="radial-gradient-10" cx="734.83" cy="355.15" r="173.05" xlink:href="#radial-gradient"/><clipPath id="clip-path-3"><path class="cls-1" d="M650.56,36.31s-2.1,25.27,0,46.24v53.61s-5.39.55-20.55-2.29c-24.94-4.68-37.41-7-46.45-7-6.18,0-29.28.14-43.13,13.51-9.35,9-13.19,22.86-6.36,34.06,10.89,17.89,43,19.33,51.52,19.72a136,136,0,0,0,44.11-5.37c8.82-5.07,20.86-5.16,20.86-5.16v88.56H772.4a39.34,39.34,0,0,0,11.11-22.68c.74-11.23-5.87-14.84-7.07-26.05-.15-1.4-1.91-21,14.13-32.93,19.94-14.83,61.08-13.15,75.74,2.29,9.79,10.3,5.85,24.66,5.05,27.58-4.78,17.47-21.55,22-19.76,35.81,1.12,8.69,10.67,16,10.67,16H998q1-91.68,2-183.34a49.5,49.5,0,0,0-3-20.46,47.33,47.33,0,0,0-7.51-13.28,48.11,48.11,0,0,0-18.62-13.68c-7.39-3.28-13.64-4.08-20.17-4.92a98.11,98.11,0,0,0-15.32-.76Z"/></clipPath><radialGradient id="radial-gradient-11" cx="695.53" cy="198.26" r="147.63" xlink:href="#radial-gradient"/><radialGradient id="radial-gradient-12" cx="465.86" cy="154.26" r="144.01" xlink:href="#radial-gradient"/><radialGradient id="radial-gradient-13" cx="431.98" cy="394.04" r="169.69" xlink:href="#radial-gradient"/><radialGradient id="radial-gradient-14" cx="700.11" cy="390.15" r="175.93" xlink:href="#radial-gradient"/><clipPath id="clip-path-4"><path class="cls-1" d="M-598.73,537.39h129.06s-20.27-23.69-13.13-44.9c6.07-18,32.08-27,36-28.35,8.9-3.07,25-8.64,41.42-3.17a37.52,37.52,0,0,1,25.22,28.66c1,6.3-.77,11.24-4.2,21.12-6.77,19.48-11.59,26.64-11.59,26.64h144.69V635s-19.58-7.84-48.75-9.19c-11.09-.51-40-1.85-53.52,13-9.69,10.66-8.73,26.66,1,36.77,12.28,12.75,35.84,13.33,54.53,13.79,28.89.7,46.73-2.3,46.73-2.3v86.23H-372.72s20,31.35,10.1,57c-5,13-19.45,23.61-35.35,27.58-26.9,6.71-59.93-5-71.7-22.22-16.63-24.27-4-62.36-4-62.36h-125Z"/></clipPath><radialGradient id="radial-gradient-15" cx="275.07" cy="463.44" r="147.63" xlink:href="#radial-gradient"/><radialGradient id="radial-gradient-16" cx="493.91" cy="419.15" r="151.13" xlink:href="#radial-gradient"/><clipPath id="clip-path-5"><path class="cls-1" d="M1.4,528.42V626s-17.21-6.94-48.75-9.19c-14-1-30.4-2-43.93,6-1.61,1-16.08,9.74-16.37,23.86-.4,19.57,26.8,30,28.07,30.49,10.34,3.83,19.66,3.67,38.3,3.34,30.66-.53,42.68-2.37,42.68-2.37v86.23h127s-22.69-18-22.22-38C106.55,709.5,126,694.5,145.53,688c3.25-1.08,34.64-11,61.6,3.06,18.24,9.52,31,28.26,24.24,46.72-6.39,17.34-26.7,25.16-30.3,26.49h147.8V674.25S365.59,680.62,397,685c14.17,2,31.72,4.4,44.43-.76,27.89-11.34,37.53-51.63,19.19-65.11-24.7-18.15-70.87-9.1-73.72-8.43-23.43,5.53-38,13-38,13V528.42H218.24S212.4,548,212.3,551c-.6,16.22,6.95,21,3.92,32.92C213,596.62,201,604.66,197.84,606.65c-1.13.71-25.81,15.74-54,7.38-13.91-4.12-28-13.72-30.84-25.74-1.22-5.24.42-7.86,9.18-30.53,8.94-23.18,8.24-26,8.24-26Z"/></clipPath><radialGradient id="radial-gradient-17" cx="466.7" cy="454.47" r="147.63" xlink:href="#radial-gradient"/><radialGradient id="radial-gradient-18" cx="685.54" cy="410.18" r="151.13" xlink:href="#radial-gradient"/><radialGradient id="radial-gradient-19" cx="237.04" cy="410.47" r="144.01" xlink:href="#radial-gradient"/><clipPath id="clip-path-6"><path class="cls-1" d="M643.49,532.08H765.32s10.88-16.75,11.11-22.68c.69-11.15-6-14.09-7.07-26-.35-3.89-1.81-19.95,12.7-31.8,16.71-13.65,42-11.43,45.65-11.07,6.19.62,22,2.21,31.53,12.23,10.77,11.36,5.8,25.56,5,27.58-4,10.83-12.2,11.28-17.19,25.29-3,8.52-1.85,13.48-.51,16.54l8.61,10H991V768H870.35c0,8.92.07,21.61,0,38.61,0,7.12-.11,12.14-3,18.39a45.27,45.27,0,0,1-19.19,19.91c-19.69,10.82-51.84,10.63-70.69-3.06-19.56-14.22-16-36.62-15.83-37.69.61-3.42,1.73-5.11,3.71-14.4,2.06-9.65,4.06-21.77,4-21.77H643.49V677.91s15.33,5.41,48.11,10.73c17,2.75,26.15,4.14,36.83,1.39,21.86-5.64,30.57-23.57,32.43-27.82,1.25-2.87,10.79-24.71-5.63-39.45C739,608.2,709.07,611,699.67,611.92c-33.72,3.19-56.18,15.44-56.18,15.44Z"/></clipPath><radialGradient id="radial-gradient-20" cx="690.16" cy="458.13" r="147.63" xlink:href="#radial-gradient"/><radialGradient id="radial-gradient-21" cx="460.5" cy="414.13" r="144.01" xlink:href="#radial-gradient"/></defs><g class="cls-2"><path class="cls-3" d="M-242.56,23.22c0,80.7,4.42,90.43,4.42,90.43a176.22,176.22,0,0,0,23.7-1.51c19.25-2.39,22.47-2.54,26.12-2.39,6.48.26,15.76.64,23.24,4.89,16.85,9.6,11.86,31.66,11.2,34.6-1.31,5.81-4.4,19.49-18.27,25.15-10.36,4.22-22.32,2.17-35.87-.16-25.91-4.45-34.54-5.61-34.54-5.61v90.49l129,3.36c2.49,3.63.17,8.88-4,18.39-5.44,12.29-11.43,13.89-14.14,21.44-4.39,12.25,3.79,29.17,21.21,38.3,21.4,11.22,45.34,4.73,48.47,3.83,17.66-5.05,31.35-17.14,34.34-29.87,2.27-9.68-3.41-12.2-4-36-.25-9.51,1.76-14.89,6.06-19.45H104.91V173.62S82.06,180.83,51,181.28c-5.76.09-50.65.74-62.61-19.91-9-15.5,3.4-38.12,22.21-45.19,15-5.65,35.86-2,73.72,4.59,13.07,2.28,18.57,2.74,18.57,2.74l2-100.29Z"/><path class="cls-4" d="M104.91,23.22s-2.1,25.26,0,46.23v53.62s-5.4.55-20.56-2.3c-24.94-4.68-37.41-7-46.44-7-6.18,0-29.28.14-43.13,13.51-9.36,9-13.19,22.85-6.36,34.06,10.89,17.89,43,19.33,51.52,19.71a135.81,135.81,0,0,0,44.11-5.36c8.81-5.07,20.86-5.16,20.86-5.16v88.55H226.74a39.26,39.26,0,0,0,11.11-22.68c.75-11.22-5.86-14.83-7.07-26-.15-1.4-1.9-21,14.14-32.94,19.94-14.82,61.07-13.14,75.74,2.3,9.78,10.3,5.85,24.66,5,27.58-4.78,17.47-21.55,22-19.76,35.81,1.12,8.69,10.67,16,10.67,16H452.37q1-91.67,2-183.33a49.25,49.25,0,0,0-3-20.46A47.43,47.43,0,0,0,443.85,42a48.12,48.12,0,0,0-18.63-13.68c-7.39-3.28-13.64-4.08-20.16-4.92a99.58,99.58,0,0,0-15.32-.77Z"/><path class="cls-5" d="M-242.56,259.11v97.58s-17.21-6.95-48.76-9.19c-14-1-30.39-2-43.92,6-1.61,1-16.09,9.73-16.37,23.86-.41,19.56,26.8,30,28.06,30.49,10.35,3.82,19.67,3.66,38.31,3.33,30.66-.53,42.68-2.37,42.68-2.37V495h127s-22.69-18-22.22-38c.41-16.83,19.88-31.84,39.39-38.3,3.25-1.08,34.64-11,61.6,3.06,18.24,9.52,31,28.27,24.24,46.73-6.4,17.34-26.7,25.16-30.3,26.49h147.8V404.94s16.72,6.37,48.11,10.73c14.18,2,31.73,4.39,44.44-.77,27.89-11.34,37.53-51.63,19.19-65.11-24.7-18.14-70.88-9.09-73.72-8.42-23.43,5.52-38,13-38,13V259.11H-25.72s-5.84,19.6-6,22.54c-.59,16.21,7,21,3.93,32.91-3.23,12.75-15.21,20.79-18.39,22.79-1.12.71-25.8,15.73-54,7.37C-114.07,340.61-128.2,331-131,319c-1.22-5.23.42-7.85,9.18-30.53,8.94-23.17,8.24-26,8.24-26Z"/><path class="cls-6" d="M104.91,259.11H226.74s10.88-16.75,11.11-22.68c.69-11.15-6-14.09-7.07-26-.35-3.89-1.81-19.95,12.7-31.8,16.71-13.65,42-11.43,45.65-11.07,6.19.63,22,2.21,31.53,12.23,10.77,11.36,5.8,25.56,5,27.58-4,10.83-12.2,11.28-17.19,25.29-3,8.52-1.85,13.48-.51,16.54l8.61,10H452.37V495H331.77c0,8.92.07,21.61,0,38.61,0,7.12-.11,12.14-3,18.39a45.27,45.27,0,0,1-19.19,19.91c-19.69,10.82-51.84,10.63-70.69-3.06-19.56-14.22-16-36.62-15.83-37.69.61-3.42,1.73-5.11,3.71-14.4,2.06-9.65,4.06-21.77,4-21.77H104.91V404.94s15.33,5.41,48.11,10.73c17,2.75,26.15,4.14,36.83,1.39,21.86-5.64,30.57-23.57,32.43-27.82,1.25-2.86,10.79-24.71-5.63-39.45-16.23-14.56-46.16-11.73-55.56-10.84-33.72,3.19-56.18,15.44-56.18,15.44Z"/><path class="cls-7" d="M65,204.51C53.69,192.17,23.08,162.26-25,153.69c-73.8-13.16-129.42,34.42-140.26,43.68-64,54.78-69.59,137.33-73,187.91-1.78,26.46-3.31,52.81,6.13,85.78,4.55,15.91,26.17,91.41,96.75,124.08,68.09,31.51,163.17,14.44,209.23-50.59,24.64-34.77,41.58-93.91,13.8-140.25C51.28,343.68-44.9,351-96.32,367.51c-86.84,27.93-123,108-129.51,123"/></g><path class="cls-8" d="M7.44,5c0,80.71,4.42,90.44,4.42,90.44a178.29,178.29,0,0,0,23.7-1.51C54.81,91.5,58,91.36,61.68,91.51c6.48.26,15.76.64,23.24,4.89,16.85,9.59,11.86,31.66,11.2,34.6-1.31,5.81-4.4,19.49-18.27,25.15C67.49,160.37,55.53,158.32,42,156c-25.91-4.45-34.54-5.61-34.54-5.61v90.49l129,3.36c2.49,3.63.17,8.87-4,18.39-5.44,12.29-11.43,13.89-14.14,21.44-4.39,12.25,3.79,29.16,21.21,38.3,21.4,11.22,45.34,4.73,48.47,3.83,17.66-5.05,31.35-17.15,34.34-29.87,2.27-9.68-3.41-12.2-4-36-.25-9.51,1.76-14.89,6.06-19.45H354.91V155.38S332.06,162.59,301,163c-5.76.09-50.65.74-62.61-19.91-9-15.5,3.4-38.12,22.21-45.19,15-5.65,35.86-2,73.72,4.59,13.07,2.28,18.57,2.74,18.57,2.74l2-100.3Z"/><g class="cls-9"><path class="cls-10" d="M354.91,5s-2.1,25.27,0,46.24v53.62s-5.4.55-20.56-2.3c-24.94-4.68-37.41-7-46.44-7-6.18,0-29.28.14-43.13,13.51-9.36,9-13.19,22.85-6.36,34.06,10.89,17.88,43,19.33,51.52,19.71a136.13,136.13,0,0,0,44.11-5.36c8.81-5.07,20.86-5.16,20.86-5.16v88.55H476.74a39.26,39.26,0,0,0,11.11-22.68c.75-11.22-5.86-14.83-7.07-26-.15-1.4-1.9-21,14.14-32.94,19.94-14.83,61.07-13.14,75.74,2.3,9.78,10.3,5.85,24.66,5.05,27.57-4.78,17.47-21.55,22-19.76,35.82,1.12,8.69,10.67,16,10.67,16H702.37q1-91.67,2-183.33a49.25,49.25,0,0,0-3-20.46,47.7,47.7,0,0,0-7.51-13.29,48.07,48.07,0,0,0-18.63-13.67C667.83,6.84,661.58,6,655.06,5.2a99.58,99.58,0,0,0-15.32-.77Z"/><path class="cls-11" d="M-269.76,5s-23.58,1-40.38,9.68c-3.22,1.66-21.53,11.4-28.11,29.08-3.67,9.85-1.78,20.5-1.78,20.5V240.87H-211s-20-24-13.13-44.89c6.34-19.35,35.33-28.22,38.37-29.11,8.19-2.4,28.15-8.26,45.45,0,19.78,9.45,19.26,30.31,19.19,32.17-.21,4.94-3.17,12-9.09,26-2.81,6.66-5.32,12.11-7.07,15.79H7.44V150.38s8.48,2,34.54,5.61c16.91,2.38,25.5,3.52,32.39,1.33C94,151.07,96.74,128.28,97,126.2c.44-4.25,2.21-21.38-12-29.8-8.77-5.18-19.62-4.7-39.39-3.83-24,1.06-33.67,2.84-33.67,2.84L7.44,5Z"/><path class="cls-12" d="M-340,240.87H-211S-231.24,217.19-224.1,196c6.07-18,32.08-27,36-28.36,8.9-3.07,25-8.63,41.42-3.16a37.53,37.53,0,0,1,25.22,28.65c.94,6.3-.77,11.25-4.21,21.13-6.77,19.47-11.58,26.63-11.58,26.63H7.44v97.58s-19.58-7.85-48.76-9.2c-11.09-.51-40-1.85-53.52,13-9.68,10.66-8.72,26.65,1,36.76C-81.55,391.8-58,392.37-39.3,392.83c28.9.7,46.74-2.3,46.74-2.3v86.24H-114s20,31.35,10.1,57c-5,13-19.45,23.61-35.34,27.58-26.91,6.72-59.94-5-71.7-22.21-16.63-24.28-4.05-62.36-4.05-62.36H-340Z"/><path class="cls-13" d="M7.44,240.87v97.58s-17.21-6.95-48.76-9.2c-14-1-30.39-2-43.92,6-1.61.94-16.09,9.73-16.37,23.86-.41,19.56,26.8,30,28.06,30.48,10.35,3.83,19.67,3.67,38.31,3.34,30.66-.53,42.68-2.37,42.68-2.37v86.24h127s-22.69-18-22.22-38c.41-16.83,19.88-31.84,39.39-38.3,3.25-1.08,34.64-11,61.6,3.06,18.24,9.52,31,28.26,24.24,46.73-6.4,17.34-26.7,25.15-30.3,26.49h147.8V386.7s16.72,6.37,48.11,10.72c14.18,2,31.73,4.4,44.44-.76C475.35,385.32,485,345,466.65,331.55c-24.7-18.14-70.88-9.1-73.72-8.42-23.43,5.52-38,13-38,13V240.87H224.28s-5.84,19.6-5.95,22.54c-.59,16.21,7,20.95,3.93,32.91-3.23,12.75-15.21,20.79-18.39,22.79-1.12.7-25.8,15.73-54,7.37-13.91-4.11-28-13.72-30.84-25.74-1.22-5.23.42-7.86,9.18-30.53,8.94-23.17,8.24-26,8.24-26Z"/><path class="cls-14" d="M354.91,240.87H476.74s10.88-16.76,11.11-22.68c.69-11.15-6-14.09-7.07-26-.35-3.9-1.81-20,12.7-31.8,16.71-13.65,42-11.43,45.65-11.07,6.19.62,22,2.21,31.53,12.23,10.77,11.36,5.8,25.56,5.05,27.57-4,10.84-12.2,11.29-17.19,25.3-3,8.51-1.85,13.48-.51,16.54l8.61,10H702.37v235.9H581.77c0,8.92.07,21.61,0,38.61,0,7.11-.11,12.14-3,18.38a45.23,45.23,0,0,1-19.19,19.92c-19.69,10.82-51.84,10.63-70.69-3.06C469.3,536.4,472.84,514,473,512.93c.61-3.42,1.73-5.11,3.71-14.4,2.06-9.65,4.06-21.77,4.05-21.77H354.91V386.7s15.33,5.41,48.11,10.72c17,2.76,26.15,4.15,36.83,1.4,21.86-5.64,30.57-23.57,32.43-27.82,1.25-2.87,10.79-24.71-5.63-39.45-16.23-14.56-46.16-11.73-55.56-10.84-33.72,3.19-56.18,15.44-56.18,15.44Z"/><path class="cls-7" d="M315,186.27C303.69,173.93,273.08,144,225,135.44c-73.8-13.15-129.42,34.43-140.26,43.69-64,54.78-69.59,137.33-73,187.9-1.78,26.47-3.31,52.82,6.13,85.79,4.55,15.9,26.17,91.41,96.75,124.08,68.09,31.5,163.17,14.44,209.23-50.59,24.64-34.77,41.58-93.91,13.8-140.25-36.34-60.62-132.52-53.33-183.94-36.79-86.84,27.93-123,108-129.51,123"/></g><g class="cls-15"><path class="cls-16" d="M303.09,36.31c0,80.7,4.43,90.43,4.43,90.43a177.12,177.12,0,0,0,23.7-1.5c19.25-2.4,22.46-2.54,26.11-2.4,6.48.27,15.76.64,23.24,4.9,16.85,9.59,11.86,31.66,11.2,34.59-1.31,5.82-4.4,19.5-18.27,25.15-10.36,4.23-22.32,2.17-35.87-.15-25.91-4.45-34.54-5.62-34.54-5.62v90.5l129,3.36c2.49,3.63.17,8.87-4,18.38-5.43,12.29-11.43,13.89-14.13,21.45-4.39,12.24,3.78,29.16,21.2,38.3,21.4,11.22,45.35,4.72,48.48,3.83,17.65-5.06,31.34-17.15,34.33-29.88,2.28-9.68-3.41-12.19-4-36-.25-9.51,1.76-14.89,6.06-19.44H650.56V186.72s-22.85,7.21-53.88,7.66c-5.76.08-50.65.73-62.61-19.92-9-15.49,3.4-38.12,22.22-45.19,15-5.65,35.85-2,73.72,4.6,13.06,2.28,18.57,2.73,18.57,2.73l2-100.29Z"/><path class="cls-17" d="M25.89,36.31S2.31,37.32-14.49,46C-17.71,47.65-36,57.39-42.6,75.07c-3.67,9.84-1.78,20.5-1.78,20.5V272.21H84.68s-20-24-13.13-44.9c6.35-19.35,35.33-28.21,38.38-29.1,8.18-2.4,28.14-8.26,45.44,0,19.78,9.44,19.26,30.3,19.19,32.17-.21,4.93-3.17,12-9.09,26-2.8,6.66-5.32,12.1-7.07,15.79H303.09v-90.5s8.48,1.95,34.54,5.62c16.91,2.37,25.5,3.52,32.39,1.33,19.63-6.26,22.37-29,22.59-31.13.44-4.25,2.21-21.38-12-29.79-8.77-5.18-19.62-4.7-39.39-3.83-24,1.06-33.66,2.83-33.66,2.83l-4.43-90.43Z"/><path class="cls-18" d="M-44.38,272.21H84.68s-20.27-23.69-13.13-44.9c6.07-18,32.08-27,36-28.35,8.9-3.07,25-8.64,41.42-3.17a37.52,37.52,0,0,1,25.22,28.65c.95,6.31-.77,11.25-4.21,21.13-6.76,19.48-11.58,26.64-11.58,26.64H303.09v97.57s-19.58-7.84-48.75-9.19c-11.09-.51-40-1.85-53.53,13-9.68,10.66-8.72,26.66,1,36.77,12.29,12.75,35.84,13.33,54.54,13.78,28.89.71,46.73-2.29,46.73-2.29V508.1H181.63s20,31.35,10.09,57c-5,13-19.44,23.61-35.34,27.57-26.91,6.72-59.94-5-71.7-22.21-16.63-24.27-4.05-62.36-4.05-62.36h-125Z"/><path class="cls-19" d="M303.09,272.21v97.57s-17.21-6.94-48.75-9.19c-14-1-30.4-2-43.93,6-1.61.95-16.08,9.74-16.37,23.86-.4,19.56,26.8,30,28.07,30.49,10.34,3.83,19.66,3.66,38.3,3.34,30.66-.54,42.68-2.37,42.68-2.37V508.1h127s-22.69-18-22.21-38c.4-16.83,19.87-31.83,39.38-38.3,3.25-1.07,34.65-11,61.6,3.07,18.24,9.52,31,28.26,24.24,46.72-6.39,17.34-26.69,25.16-30.3,26.49h147.8V418s16.72,6.37,48.12,10.72c14.17,2,31.72,4.4,44.43-.77,27.89-11.33,37.53-51.63,19.19-65.1-24.7-18.15-70.87-9.1-73.72-8.43-23.43,5.53-38,13-38,13V272.21H519.93s-5.84,19.6-5.94,22.53c-.6,16.21,7,21,3.92,32.91-3.23,12.76-15.21,20.79-18.38,22.79-1.12.71-25.81,15.74-54,7.38-13.91-4.12-28-13.72-30.84-25.75-1.22-5.23.42-7.85,9.18-30.53,8.94-23.17,8.24-26,8.24-26Z"/><path class="cls-7" d="M610.68,217.6c-11.34-12.34-41.95-42.24-90.07-50.82-73.8-13.15-129.42,34.42-140.25,43.68-64.05,54.78-69.6,137.33-73,187.91-1.78,26.46-3.31,52.82,6.13,85.79,4.55,15.9,26.17,91.4,96.76,124.07,68.08,31.51,163.16,14.45,209.23-50.58,24.63-34.78,41.57-93.92,13.79-140.26-36.34-60.61-132.52-53.32-183.94-36.78-86.84,27.93-123,108-129.51,123"/></g><g class="cls-20"><path class="cls-21" d="M-251.26,301.49c0,80.71,4.43,90.43,4.43,90.43a177,177,0,0,0,23.7-1.5c19.25-2.4,22.46-2.54,26.12-2.4,6.47.27,15.75.64,23.23,4.9,16.85,9.59,11.87,31.66,11.2,34.59-1.31,5.82-4.4,19.5-18.27,25.15-10.36,4.23-22.32,2.18-35.86-.15-25.92-4.45-34.55-5.62-34.55-5.62v90.5l129,3.36c2.49,3.63.17,8.87-4,18.38-5.44,12.29-11.43,13.9-14.14,21.45-4.39,12.24,3.78,29.16,21.2,38.3,21.4,11.22,45.35,4.72,48.48,3.83,17.66-5.05,31.34-17.15,34.33-29.88,2.28-9.68-3.41-12.19-4-36-.25-9.5,1.76-14.89,6.06-19.44H96.21V451.9s-22.85,7.21-53.88,7.66c-5.75.08-50.64.73-62.61-19.92-9-15.49,3.41-38.12,22.22-45.19,15-5.65,35.86-2,73.72,4.6,13.07,2.28,18.57,2.74,18.57,2.74l2-100.3Z"/><path class="cls-22" d="M96.21,301.49s-2.09,25.27,0,46.24v53.61s-5.39.55-20.55-2.29c-24.94-4.68-37.41-7-46.44-7-6.19,0-29.29.15-43.14,13.51-9.35,9-13.18,22.86-6.36,34.06,10.89,17.89,43,19.33,51.52,19.72A136,136,0,0,0,75.36,454c8.81-5.06,20.85-5.16,20.85-5.16v88.56H218.05a39.34,39.34,0,0,0,11.11-22.68c.74-11.23-5.86-14.84-7.07-26.05-.15-1.4-1.91-21,14.14-32.93C256.16,440.9,297.3,442.58,312,458c9.78,10.29,5.84,24.66,5,27.57-4.79,17.47-21.56,22-19.77,35.81,1.12,8.7,10.68,16,10.68,16H443.68q1-91.67,2-183.34a49.57,49.57,0,0,0-3-20.45,47.22,47.22,0,0,0-7.52-13.29,48,48,0,0,0-18.62-13.67c-7.39-3.29-13.64-4.09-20.17-4.93A99.27,99.27,0,0,0,381,301Z"/></g><g class="cls-23"><path class="cls-24" d="M1.4,292.52C1.4,373.23,5.82,383,5.82,383a177,177,0,0,0,23.7-1.5c19.25-2.4,22.47-2.54,26.12-2.39,6.48.26,15.76.63,23.24,4.89,16.85,9.59,11.86,31.66,11.2,34.59-1.31,5.82-4.4,19.5-18.27,25.16-10.36,4.22-22.32,2.17-35.87-.16C10,439.09,1.4,437.92,1.4,437.92v90.5l129,3.36c2.49,3.63.17,8.87-4,18.38-5.43,12.29-11.43,13.9-14.14,21.45-4.39,12.24,3.79,29.16,21.21,38.3,21.4,11.22,45.34,4.72,48.47,3.83,17.66-5,31.35-17.15,34.34-29.87,2.28-9.69-3.41-12.2-4-36-.25-9.51,1.76-14.89,6.06-19.45H348.87V442.93S326,450.14,295,450.59c-5.76.08-50.65.73-62.61-19.92-9-15.49,3.4-38.12,22.21-45.19,15-5.64,35.86-2,73.73,4.6,13.06,2.28,18.57,2.74,18.57,2.74l2-100.3Z"/><path class="cls-25" d="M348.87,292.52s-2.1,25.27,0,46.24v53.62s-5.4.54-20.55-2.3c-24.95-4.68-37.42-7-46.45-7-6.18,0-29.28.15-43.13,13.52-9.36,9-13.19,22.85-6.36,34.05,10.89,17.89,43,19.33,51.52,19.72A136.13,136.13,0,0,0,328,445c8.82-5.07,20.86-5.16,20.86-5.16v88.55H470.71a39.29,39.29,0,0,0,11.1-22.68c.75-11.23-5.86-14.84-7.06-26-.16-1.4-1.91-21,14.13-32.94,19.94-14.83,61.07-13.14,75.74,2.3,9.78,10.29,5.85,24.66,5,27.57-4.78,17.47-21.55,22-19.76,35.81,1.12,8.7,10.67,16,10.67,16H696.34l1.95-183.33a49.25,49.25,0,0,0-3-20.46,47.44,47.44,0,0,0-7.51-13.29,48.13,48.13,0,0,0-18.62-13.67c-7.4-3.29-13.65-4.09-20.17-4.92A98.32,98.32,0,0,0,633.7,292Z"/><path class="cls-26" d="M-275.8,292.52s-23.58,1-40.38,9.68c-3.22,1.66-21.52,11.4-28.11,29.08-3.67,9.85-1.78,20.5-1.78,20.5V528.42H-217s-20-24-13.13-44.89c6.35-19.35,35.33-28.22,38.38-29.11,8.18-2.4,28.14-8.26,45.44,0,19.78,9.44,19.26,30.31,19.19,32.17-.21,4.94-3.17,12-9.09,26-2.81,6.66-5.32,12.11-7.07,15.79H1.4v-90.5s8.48,2,34.54,5.62c16.91,2.38,25.5,3.52,32.39,1.33,19.63-6.26,22.37-29,22.59-31.12.44-4.26,2.21-21.38-12-29.8-8.77-5.18-19.62-4.7-39.39-3.83C15.52,381.18,5.82,383,5.82,383L1.4,292.52Z"/></g><g class="cls-27"><path class="cls-28" d="M296,296.19c0,80.7,4.42,90.43,4.42,90.43a176.22,176.22,0,0,0,23.7-1.51c19.25-2.39,22.47-2.54,26.12-2.39,6.48.26,15.76.64,23.24,4.89,16.85,9.6,11.86,31.66,11.2,34.6-1.32,5.81-4.41,19.49-18.27,25.15-10.36,4.22-22.32,2.17-35.87-.16-25.91-4.45-34.54-5.61-34.54-5.61v90.49l129,3.36c2.49,3.63.17,8.88-4,18.39-5.44,12.29-11.43,13.89-14.14,21.44-4.39,12.25,3.79,29.16,21.21,38.3,21.4,11.22,45.34,4.73,48.47,3.83,17.66-5,31.35-17.14,34.34-29.87,2.27-9.68-3.41-12.2-4-36-.25-9.51,1.76-14.89,6.06-19.45H643.49V446.59s-22.85,7.21-53.88,7.66c-5.76.09-50.65.74-62.61-19.91-9-15.5,3.4-38.12,22.21-45.19,15-5.65,35.86-2,73.72,4.59,13.07,2.28,18.57,2.74,18.57,2.74l2-100.29Z"/><path class="cls-29" d="M18.82,296.19s-23.58,1-40.38,9.67c-3.22,1.66-21.53,11.41-28.11,29.08-3.67,9.85-1.78,20.5-1.78,20.5V532.08H77.61s-20-24-13.13-44.89c6.34-19.35,35.33-28.21,38.37-29.11,8.19-2.4,28.15-8.26,45.45,0,19.78,9.45,19.26,30.31,19.18,32.17-.2,4.94-3.16,12-9.08,26-2.81,6.66-5.32,12.1-7.07,15.78H296V441.59s8.48,2,34.54,5.61c16.91,2.38,25.5,3.52,32.38,1.33,19.63-6.25,22.38-29,22.6-31.12.44-4.25,2.21-21.38-12-29.8-8.77-5.17-19.62-4.7-39.39-3.82-24,1-33.67,2.83-33.67,2.83L296,296.19Z"/></g></svg>