<svg id="Layer_1" data-name="Layer 1" xmlns="http://www.w3.org/2000/svg" xmlns:xlink="http://www.w3.org/1999/xlink" viewBox="0 0 596.3 252.77"><defs><style>.cls-1,.cls-6{fill:none;}.cls-2{clip-path:url(#clip-path);}.cls-10,.cls-11,.cls-12,.cls-14,.cls-15,.cls-16,.cls-18,.cls-19,.cls-20,.cls-21,.cls-22,.cls-23,.cls-24,.cls-26,.cls-27,.cls-28,.cls-29,.cls-3,.cls-30,.cls-31,.cls-32,.cls-33,.cls-35,.cls-36,.cls-37,.cls-38,.cls-39,.cls-4,.cls-40,.cls-42,.cls-43,.cls-44,.cls-46,.cls-47,.cls-48,.cls-49,.cls-5,.cls-50,.cls-51,.cls-53,.cls-54,.cls-55,.cls-6,.cls-8,.cls-9{stroke:#9cf;stroke-miterlimit:10;}.cls-10,.cls-11,.cls-12,.cls-14,.cls-15,.cls-16,.cls-18,.cls-19,.cls-20,.cls-21,.cls-22,.cls-23,.cls-24,.cls-26,.cls-27,.cls-28,.cls-29,.cls-3,.cls-30,.cls-31,.cls-32,.cls-33,.cls-35,.cls-36,.cls-37,.cls-38,.cls-39,.cls-4,.cls-40,.cls-42,.cls-43,.cls-44,.cls-46,.cls-47,.cls-48,.cls-49,.cls-5,.cls-50,.cls-51,.cls-53,.cls-54,.cls-55,.cls-8,.cls-9{stroke-width:5px;}.cls-3{fill:url(#radial-gradient);}.cls-4{fill:url(#radial-gradient-2);}.cls-5{fill:url(#radial-gradient-3);}.cls-6{stroke-linecap:round;stroke-width:80px;}.cls-7{clip-path:url(#clip-path-2);}.cls-8{fill:url(#radial-gradient-4);}.cls-9{fill:url(#radial-gradient-5);}.cls-10{fill:url(#radial-gradient-6);}.cls-11{fill:url(#radial-gradient-7);}.cls-12{fill:url(#radial-gradient-8);}.cls-13{clip-path:url(#clip-path-3);}.cls-14{fill:url(#radial-gradient-9);}.cls-15{fill:url(#radial-gradient-10);}.cls-16{fill:url(#radial-gradient-11);}.cls-17{clip-path:url(#clip-path-4);}.cls-18{fill:url(#radial-gradient-12);}.cls-19{fill:url(#radial-gradient-13);}.cls-20{fill:url(#radial-gradient-14);}.cls-21{fill:url(#radial-gradient-15);}.cls-22{fill:url(#radial-gradient-16);}.cls-23{fill:url(#radial-gradient-17);}.cls-24{fill:url(#radial-gradient-18);}.cls-25{clip-path:url(#clip-path-5);}.cls-26{fill:url(#radial-gradient-19);}.cls-27{fill:url(#radial-gradient-20);}.cls-28{fill:url(#radial-gradient-21);}.cls-29{fill:url(#radial-gradient-22);}.cls-30{fill:url(#radial-gradient-23);}.cls-31{fill:url(#radial-gradient-24);}.cls-32{fill:url(#radial-gradient-25);}.cls-33{fill:url(#radial-gradient-26);}.cls-34{clip-path:url(#clip-path-6);}.cls-35{fill:url(#radial-gradient-27);}.cls-36{fill:url(#radial-gradient-28);}.cls-37{fill:url(#radial-gradient-29);}.cls-38{fill:url(#radial-gradient-30);}.cls-39{fill:url(#radial-gradient-31);}.cls-40{fill:url(#radial-gradient-32);}.cls-41{clip-path:url(#clip-path-7);}.cls-42{fill:url(#radial-gradient-33);}.cls-43{fill:url(#radial-gradient-34);}.cls-44{fill:url(#radial-gradient-35);}.cls-45{clip-path:url(#clip-path-8);}.cls-46{fill:url(#radial-gradient-36);}.cls-47{fill:url(#radial-gradient-37);}.cls-48{fill:url(#radial-gradient-38);}.cls-49{fill:url(#radial-gradient-39);}.cls-50{fill:url(#radial-gradient-40);}.cls-51{fill:url(#radial-gradient-41);}.cls-52{clip-path:url(#clip-path-9);}.cls-53{fill:url(#radial-gradient-42);}.cls-54{fill:url(#radial-gradient-43);}.cls-55{fill:url(#radial-gradient-44);}</style><clipPath id="clip-path"><path class="cls-1" d="M-402.57-497.25s-23.58,1-40.38,9.67c-3.22,1.66-21.52,11.41-28.11,29.09-3.67,9.84-1.78,20.5-1.78,20.5v176.63h129.06s-20-24-13.13-44.89c6.35-19.35,35.33-28.21,38.38-29.11,8.18-2.4,28.14-8.25,45.44,0,19.78,9.45,19.26,30.31,19.19,32.18-.21,4.93-3.17,12-9.09,26-2.81,6.66-5.32,12.1-7.07,15.78h144.69v-90.49s8.48,2,34.54,5.62c16.91,2.37,25.5,3.52,32.39,1.32,19.63-6.25,22.37-29,22.59-31.12.44-4.25,2.21-21.38-12-29.79-8.77-5.18-19.62-4.7-39.39-3.83-24,1-33.67,2.83-33.67,2.83l-4.42-90.43Z"/></clipPath><radialGradient id="radial-gradient" cx="662.4" cy="-147.07" r="173.05" gradientTransform="translate(-477.5) scale(1.32 1)" gradientUnits="userSpaceOnUse"><stop offset="0" stop-color="#0b3d91"/><stop offset="0.99" stop-color="#082759"/></radialGradient><radialGradient id="radial-gradient-2" cx="398.86" cy="52.17" r="145.62" xlink:href="#radial-gradient"/><radialGradient id="radial-gradient-3" cx="617.89" cy="92.98" r="151.33" xlink:href="#radial-gradient"/><clipPath id="clip-path-2"><path class="cls-1" d="M124.63-515.49c0,80.7,4.42,90.43,4.42,90.43a176.22,176.22,0,0,0,23.7-1.51C172-429,175.22-429.11,178.87-429c6.48.26,15.76.64,23.24,4.9,16.85,9.59,11.86,31.65,11.2,34.59C212-383.66,208.91-370,195-364.32c-10.36,4.23-22.32,2.17-35.87-.16-25.91-4.44-34.54-5.61-34.54-5.61v90.49l129,3.37c2.49,3.62.17,8.87-4,18.38-5.43,12.29-11.43,13.89-14.14,21.44-4.39,12.25,3.79,29.17,21.21,38.3,21.4,11.22,45.35,4.73,48.48,3.83,17.65-5.05,31.34-17.14,34.33-29.87,2.28-9.68-3.41-12.2-4-36-.25-9.51,1.76-14.89,6.06-19.45H472.1v-85.49s-22.85,7.21-53.88,7.66c-5.76.09-50.65.74-62.61-19.91-9-15.5,3.4-38.12,22.22-45.19,15-5.65,35.85-2,73.72,4.59,13.06,2.28,18.57,2.74,18.57,2.74l2-100.29Z"/></clipPath><radialGradient id="radial-gradient-4" cx="324.93" cy="-157.76" r="169.69" xlink:href="#radial-gradient"/><radialGradient id="radial-gradient-5" cx="852.02" cy="-165.31" r="173.05" xlink:href="#radial-gradient"/><radialGradient id="radial-gradient-6" cx="369.07" cy="74.25" r="149.76" xlink:href="#radial-gradient"/><radialGradient id="radial-gradient-7" cx="588.47" cy="33.93" r="145.62" xlink:href="#radial-gradient"/><radialGradient id="radial-gradient-8" cx="807.51" cy="74.73" r="151.33" xlink:href="#radial-gradient"/><clipPath id="clip-path-3"><path class="cls-1" d="M767.75-484.16s-2.09,25.27,0,46.24v53.62s-5.39.54-20.55-2.3c-24.94-4.68-37.41-7-46.44-7-6.19,0-29.29.15-43.14,13.51-9.35,9-13.18,22.86-6.36,34.06,10.89,17.89,43,19.33,51.52,19.72a136,136,0,0,0,44.12-5.37c8.81-5.06,20.85-5.16,20.85-5.16v88.56H889.59a39.34,39.34,0,0,0,11.11-22.68c.74-11.23-5.87-14.84-7.07-26-.15-1.41-1.91-21,14.14-32.94,19.93-14.83,61.07-13.15,75.74,2.3,9.78,10.29,5.84,24.66,5,27.57-4.79,17.47-21.56,22-19.77,35.81,1.12,8.7,10.68,16,10.68,16h135.75q1-91.67,2-183.33a49.47,49.47,0,0,0-3-20.46,47.44,47.44,0,0,0-7.51-13.29A48,48,0,0,0,1088.07-479c-7.39-3.29-13.64-4.09-20.17-4.93a99.27,99.27,0,0,0-15.32-.76Z"/></clipPath><radialGradient id="radial-gradient-9" cx="549.17" cy="-126.43" r="169.69" xlink:href="#radial-gradient"/><radialGradient id="radial-gradient-10" cx="593.31" cy="105.58" r="149.76" xlink:href="#radial-gradient"/><radialGradient id="radial-gradient-11" cx="812.72" cy="65.27" r="145.62" xlink:href="#radial-gradient"/><clipPath id="clip-path-4"><path class="cls-1" d="M-481.54,16.92h129.06S-372.74-6.77-365.61-28c6.07-18,32.08-27,36-28.36,8.9-3.07,25-8.63,41.42-3.16A37.51,37.51,0,0,1-263-30.84c1,6.3-.77,11.24-4.2,21.12-6.77,19.48-11.59,26.64-11.59,26.64h144.69v97.57s-19.58-7.84-48.75-9.19c-11.09-.51-40-1.85-53.52,13-9.69,10.67-8.73,26.66,1,36.77,12.28,12.76,35.84,13.33,54.53,13.79,28.89.7,46.73-2.3,46.73-2.3v86.23H-255.53s20,31.36,10.1,57c-5,13-19.45,23.61-35.35,27.58-26.9,6.72-59.93-5-71.7-22.22-16.62-24.27-4-62.36-4-62.36h-125Z"/></clipPath><radialGradient id="radial-gradient-12" cx="392.26" cy="-57.03" r="147.63" xlink:href="#radial-gradient"/><radialGradient id="radial-gradient-13" cx="611.1" cy="-101.32" r="151.13" xlink:href="#radial-gradient"/><radialGradient id="radial-gradient-14" cx="396.84" cy="134.87" r="175.93" xlink:href="#radial-gradient"/><radialGradient id="radial-gradient-15" cx="655.81" cy="131.2" r="173.05" xlink:href="#radial-gradient"/><radialGradient id="radial-gradient-16" cx="392.26" cy="330.45" r="145.62" xlink:href="#radial-gradient"/><radialGradient id="radial-gradient-17" cx="611.3" cy="371.25" r="151.33" xlink:href="#radial-gradient"/><radialGradient id="radial-gradient-18" cx="588.47" cy="125.9" r="175.93" xlink:href="#radial-gradient"/><clipPath id="clip-path-5"><path class="cls-1" d="M118.59,8v97.58s-17.21-7-48.75-9.2c-14-1-30.4-2-43.93,6-1.61.94-16.08,9.73-16.37,23.86-.4,19.56,26.8,30,28.07,30.48,10.35,3.83,19.66,3.67,38.3,3.34,30.66-.53,42.68-2.37,42.68-2.37v86.24h127s-22.69-18-22.21-38c.4-16.83,19.87-31.84,39.38-38.3,3.25-1.08,34.65-11,61.6,3.06,18.24,9.52,31.05,28.26,24.24,46.73-6.39,17.34-26.69,25.15-30.3,26.49h147.8V153.78s16.72,6.37,48.12,10.72c14.17,2,31.73,4.4,44.43-.76,27.9-11.34,37.53-51.63,19.19-65.11-24.7-18.14-70.87-9.1-73.72-8.42-23.43,5.52-38,13-38,13V8H335.43s-5.84,19.6-5.94,22.54c-.6,16.21,6.95,21,3.92,32.91C330.18,76.15,318.2,84.19,315,86.19c-1.12.7-25.81,15.73-54,7.37-13.9-4.11-28-13.72-30.84-25.74-1.21-5.23.42-7.86,9.18-30.53,8.95-23.17,8.24-26,8.24-26Z"/></clipPath><radialGradient id="radial-gradient-19" cx="583.89" cy="-66" r="147.63" xlink:href="#radial-gradient"/><radialGradient id="radial-gradient-20" cx="802.73" cy="-110.29" r="151.13" xlink:href="#radial-gradient"/><radialGradient id="radial-gradient-21" cx="354.23" cy="-110" r="144.01" xlink:href="#radial-gradient"/><radialGradient id="radial-gradient-22" cx="320.35" cy="129.78" r="169.69" xlink:href="#radial-gradient"/><radialGradient id="radial-gradient-23" cx="847.44" cy="122.23" r="173.05" xlink:href="#radial-gradient"/><radialGradient id="radial-gradient-24" cx="364.49" cy="361.79" r="149.76" xlink:href="#radial-gradient"/><radialGradient id="radial-gradient-25" cx="583.89" cy="321.48" r="145.62" xlink:href="#radial-gradient"/><radialGradient id="radial-gradient-26" cx="802.93" cy="362.28" r="151.33" xlink:href="#radial-gradient"/><clipPath id="clip-path-6"><path class="cls-1" d="M760.68,11.61H882.52s10.87-16.75,11.1-22.68c.69-11.15-6-14.08-7.07-26-.35-3.89-1.81-20,12.7-31.8C916-82.56,941.27-80.34,944.9-80c6.19.62,22,2.2,31.53,12.22,10.77,11.37,5.8,25.57,5.05,27.58-4,10.83-12.2,11.28-17.19,25.29-3,8.52-1.85,13.48-.51,16.54l8.61,10h135.75v235.9H987.54c0,8.92.07,21.61,0,38.62,0,7.11-.11,12.13-3,18.38a45.27,45.27,0,0,1-19.19,19.91c-19.69,10.82-51.84,10.63-70.69-3.06-19.56-14.22-16-36.61-15.83-37.69.61-3.41,1.73-5.1,3.72-14.4,2.05-9.65,4.05-21.77,4-21.77H760.68V157.44s15.33,5.41,48.12,10.73c17,2.75,26.14,4.14,36.82,1.39,21.86-5.64,30.57-23.57,32.43-27.82,1.25-2.86,10.79-24.7-5.63-39.44-16.23-14.57-46.16-11.74-55.56-10.85-33.72,3.19-56.18,15.44-56.18,15.44Z"/></clipPath><radialGradient id="radial-gradient-27" cx="807.35" cy="-62.33" r="147.63" xlink:href="#radial-gradient"/><radialGradient id="radial-gradient-28" cx="577.69" cy="-106.33" r="144.01" xlink:href="#radial-gradient"/><radialGradient id="radial-gradient-29" cx="543.81" cy="133.45" r="169.69" xlink:href="#radial-gradient"/><radialGradient id="radial-gradient-30" cx="811.94" cy="129.56" r="175.93" xlink:href="#radial-gradient"/><radialGradient id="radial-gradient-31" cx="587.95" cy="365.46" r="149.76" xlink:href="#radial-gradient"/><radialGradient id="radial-gradient-32" cx="807.35" cy="325.14" r="145.62" xlink:href="#radial-gradient"/><clipPath id="clip-path-7"><path class="cls-1" d="M-499.4,501.94V687.46s2.18,20.14,15.32,32.18c11.91,10.92,28,15.09,30.47,15.72A103.27,103.27,0,0,0-433,737.84h281.05V654.69s24.62-.68,31,.76a61.56,61.56,0,0,1,11.61,3.74c12,5.31,17.39,9,21.72,10.81,15.35,6.57,48-6,51.69-28.39,3.3-19.93-17.49-40.49-35.85-43.15-15.65-2.28-23,9.4-50.18,12.57a108,108,0,0,1-30-.77V501.94H-273.4s13.51,17.81,12.81,40.16c-.11,3.7-.86,27.93-26.09,40-19.66,9.44-43.83,6.57-59.64-.06-17.8-7.47-25.13-19.76-27.46-23.81-8.85-15.43-5.77-31.61-4.18-40,2.21-11.6,3.57-16.36,3.57-16.36Z"/></clipPath><radialGradient id="radial-gradient-33" cx="378.71" cy="192.1" r="147.63" xlink:href="#radial-gradient"/><radialGradient id="radial-gradient-34" cx="597.54" cy="147.81" r="151.13" xlink:href="#radial-gradient"/><radialGradient id="radial-gradient-35" cx="642.25" cy="380.33" r="173.05" xlink:href="#radial-gradient"/><clipPath id="clip-path-8"><path class="cls-1" d="M112.64,480.83h127a56.52,56.52,0,0,1-18.15-22c-7.71-17.33,3.33-33.5,4.09-34.58,15.76-22.26,51-23.86,55.25-24,6-.19,22-.54,37.58,7.35,1.59.8,27,14.15,26.08,36.74a36.29,36.29,0,0,1-12.86,25.26,59.38,59.38,0,0,1-19.28,11.21h147.8V595.28a41.55,41.55,0,0,1-15.88,1.1c-8.29-1.12-13.25-4.72-18.81-8-4-2.33-18.59-11-31.31-13-15.82-2.54-36.23,3.9-47.18,16.4-1.58,1.81-12.42,14.65-6.34,30.32,5.42,14,21.55,23.06,36.35,25.28,17.42,2.62,35.87-3.79,40.4-5.36,5.27-1.83,7.7-3.24,13.3-4.29,11.48-2.16,22.09-.15,29.47,2v77H112.64V633.57s28.67.2,31,.77a53.67,53.67,0,0,1,9.74,3.28c13.92,6.34,16.7,9,23.58,11.27,16.81,5.59,33.78-5.2,35-6,3.92-2.57,14.65-9.61,16.72-22.41,1.63-10.08-3-18.11-5.36-22.18-2.19-3.81-8.58-13.45-20.56-17.93-15.77-5.88-32,.64-35.23,1.94a174.23,174.23,0,0,1-18.7,6.28,55.71,55.71,0,0,1-6.17,1.3c-11.88,1.88-30-.76-30-.76Z"/></clipPath><radialGradient id="radial-gradient-36" cx="579.38" cy="170.99" r="147.63" xlink:href="#radial-gradient"/><radialGradient id="radial-gradient-37" cx="798.22" cy="126.7" r="151.13" xlink:href="#radial-gradient"/><radialGradient id="radial-gradient-38" cx="349.72" cy="126.99" r="144.01" xlink:href="#radial-gradient"/><radialGradient id="radial-gradient-39" cx="315.83" cy="366.77" r="169.69" xlink:href="#radial-gradient"/><radialGradient id="radial-gradient-40" cx="583.96" cy="362.88" r="175.93" xlink:href="#radial-gradient"/><radialGradient id="radial-gradient-41" cx="842.93" cy="359.22" r="173.05" xlink:href="#radial-gradient"/><clipPath id="clip-path-9"><path class="cls-1" d="M741,501.45V615.9S726,617.1,725.15,617c-13.12-1.47-17.31-8.22-29.74-13.93-3.81-1.75-20.44-9.38-38.61-6.48-16.68,2.67-30.36,13.51-35.06,25.92a29.17,29.17,0,0,0,3.57,27.11A40.79,40.79,0,0,0,639,661.49c17.74,9.69,38.55,6.34,41.18,5.89,5.29-.92,3.51-1.33,21.72-6.11,11.77-3.09,15.84-3.79,20.65-3.85,8.41-.12,18.45,2.91,18.45,2.91v77c157,.36,289.79,1,289.79,1a75.67,75.67,0,0,0,19-2.32c6.5-1.75,17.46-4.91,26.8-14.92a51.23,51.23,0,0,0,11.66-21.28,60,60,0,0,0,1.64-12.82l-1.43-185.53H967.89s.48,6.54,0,30.19c-.43,22.55-3.64,28.22-4.92,30.28-9,14.53-26.53,20.41-28.62,21.08a71.45,71.45,0,0,1-36.24,1.75c-18.74-4.1-31.15-15.32-36.28-26-1.16-2.4-4.92-11.37-2.7-21.14.61-2.71,3-11,3-11l4.8-25.14Z"/></clipPath><radialGradient id="radial-gradient-42" cx="791.57" cy="191.61" r="147.63" xlink:href="#radial-gradient"/><radialGradient id="radial-gradient-43" cx="561.9" cy="147.61" r="144.01" xlink:href="#radial-gradient"/><radialGradient id="radial-gradient-44" cx="528.02" cy="387.39" r="169.69" xlink:href="#radial-gradient"/></defs><g class="cls-2"><path class="cls-3" d="M222.1-261.36H343.94S354.81-278.11,355-284c.69-11.15-6-14.08-7.06-26-.36-3.89-1.82-19.95,12.69-31.8,16.71-13.65,42-11.43,45.65-11.06,6.2.62,22,2.2,31.53,12.22,10.78,11.37,5.8,25.57,5,27.58-4,10.83-12.19,11.28-17.19,25.29-3,8.52-1.85,13.48-.51,16.54l8.61,9.95H569.57v235.9H449c0,8.92.07,21.61,0,38.62,0,7.11-.1,12.13-3,18.38a45.29,45.29,0,0,1-19.18,19.91c-19.7,10.82-51.85,10.63-70.7-3.06-19.56-14.22-16-36.61-15.83-37.69.61-3.41,1.74-5.1,3.72-14.4,2.05-9.64,4.06-21.77,4-21.77H222.1v-90.07s15.33,5.41,48.12,10.73c17,2.75,26.14,4.14,36.83,1.39C328.9-109,337.62-127,339.47-131.23c1.25-2.86,10.79-24.7-5.63-39.44-16.23-14.57-46.16-11.74-55.56-10.85-33.72,3.19-56.18,15.44-56.18,15.44Z"/><path class="cls-4" d="M-125.37-25.46h127a56.52,56.52,0,0,1-18.15-22c-7.71-17.33,3.33-33.5,4.09-34.58,15.76-22.26,51-23.86,55.25-24,6-.19,22-.54,37.58,7.35,1.59.8,27,14.15,26.08,36.74A36.29,36.29,0,0,1,93.58-36.67,59.38,59.38,0,0,1,74.3-25.46H222.1V89a41.55,41.55,0,0,1-15.88,1.1c-8.29-1.12-13.25-4.72-18.81-8-4-2.33-18.59-11-31.31-13-15.82-2.54-36.23,3.9-47.18,16.4-1.58,1.81-12.42,14.65-6.34,30.32,5.42,14,21.55,23,36.35,25.28,17.42,2.62,35.87-3.79,40.4-5.36,5.27-1.83,7.7-3.24,13.3-4.29,11.48-2.16,22.09-.15,29.47,2v77H-125.37V127.28s28.66.2,31,.77a53.67,53.67,0,0,1,9.74,3.28c13.92,6.33,16.7,9,23.58,11.27,16.81,5.59,33.78-5.2,35-6,3.92-2.57,14.65-9.61,16.72-22.41,1.63-10.08-3-18.11-5.36-22.18-2.19-3.81-8.58-13.46-20.56-17.93-15.77-5.88-32,.64-35.23,1.94a174.23,174.23,0,0,1-18.7,6.28,55.71,55.71,0,0,1-6.17,1.3c-11.88,1.88-30-.76-30-.76Z"/><path class="cls-5" d="M223.26-25.46V89s-15.06,1.19-15.88,1.1c-13.11-1.47-17.3-8.22-29.73-13.92-3.82-1.75-20.44-9.39-38.62-6.48-16.67,2.66-30.36,13.51-35,25.91a29.19,29.19,0,0,0,3.57,27.12,40.81,40.81,0,0,0,13.71,11.86c17.74,9.68,38.54,6.34,41.18,5.88,5.28-.92,3.5-1.33,21.71-6.1,11.77-3.09,15.85-3.79,20.66-3.86,8.41-.11,18.45,2.91,18.45,2.91v77c157,.36,289.79,1,289.79,1a76.21,76.21,0,0,0,19-2.32c6.5-1.76,17.46-4.92,26.79-14.92a51.26,51.26,0,0,0,11.66-21.29,59.57,59.57,0,0,0,1.65-12.82L570.73-25.46H450.12s.49,6.54,0,30.19c-.43,22.55-3.65,28.21-4.92,30.28-9,14.53-26.54,20.41-28.62,21.08a71.49,71.49,0,0,1-36.24,1.74c-18.74-4.09-31.15-15.32-36.28-26-1.16-2.41-4.93-11.37-2.7-21.15.61-2.7,2.95-11,2.95-11l4.8-25.14Z"/><path class="cls-6" d="M182.22-316c-11.34-12.34-41.95-42.24-90.07-50.82C18.35-379.94-37.27-332.36-48.1-323.1c-64.05,54.78-69.6,137.33-73,187.91-1.78,26.46-3.31,52.81,6.13,85.79C-110.42-33.5-88.8,42-18.21,74.67,49.87,106.18,145,89.12,191,24.09c24.63-34.78,41.57-93.92,13.79-140.26-36.34-60.61-132.52-53.32-183.94-36.78C-66-125-102.18-45-108.64-30"/></g><g class="cls-7"><path class="cls-8" d="M-222.84-279.6H-93.78s-20.27-23.68-13.13-44.89c6.07-18,32.08-27,36-28.35,8.9-3.08,25-8.64,41.42-3.17A37.53,37.53,0,0,1-4.27-327.36c.94,6.31-.77,11.25-4.21,21.13-6.76,19.48-11.58,26.63-11.58,26.63H124.63V-182s-19.58-7.84-48.75-9.19c-11.09-.52-40-1.85-53.53,13-9.68,10.66-8.72,26.66,1,36.76C35.65-128.67,59.2-128.1,77.9-127.64c28.89.71,46.73-2.3,46.73-2.3V-43.7H3.17s20,31.35,10.09,57c-5,13-19.44,23.6-35.34,27.57C-49,47.59-82,35.83-93.78,18.66c-16.63-24.28-4-62.36-4-62.36h-125Z"/><path class="cls-9" d="M472.1-279.6H593.94s10.87-16.75,11.1-22.68c.69-11.15-6-14.09-7.06-26-.36-3.89-1.82-19.95,12.69-31.8,16.71-13.65,42-11.43,45.65-11.06,6.2.62,22,2.2,31.53,12.22,10.78,11.36,5.8,25.56,5,27.58-4,10.83-12.19,11.28-17.19,25.29-3,8.52-1.85,13.48-.51,16.54l8.61,9.95H819.57V-43.7H699c0,8.92.07,21.61,0,38.61,0,7.12-.1,12.14-3,18.39a45.29,45.29,0,0,1-19.18,19.91c-19.7,10.82-51.85,10.63-70.7-3.06C586.49,15.93,590-6.47,590.22-7.54c.61-3.42,1.74-5.11,3.72-14.4,2-9.65,4.06-21.77,4-21.77H472.1v-90.07s15.33,5.41,48.12,10.73c17,2.75,26.14,4.14,36.83,1.39,21.85-5.64,30.57-23.57,32.42-27.82,1.25-2.86,10.79-24.71-5.63-39.45-16.23-14.56-46.16-11.73-55.56-10.84-33.72,3.19-56.18,15.44-56.18,15.44Z"/><path class="cls-10" d="M-222.84-43.7V141.82S-220.65,162-207.52,174c11.91,10.92,28,15.09,30.47,15.71a102.5,102.5,0,0,0,20.63,2.48h281V109s24.61-.68,31,.77a62.47,62.47,0,0,1,11.6,3.73c12,5.31,17.4,9,21.72,10.82,15.36,6.56,48-6,51.69-28.4C244,76,223.18,55.48,204.83,52.81c-15.66-2.27-23.05,9.41-50.18,12.57a107.63,107.63,0,0,1-30-.76V-43.7H3.17S16.67-25.89,16-3.55c-.12,3.7-.87,27.93-26.1,40.05-19.65,9.45-43.83,6.57-59.64-.06C-87.56,29-94.88,16.69-97.21,12.64c-8.86-15.43-5.78-31.61-4.19-40,2.21-11.6,3.57-16.36,3.57-16.36Z"/><path class="cls-11" d="M124.63-43.7h127a56.52,56.52,0,0,1-18.15-22c-7.71-17.33,3.33-33.5,4.09-34.58,15.76-22.27,51-23.86,55.25-24,6-.19,22-.55,37.58,7.34,1.59.81,27,14.16,26.08,36.75a36.26,36.26,0,0,1-12.86,25.25A59.3,59.3,0,0,1,324.3-43.7H472.1V70.74a41.32,41.32,0,0,1-15.88,1.11c-8.29-1.12-13.25-4.72-18.81-8-4-2.34-18.59-11-31.31-13-15.82-2.55-36.23,3.9-47.18,16.4-1.58,1.81-12.42,14.65-6.34,30.32,5.42,14,21.55,23,36.35,25.28,17.42,2.62,35.87-3.79,40.4-5.36,5.27-1.83,7.7-3.24,13.3-4.3,11.48-2.16,22.09-.14,29.47,2v77H124.63V109s28.66.2,31,.77a53.67,53.67,0,0,1,9.74,3.28c13.92,6.33,16.7,9,23.58,11.27,16.81,5.59,33.78-5.2,35-6,3.92-2.57,14.65-9.61,16.72-22.42,1.63-10.07-3-18.1-5.36-22.18-2.19-3.8-8.58-13.45-20.56-17.92-15.77-5.89-32,.64-35.23,1.93a169.62,169.62,0,0,1-18.7,6.28,53.31,53.31,0,0,1-6.17,1.31c-11.88,1.88-30-.76-30-.76Z"/><path class="cls-12" d="M473.26-43.7V70.74s-15.06,1.2-15.88,1.11c-13.11-1.47-17.3-8.22-29.73-13.92-3.82-1.76-20.44-9.39-38.62-6.48C372.36,54.11,358.67,65,354,77.36a29.19,29.19,0,0,0,3.57,27.12,40.81,40.81,0,0,0,13.71,11.86c17.74,9.68,38.54,6.34,41.18,5.88,5.28-.92,3.5-1.33,21.71-6.1,11.77-3.09,15.85-3.79,20.66-3.86,8.41-.11,18.45,2.91,18.45,2.91v77c157,.37,289.79,1,289.79,1a75.93,75.93,0,0,0,19-2.31c6.5-1.76,17.46-4.92,26.79-14.92a51.26,51.26,0,0,0,11.66-21.29,59.57,59.57,0,0,0,1.65-12.82L820.73-43.7H700.12s.49,6.54,0,30.19C699.72,9,696.5,14.7,695.23,16.77c-9,14.53-26.54,20.4-28.62,21.07a71.45,71.45,0,0,1-36.24,1.75c-18.74-4.1-31.15-15.32-36.28-26-1.16-2.41-4.93-11.38-2.7-21.15.61-2.7,3-11,3-11l4.8-25.14Z"/><path class="cls-6" d="M432.22-334.2c-11.34-12.34-42-42.25-90.07-50.82-73.8-13.16-129.42,34.42-140.25,43.68-64.05,54.78-69.6,137.33-73,187.91-1.78,26.46-3.31,52.81,6.13,85.78,4.55,15.91,26.17,91.41,96.76,124.08C299.87,87.94,395,70.87,441,5.84c24.63-34.77,41.57-93.91,13.79-140.25C418.47-195,322.29-187.73,270.87-171.2c-86.84,27.93-123,108-129.51,123"/></g><g class="cls-13"><path class="cls-14" d="M72.81-248.26H201.87s-20.27-23.69-13.13-44.9c6.07-18,32.08-27,36-28.35,8.9-3.07,25-8.63,41.42-3.17A37.52,37.52,0,0,1,291.38-296c.95,6.3-.77,11.24-4.2,21.12-6.77,19.48-11.59,26.64-11.59,26.64H420.28v97.57s-19.58-7.84-48.75-9.19c-11.09-.51-40-1.85-53.52,13-9.69,10.66-8.73,26.66,1,36.77,12.28,12.76,35.84,13.33,54.53,13.79,28.89.7,46.73-2.3,46.73-2.3v86.23H298.82s20,31.35,10.1,57c-5,13-19.45,23.61-35.35,27.58-26.9,6.71-59.94-5-71.7-22.22-16.63-24.27-4-62.36-4-62.36h-125Z"/><path class="cls-15" d="M72.81-12.37V173.16S75,193.29,88.14,205.34c11.9,10.91,28,15.08,30.46,15.71a103.33,103.33,0,0,0,20.63,2.48h281V140.38s24.61-.68,31,.76a62.17,62.17,0,0,1,11.6,3.74c12,5.31,17.4,9,21.72,10.82,15.36,6.56,48-6,51.7-28.4,3.3-19.93-17.5-40.49-35.85-43.15-15.65-2.28-23.05,9.4-50.18,12.57a108,108,0,0,1-30-.77V-12.37H298.82s13.51,17.81,12.81,40.16c-.11,3.7-.87,27.93-26.1,40.05-19.65,9.44-43.82,6.57-59.64-.06C208.09,60.31,200.77,48,198.44,44c-8.85-15.43-5.78-31.61-4.18-40,2.2-11.59,3.57-16.36,3.57-16.36Z"/><path class="cls-16" d="M420.28-12.37h127a56.54,56.54,0,0,1-18.15-22c-7.71-17.33,3.33-33.51,4.09-34.59,15.76-22.26,51-23.86,55.25-24,6-.2,22-.55,37.58,7.34,1.59.81,27,14.16,26.08,36.75a36.27,36.27,0,0,1-12.86,25.25A59.38,59.38,0,0,1,620-12.37h147.8V102.08a41.52,41.52,0,0,1-15.88,1.11c-8.29-1.12-13.25-4.72-18.81-8-4-2.33-18.59-11-31.31-13-15.82-2.54-36.23,3.9-47.18,16.41-1.58,1.81-12.41,14.65-6.34,30.32,5.43,14,21.55,23.05,36.36,25.27,17.41,2.62,35.86-3.78,40.39-5.36,5.27-1.83,7.7-3.24,13.3-4.29,11.48-2.16,22.1-.15,29.47,2v77H420.28V140.38s28.67.19,31,.76a54.07,54.07,0,0,1,9.75,3.28c13.92,6.34,16.69,9,23.57,11.28,16.81,5.59,33.78-5.21,35-6,3.92-2.57,14.66-9.61,16.73-22.41,1.63-10.08-3-18.11-5.36-22.18-2.2-3.81-8.59-13.45-20.56-17.92-15.78-5.89-32,.63-35.24,1.93a171.44,171.44,0,0,1-18.69,6.28,55.72,55.72,0,0,1-6.18,1.31c-11.87,1.87-30-.77-30-.77Z"/><path class="cls-6" d="M727.87-302.86c-11.34-12.35-41.94-42.25-90.07-50.83C564-366.84,508.38-319.27,497.55-310c-64.05,54.77-69.6,137.32-73,187.9-1.77,26.46-3.31,52.82,6.13,85.79,4.55,15.9,26.17,91.4,96.76,124.07,68.08,31.51,163.16,14.45,209.23-50.58C761.3,2.4,778.24-56.73,750.46-103.07c-36.34-60.62-132.52-53.33-183.93-36.79-86.85,27.93-123.06,108-129.52,123"/></g><g class="cls-17"><path class="cls-18" d="M-134.07-219c0,80.71,4.43,90.43,4.43,90.43a177,177,0,0,0,23.7-1.5c19.25-2.4,22.47-2.54,26.12-2.39,6.47.26,15.75.63,23.23,4.89,16.85,9.59,11.87,31.66,11.2,34.6-1.31,5.81-4.4,19.49-18.27,25.15C-74-63.58-86-65.63-99.52-68c-25.91-4.45-34.55-5.62-34.55-5.62v90.5l129,3.36c2.48,3.63.16,8.87-4,18.38C-14.56,51-20.55,52.56-23.26,60.11-27.65,72.35-19.48,89.27-2,98.41c21.4,11.22,45.34,4.72,48.47,3.83,17.66-5,31.34-17.15,34.33-29.87,2.28-9.68-3.4-12.2-4-36-.26-9.51,1.75-14.89,6-19.45H213.4V-68.57s-22.84,7.21-53.88,7.66c-5.75.08-50.64.73-62.61-19.92-9-15.49,3.41-38.12,22.22-45.19,15-5.64,35.86-2,73.72,4.6,13.07,2.28,18.57,2.74,18.57,2.74l2-100.3Z"/><path class="cls-19" d="M213.4-219s-2.09,25.27,0,46.24v53.62s-5.39.54-20.55-2.3c-24.94-4.68-37.41-7-46.44-7-6.18,0-29.29.15-43.14,13.52-9.35,9-13.18,22.85-6.36,34.05,10.9,17.89,43,19.33,51.52,19.72a136.17,136.17,0,0,0,44.12-5.36c8.81-5.07,20.85-5.16,20.85-5.16V16.92H335.24A39.34,39.34,0,0,0,346.35-5.76c.74-11.23-5.86-14.84-7.07-26-.15-1.4-1.91-21,14.14-32.94,19.93-14.83,61.07-13.14,75.74,2.3,9.78,10.29,5.85,24.66,5,27.57-4.79,17.47-21.56,22-19.77,35.81,1.12,8.7,10.68,16,10.68,16H560.87q1-91.66,2-183.33a49.42,49.42,0,0,0-3-20.46,47.7,47.7,0,0,0-7.51-13.29,48.07,48.07,0,0,0-18.63-13.67c-7.39-3.29-13.64-4.09-20.17-4.92a98.22,98.22,0,0,0-15.32-.77Z"/><path class="cls-20" d="M-134.07,16.92v97.57s-17.2-6.94-48.75-9.19c-14-1-30.39-2-43.92,6-1.61.94-16.09,9.73-16.38,23.85-.4,19.57,26.8,30,28.07,30.49,10.35,3.83,19.67,3.67,38.31,3.34,30.65-.53,42.67-2.37,42.67-2.37v86.23h127s-22.7-18-22.22-38C-28.92,198-9.45,183,10.06,176.54c3.26-1.08,34.65-11,61.61,3.06,18.24,9.52,31,28.26,24.23,46.72-6.39,17.34-26.69,25.16-30.29,26.49H213.4V162.75s16.72,6.37,48.12,10.72c14.17,2,31.73,4.4,44.43-.76,27.9-11.34,37.53-51.63,19.19-65.11-24.69-18.14-70.87-9.1-73.72-8.43-23.42,5.53-38,13-38,13V16.92H82.77s-5.83,19.6-5.94,22.53c-.59,16.22,7,21,3.92,32.92C77.53,85.12,65.54,93.16,62.37,95.15c-1.12.71-25.8,15.74-54,7.38-13.9-4.12-28-13.72-30.83-25.74-1.22-5.24.42-7.86,9.17-30.53,9-23.18,8.25-26,8.25-26Z"/><path class="cls-21" d="M213.4,16.92H335.24S346.12.16,346.35-5.76c.69-11.15-6-14.09-7.07-26-.35-3.9-1.81-20,12.69-31.81C368.68-77.25,394-75,397.63-74.67c6.19.62,22,2.21,31.53,12.23,10.77,11.36,5.8,25.56,5,27.57C430.18-24,422-23.58,417-9.57c-3,8.51-1.85,13.48-.5,16.53l8.61,10H560.87V252.81H440.27c0,8.93.06,21.62,0,38.62,0,7.11-.11,12.13-3,18.38a45.29,45.29,0,0,1-19.19,19.92c-19.69,10.82-51.85,10.62-70.69-3.07-19.57-14.21-16-36.61-15.83-37.68.61-3.42,1.73-5.11,3.71-14.4,2.06-9.65,4.06-21.77,4-21.77H213.4V162.75s15.34,5.41,48.12,10.72c17,2.76,26.14,4.15,36.83,1.39,21.86-5.63,30.57-23.56,32.43-27.81,1.25-2.87,10.79-24.71-5.64-39.45C308.91,93,279,95.87,269.59,96.75c-33.72,3.19-56.19,15.45-56.19,15.45Z"/><path class="cls-22" d="M-134.07,252.81h127a56.51,56.51,0,0,1-18.16-22c-7.71-17.33,3.33-33.51,4.1-34.59,15.76-22.26,51-23.86,55.25-24,6-.2,22-.55,37.58,7.34,1.59.81,27,14.16,26.08,36.75A36.3,36.3,0,0,1,84.89,241.6a59.49,59.49,0,0,1-19.28,11.21H213.4V367.26a41.52,41.52,0,0,1-15.88,1.11c-8.29-1.12-13.25-4.72-18.81-8-4-2.34-18.58-11-31.3-13-15.83-2.55-36.24,3.89-47.18,16.4-1.59,1.81-12.42,14.65-6.35,30.32,5.43,14,21.55,23.05,36.36,25.28,17.42,2.61,35.86-3.79,40.39-5.37,5.28-1.83,7.7-3.24,13.3-4.29,11.49-2.16,22.1-.15,29.47,2v77H-134.07V405.56s28.67.19,31,.76a53.8,53.8,0,0,1,9.75,3.28c13.92,6.34,16.69,9,23.57,11.28,16.81,5.59,33.79-5.21,35-6,3.93-2.58,14.66-9.61,16.73-22.42,1.63-10.07-3-18.11-5.36-22.18-2.2-3.81-8.58-13.45-20.56-17.92-15.77-5.89-32,.63-35.23,1.93a171.9,171.9,0,0,1-18.7,6.28A53.52,53.52,0,0,1-104,361.9c-11.87,1.88-30-.77-30-.77Z"/><path class="cls-23" d="M214.56,252.81V367.26s-15.06,1.2-15.87,1.11c-13.12-1.47-17.31-8.22-29.74-13.93-3.81-1.75-20.44-9.38-38.61-6.48-16.68,2.67-30.36,13.51-35.06,25.92A29.21,29.21,0,0,0,98.85,401a40.79,40.79,0,0,0,13.71,11.86c17.74,9.69,38.55,6.34,41.18,5.89,5.29-.92,3.51-1.33,21.72-6.11,11.77-3.09,15.84-3.79,20.65-3.85,8.41-.12,18.45,2.91,18.45,2.91v77c157,.36,289.79,1,289.79,1a75.67,75.67,0,0,0,19-2.32c6.5-1.75,17.46-4.91,26.8-14.92a51.23,51.23,0,0,0,11.66-21.28,60,60,0,0,0,1.64-12.82L562,252.81H441.43s.48,6.54,0,30.19c-.44,22.55-3.65,28.22-4.93,30.28-9,14.53-26.53,20.41-28.62,21.08a71.43,71.43,0,0,1-36.24,1.75c-18.74-4.1-31.14-15.32-36.28-26-1.16-2.4-4.92-11.37-2.7-21.14.62-2.71,2.95-11,2.95-11l4.8-25.14Z"/><path class="cls-6" d="M173.53-37.68C162.18-50,131.58-79.93,83.45-88.51,9.66-101.66-46-54.09-56.8-44.82c-64,54.78-69.59,137.32-73,187.9-1.78,26.47-3.32,52.82,6.12,85.79,4.56,15.9,26.17,91.4,96.76,124.07,68.08,31.51,163.16,14.45,209.23-50.58,24.64-34.77,41.58-93.91,13.8-140.25C159.77,101.49,63.6,108.78,12.18,125.32c-86.84,27.93-123,108-129.51,123"/></g><path class="cls-24" d="M118.59,8v97.58s-17.21-7-48.75-9.2c-14-1-30.4-2-43.93,6-1.61.94-16.08,9.73-16.37,23.86-.4,19.56,26.8,30,28.07,30.48,10.35,3.83,19.66,3.67,38.3,3.34,30.66-.53,42.68-2.37,42.68-2.37v86.24h127s-22.69-18-22.21-38c.4-16.83,19.87-31.84,39.38-38.3,3.25-1.08,34.65-11,61.6,3.06,18.24,9.52,31.05,28.26,24.24,46.73-6.39,17.34-26.69,25.15-30.3,26.49h147.8V153.78s16.72,6.37,48.12,10.72c14.17,2,31.73,4.4,44.43-.76,27.9-11.34,37.53-51.63,19.19-65.11-24.7-18.14-70.87-9.1-73.72-8.42-23.43,5.52-38,13-38,13V8H335.43s-5.84,19.6-5.94,22.54c-.6,16.21,6.95,21,3.92,32.91C330.18,76.15,318.2,84.19,315,86.19c-1.12.7-25.81,15.73-54,7.37-13.9-4.11-28-13.72-30.84-25.74-1.21-5.23.42-7.86,9.18-30.53,8.95-23.17,8.24-26,8.24-26Z"/><g class="cls-25"><path class="cls-26" d="M118.59-227.95c0,80.71,4.43,90.44,4.43,90.44a178.36,178.36,0,0,0,23.7-1.51c19.25-2.4,22.46-2.54,26.12-2.39,6.47.26,15.75.64,23.23,4.89,16.85,9.59,11.86,31.66,11.2,34.6C206-96.11,202.87-82.43,189-76.77c-10.36,4.22-22.32,2.17-35.87-.16-25.91-4.45-34.54-5.61-34.54-5.61V8l129,3.36c2.49,3.63.17,8.87-4,18.39C238.1,42,232.1,43.59,229.4,51.14c-4.39,12.25,3.78,29.16,21.2,38.3,21.4,11.22,45.35,4.73,48.48,3.83,17.65-5,31.34-17.15,34.33-29.87,2.28-9.68-3.41-12.2-4-36-.25-9.51,1.76-14.89,6.06-19.45H466.06V-77.54s-22.85,7.21-53.88,7.66c-5.75.09-50.65.74-62.61-19.91-9-15.5,3.4-38.12,22.22-45.19,15-5.65,35.85-2,73.72,4.59,13.07,2.28,18.57,2.74,18.57,2.74l2-100.3Z"/><path class="cls-27" d="M466.06-227.95s-2.09,25.27,0,46.24v53.62s-5.39.55-20.55-2.3c-24.94-4.68-37.41-7-46.45-7-6.18,0-29.28.14-43.13,13.51-9.35,9-13.18,22.85-6.36,34.06,10.89,17.88,43,19.33,51.52,19.71a136.29,136.29,0,0,0,44.12-5.36c8.81-5.07,20.85-5.16,20.85-5.16V8H587.9A39.34,39.34,0,0,0,599-14.73c.74-11.22-5.87-14.83-7.07-26-.15-1.4-1.91-21,14.13-32.94,19.94-14.83,61.08-13.14,75.74,2.3,9.79,10.3,5.85,24.66,5.05,27.57-4.78,17.47-21.55,22-19.76,35.82C668.22.67,677.78,8,677.78,8H813.53q1-91.66,2-183.33a49.47,49.47,0,0,0-3-20.46A47.44,47.44,0,0,0,805-209.13a48.06,48.06,0,0,0-18.62-13.67c-7.39-3.28-13.64-4.09-20.17-4.92a99.53,99.53,0,0,0-15.32-.77Z"/><path class="cls-28" d="M-158.61-227.95s-23.58,1-40.38,9.68c-3.22,1.66-21.52,11.4-28.11,29.08-3.67,9.85-1.78,20.5-1.78,20.5V8H-99.82s-20-24-13.13-44.89C-106.6-56.29-77.62-65.16-74.57-66c8.18-2.4,28.14-8.26,45.44,0C-9.35-56.61-9.86-35.74-9.94-33.88c-.21,4.94-3.17,12-9.09,26C-21.83-1.18-24.35,4.27-26.1,8H118.59V-82.54s8.48,2,34.54,5.61c16.91,2.38,25.5,3.52,32.39,1.33,19.63-6.25,22.37-29,22.59-31.12.44-4.26,2.21-21.38-12-29.8-8.77-5.18-19.62-4.7-39.38-3.83-24,1.06-33.67,2.84-33.67,2.84l-4.43-90.44Z"/><path class="cls-29" d="M-228.88,8H-99.82s-20.27-23.68-13.13-44.89c6.07-18,32.08-27,36-28.36,8.9-3.07,25-8.63,41.42-3.16A37.51,37.51,0,0,1-10.31-39.81c1,6.3-.77,11.24-4.2,21.13C-21.28.79-26.1,8-26.1,8H118.59v97.58S99,97.68,69.84,96.33c-11.09-.51-40-1.85-53.53,13C6.63,120,7.59,136,17.32,146.12c12.29,12.76,35.84,13.33,54.54,13.79,28.89.7,46.73-2.3,46.73-2.3v86.24H-2.87s20,31.35,10.1,57c-5,13-19.45,23.61-35.35,27.58-26.91,6.72-59.94-5-71.7-22.21-16.63-24.28-4.05-62.36-4.05-62.36h-125Z"/><path class="cls-30" d="M466.06,8H587.9S598.77-8.81,599-14.73c.68-11.15-6-14.09-7.07-26-.36-3.9-1.82-19.95,12.69-31.8,16.71-13.65,42-11.43,45.65-11.07,6.2.62,22,2.21,31.53,12.23,10.78,11.36,5.8,25.56,5.05,27.57-4,10.84-12.19,11.29-17.19,25.3-3,8.51-1.85,13.48-.51,16.54l8.62,10H813.53v235.9H692.92c0,8.92.07,21.61,0,38.61,0,7.11-.1,12.14-3,18.38a45.24,45.24,0,0,1-19.18,19.92C651,331.58,618.86,331.39,600,317.7c-19.57-14.22-16-36.62-15.84-37.69.61-3.42,1.74-5.11,3.72-14.4,2.05-9.65,4.06-21.77,4-21.77H466.06V153.78s15.33,5.41,48.12,10.72c17,2.76,26.14,4.15,36.83,1.39,21.85-5.63,30.57-23.56,32.42-27.81,1.26-2.87,10.79-24.71-5.63-39.45-16.23-14.56-46.16-11.73-55.56-10.84-33.72,3.19-56.18,15.44-56.18,15.44Z"/><path class="cls-31" d="M-228.88,243.85V429.37s2.19,20.14,15.33,32.18c11.9,10.92,28,15.09,30.46,15.71a102.5,102.5,0,0,0,20.63,2.48H118.59V396.59s24.61-.68,31,.77a62.47,62.47,0,0,1,11.6,3.73c12.05,5.31,17.4,9,21.72,10.82,15.36,6.56,48-6,51.7-28.4,3.3-19.93-17.5-40.48-35.85-43.15-15.66-2.27-23,9.41-50.18,12.57a108,108,0,0,1-30-.77V243.85H-2.87S10.63,261.66,9.94,284c-.12,3.7-.87,27.93-26.1,40.05C-35.81,333.49-60,330.62-75.8,324c-17.8-7.47-25.12-19.75-27.45-23.81-8.85-15.43-5.78-31.6-4.18-40,2.2-11.59,3.56-16.35,3.56-16.35Z"/><path class="cls-32" d="M118.59,243.85h127a56.52,56.52,0,0,1-18.15-22c-7.71-17.33,3.33-33.5,4.09-34.58,15.76-22.27,51-23.86,55.25-24,6-.2,22-.55,37.58,7.34,1.59.81,27,14.16,26.08,36.75a36.26,36.26,0,0,1-12.86,25.25,59.3,59.3,0,0,1-19.28,11.22h147.8V358.29a41.52,41.52,0,0,1-15.88,1.11c-8.29-1.12-13.25-4.72-18.81-8-4-2.34-18.59-11-31.31-13-15.82-2.55-36.23,3.89-47.18,16.4-1.58,1.81-12.42,14.65-6.34,30.32,5.43,14,21.55,23,36.35,25.28,17.42,2.62,35.87-3.79,40.4-5.37,5.27-1.83,7.7-3.24,13.3-4.29,11.48-2.16,22.09-.15,29.47,2v77H118.59V396.59s28.67.2,31,.77a52.55,52.55,0,0,1,9.75,3.28c13.92,6.33,16.69,9,23.57,11.27,16.81,5.59,33.78-5.2,35-6,3.92-2.58,14.65-9.61,16.73-22.42,1.62-10.07-3-18.11-5.37-22.18-2.19-3.81-8.58-13.45-20.56-17.92-15.77-5.89-32,.64-35.23,1.93a171.44,171.44,0,0,1-18.69,6.28,54,54,0,0,1-6.18,1.31c-11.87,1.88-30-.77-30-.77Z"/><path class="cls-33" d="M467.22,243.85V358.29s-15.06,1.2-15.88,1.11c-13.11-1.47-17.3-8.22-29.73-13.93-3.82-1.75-20.44-9.38-38.62-6.48-16.67,2.67-30.36,13.52-35.05,25.92A29.19,29.19,0,0,0,351.51,392a40.85,40.85,0,0,0,13.71,11.85c17.74,9.69,38.54,6.34,41.18,5.89,5.28-.92,3.5-1.33,21.71-6.11,11.77-3.08,15.85-3.79,20.66-3.85,8.41-.12,18.45,2.91,18.45,2.91v77c157,.36,289.79,1,289.79,1a75.93,75.93,0,0,0,19-2.31c6.5-1.76,17.46-4.92,26.8-14.92a51.28,51.28,0,0,0,11.65-21.29,59.57,59.57,0,0,0,1.65-12.82l-1.43-185.52H694.09s.48,6.54,0,30.18c-.43,22.55-3.65,28.22-4.92,30.28-9,14.54-26.54,20.41-28.62,21.08a71.45,71.45,0,0,1-36.24,1.75c-18.74-4.1-31.15-15.32-36.28-26-1.16-2.41-4.93-11.38-2.7-21.15.61-2.71,2.95-11,2.95-11l4.8-25.14Z"/><path class="cls-6" d="M426.18-46.65C414.84-59,384.24-88.9,336.11-97.48,262.31-110.63,206.69-63,195.86-53.79c-64.05,54.78-69.6,137.33-73,187.9-1.78,26.47-3.31,52.82,6.13,85.79,4.55,15.9,26.17,91.41,96.76,124.07,68.08,31.51,163.16,14.45,209.23-50.58,24.63-34.77,41.57-93.91,13.79-140.25-36.34-60.62-132.52-53.33-183.94-36.79-86.84,27.93-123,108-129.51,123"/></g><g class="cls-34"><path class="cls-35" d="M413.21-224.28c0,80.7,4.42,90.43,4.42,90.43a177,177,0,0,0,23.7-1.5c19.25-2.4,22.47-2.55,26.12-2.4,6.48.26,15.76.64,23.24,4.9,16.85,9.59,11.86,31.66,11.2,34.59-1.31,5.81-4.4,19.5-18.27,25.15-10.36,4.23-22.32,2.17-35.87-.15-25.91-4.45-34.54-5.62-34.54-5.62V11.61l129,3.37c2.49,3.63.17,8.87-4,18.38C532.72,45.65,526.72,47.25,524,54.81,519.62,67.05,527.8,84,545.22,93.1c21.4,11.23,45.34,4.73,48.47,3.83C611.35,91.88,625,79.79,628,67.06c2.28-9.68-3.41-12.2-4-36-.25-9.51,1.76-14.89,6.06-19.45H760.68V-73.87s-22.85,7.21-53.88,7.66c-5.76.08-50.65.73-62.61-19.92-9-15.5,3.4-38.12,22.21-45.19,15-5.65,35.86-2,73.72,4.59,13.07,2.29,18.57,2.74,18.57,2.74l2-100.29Z"/><path class="cls-36" d="M136-224.28s-23.58,1-40.38,9.67c-3.22,1.66-21.53,11.41-28.11,29.09-3.67,9.84-1.78,20.5-1.78,20.5V11.61H194.8s-20-24-13.13-44.89C188-52.63,217-61.49,220-62.39c8.19-2.4,28.15-8.25,45.45,0,19.78,9.45,19.26,30.31,19.19,32.18-.21,4.93-3.17,12-9.09,26-2.81,6.66-5.32,12.1-7.07,15.78H413.21V-78.88s8.48,1.95,34.54,5.62c16.91,2.37,25.5,3.52,32.39,1.32,19.63-6.25,22.37-29,22.59-31.12.44-4.25,2.21-21.38-12-29.79-8.77-5.18-19.62-4.7-39.39-3.83-24,1.05-33.67,2.83-33.67,2.83l-4.42-90.43Z"/><path class="cls-37" d="M65.74,11.61H194.8s-20.27-23.68-13.13-44.89c6.07-18,32.08-27,36-28.35,8.9-3.07,25-8.64,41.42-3.17a37.54,37.54,0,0,1,25.22,28.65c.94,6.31-.77,11.25-4.21,21.13-6.77,19.48-11.58,26.63-11.58,26.63H413.21v97.58s-19.58-7.84-48.75-9.19c-11.09-.52-40-1.85-53.53,13-9.68,10.66-8.72,26.66,1,36.77,12.29,12.75,35.84,13.33,54.53,13.78,28.9.71,46.74-2.3,46.74-2.3v86.24H291.74s20,31.35,10.1,57c-5,13-19.45,23.6-35.34,27.57-26.91,6.72-59.94-5-71.7-22.21-16.63-24.28-4.05-62.36-4.05-62.36h-125Z"/><path class="cls-38" d="M413.21,11.61v97.58S396,102.25,364.46,100c-14-1-30.4-2-43.93,6-1.61,1-16.08,9.74-16.37,23.86-.41,19.56,26.8,30,28.06,30.49,10.35,3.82,19.67,3.66,38.31,3.34,30.66-.54,42.68-2.38,42.68-2.38v86.24h127s-22.69-18-22.22-38c.41-16.83,19.88-31.84,39.39-38.3,3.25-1.07,34.64-11,61.6,3.07,18.24,9.52,31,28.26,24.24,46.72-6.39,17.34-26.7,25.16-30.3,26.49h147.8V157.44s16.72,6.38,48.12,10.73c14.17,2,31.72,4.4,44.43-.77,27.89-11.33,37.53-51.63,19.19-65.1-24.7-18.15-70.87-9.1-73.72-8.43-23.43,5.53-38,13-38,13V11.61H630.05s-5.84,19.61-5.94,22.54c-.6,16.21,6.95,21,3.92,32.91-3.23,12.76-15.21,20.79-18.39,22.79-1.12.71-25.8,15.73-54,7.38-13.91-4.12-28-13.72-30.84-25.75-1.22-5.23.42-7.85,9.18-30.53,8.94-23.17,8.24-26,8.24-26Z"/><path class="cls-39" d="M65.74,247.51V433s2.19,20.14,15.32,32.18c11.91,10.92,28,15.09,30.47,15.72a103.33,103.33,0,0,0,20.63,2.48h281V400.25s24.61-.68,31,.77a61.56,61.56,0,0,1,11.61,3.74c12,5.31,17.4,9,21.72,10.81,15.36,6.57,48-6,51.69-28.39,3.3-19.93-17.49-40.49-35.84-43.16-15.66-2.27-23.05,9.41-50.19,12.57a107.55,107.55,0,0,1-30-.76V247.51H291.74s13.51,17.81,12.82,40.15c-.12,3.7-.87,27.93-26.1,40.06-19.65,9.44-43.83,6.57-59.64-.07-17.8-7.46-25.13-19.75-27.45-23.8-8.86-15.43-5.78-31.61-4.19-40,2.21-11.6,3.57-16.36,3.57-16.36Z"/><path class="cls-40" d="M413.21,247.51h127a56.52,56.52,0,0,1-18.15-22c-7.71-17.33,3.33-33.5,4.09-34.58,15.76-22.27,51-23.86,55.25-24,6-.19,22-.54,37.58,7.35,1.59.8,27,14.15,26.08,36.74a36.29,36.29,0,0,1-12.86,25.26,59.38,59.38,0,0,1-19.28,11.21h147.8V362a41.32,41.32,0,0,1-15.88,1.11c-8.29-1.12-13.26-4.72-18.81-8-4-2.33-18.59-11-31.31-13-15.82-2.55-36.23,3.9-47.18,16.4-1.58,1.81-12.42,14.65-6.34,30.32,5.42,14,21.55,23.05,36.35,25.28,17.42,2.62,35.87-3.79,40.4-5.36,5.27-1.83,7.7-3.24,13.3-4.29,11.48-2.16,22.09-.15,29.47,2v77H413.21V400.25s28.66.2,31,.77A53.53,53.53,0,0,1,454,404.3c13.92,6.33,16.7,9,23.58,11.27,16.81,5.59,33.78-5.2,35-6,3.92-2.57,14.65-9.61,16.72-22.41,1.63-10.08-3-18.11-5.36-22.19-2.2-3.8-8.58-13.45-20.56-17.92-15.77-5.88-32,.64-35.23,1.94a174.23,174.23,0,0,1-18.7,6.28,55.93,55.93,0,0,1-6.18,1.3c-11.87,1.88-30-.76-30-.76Z"/><path class="cls-6" d="M720.8-43c-11.34-12.34-41.95-42.24-90.07-50.82C556.93-107,501.31-59.39,490.48-50.13c-64.05,54.78-69.6,137.33-73,187.91-1.78,26.46-3.31,52.81,6.13,85.79,4.55,15.9,26.17,91.4,96.76,124.07,68.08,31.51,163.16,14.44,209.22-50.58,24.64-34.78,41.58-93.92,13.8-140.26C707.05,96.19,610.87,103.48,559.45,120,472.61,148,436.4,228,429.94,243"/></g><g class="cls-41"><path class="cls-42" d="M-151.94,30.15c0,80.71,4.43,90.43,4.43,90.43a177,177,0,0,0,23.7-1.5c19.25-2.4,22.47-2.54,26.12-2.4,6.48.27,15.76.64,23.23,4.9,16.85,9.59,11.87,31.66,11.21,34.59-1.32,5.82-4.41,19.5-18.27,25.15-10.36,4.23-22.33,2.18-35.87-.15-25.91-4.45-34.55-5.62-34.55-5.62v90.5l129,3.36c2.48,3.63.17,8.87-4,18.38-5.44,12.29-11.43,13.9-14.14,21.45-4.39,12.24,3.78,29.16,21.21,38.3,21.4,11.22,45.34,4.72,48.47,3.83,17.66-5.06,31.34-17.15,34.34-29.88,2.27-9.68-3.41-12.19-4-36-.26-9.5,1.75-14.89,6.06-19.44H195.53V180.56s-22.84,7.21-53.87,7.66C135.9,188.3,91,189,79,168.3c-9-15.49,3.41-38.12,22.22-45.19,15-5.65,35.86-2,73.72,4.6,13.07,2.28,18.57,2.73,18.57,2.73l2-100.29Z"/><path class="cls-43" d="M195.53,30.15s-2.09,25.27,0,46.24V130s-5.39.55-20.55-2.29c-24.94-4.68-37.41-7-46.44-7-6.18,0-29.29.15-43.14,13.51-9.35,9-13.18,22.86-6.36,34.06,10.9,17.89,43,19.33,51.52,19.72a136,136,0,0,0,44.12-5.37c8.81-5.06,20.85-5.16,20.85-5.16v88.56H317.37a39.34,39.34,0,0,0,11.11-22.68c.75-11.23-5.86-14.84-7.07-26.05-.15-1.4-1.91-21,14.14-32.93,19.94-14.83,61.07-13.15,75.74,2.3,9.78,10.29,5.85,24.66,5,27.57-4.79,17.47-21.56,22-19.77,35.81,1.13,8.7,10.68,16,10.68,16H543q1-91.67,2-183.34a49.4,49.4,0,0,0-3-20.45A47.54,47.54,0,0,0,534.48,49a48.12,48.12,0,0,0-18.63-13.68c-7.39-3.28-13.64-4.08-20.17-4.92a99.27,99.27,0,0,0-15.32-.76Z"/><path class="cls-44" d="M195.53,266.05H317.37s10.88-16.76,11.11-22.68c.69-11.15-6-14.09-7.07-26.05-.35-3.89-1.81-19.95,12.69-31.8,16.71-13.65,42-11.42,45.66-11.06,6.19.62,22,2.21,31.53,12.23,10.77,11.36,5.8,25.56,5,27.57-4,10.83-12.2,11.29-17.2,25.29-3,8.52-1.84,13.48-.5,16.54l8.61,10H543V501.94H422.4c0,8.93.06,21.61,0,38.62,0,7.11-.11,12.13-3,18.38a45.29,45.29,0,0,1-19.19,19.92c-19.69,10.82-51.85,10.62-70.69-3.07-19.57-14.21-16-36.61-15.83-37.68.61-3.42,1.73-5.11,3.71-14.4,2.06-9.65,4.06-21.78,4-21.78H195.53V411.88s15.34,5.4,48.12,10.72c17,2.76,26.14,4.15,36.83,1.39,21.86-5.64,30.57-23.56,32.43-27.82,1.25-2.86,10.79-24.7-5.64-39.44C291,342.16,261.12,345,251.72,345.88c-33.72,3.19-56.19,15.44-56.19,15.44Z"/><path class="cls-6" d="M155.66,211.44c-11.35-12.34-41.95-42.24-90.08-50.82C-8.21,147.47-63.84,195-74.67,204.31c-64,54.77-69.59,137.32-73,187.9C-149.44,418.67-151,445-141.54,478c4.56,15.9,26.17,91.4,96.76,124.07,68.08,31.51,163.16,14.45,209.23-50.58,24.64-34.78,41.58-93.91,13.8-140.25C141.9,350.62,45.73,357.91-5.69,374.45c-86.84,27.93-123,108-129.51,123"/></g><g class="cls-45"><path class="cls-46" d="M112.64,9c0,80.7,4.42,90.43,4.42,90.43a177,177,0,0,0,23.7-1.5c19.26-2.4,22.47-2.55,26.12-2.4,6.48.26,15.76.64,23.24,4.9,16.85,9.59,11.86,31.66,11.2,34.59-1.31,5.82-4.4,19.5-18.27,25.15-10.36,4.23-22.32,2.17-35.87-.15-25.91-4.45-34.54-5.62-34.54-5.62v90.49l129,3.37c2.49,3.63.17,8.87-4,18.38-5.43,12.29-11.43,13.89-14.14,21.45-4.38,12.24,3.79,29.16,21.21,38.29,21.4,11.23,45.35,4.73,48.48,3.83,17.65-5.05,31.34-17.14,34.33-29.87,2.28-9.68-3.41-12.2-4-36-.25-9.51,1.76-14.89,6.06-19.45H460.11V159.45s-22.85,7.21-53.88,7.66c-5.76.08-50.65.73-62.61-19.92-9-15.49,3.4-38.12,22.22-45.19,15-5.65,35.85-2,73.72,4.6,13.06,2.28,18.57,2.73,18.57,2.73L460.11,9Z"/><path class="cls-47" d="M460.11,9s-2.1,25.27,0,46.24v53.61s-5.39.55-20.55-2.3c-24.94-4.68-37.41-7-46.45-7-6.18,0-29.28.14-43.13,13.51-9.35,9-13.19,22.85-6.36,34.06,10.89,17.89,43,19.33,51.52,19.71a135.81,135.81,0,0,0,44.11-5.36c8.82-5.07,20.86-5.16,20.86-5.16v88.55H582a39.29,39.29,0,0,0,11.1-22.68c.75-11.22-5.86-14.83-7.06-26-.15-1.4-1.91-21,14.13-32.93,19.94-14.83,61.08-13.15,75.74,2.29,9.79,10.3,5.85,24.66,5,27.58-4.78,17.47-21.55,22-19.76,35.81,1.12,8.69,10.67,16,10.67,16H807.58q1-91.67,2-183.33a49.49,49.49,0,0,0-3-20.46,47.33,47.33,0,0,0-7.51-13.28,48.11,48.11,0,0,0-18.62-13.68C773,10.9,766.79,10.1,760.26,9.26a98.11,98.11,0,0,0-15.32-.76Z"/><path class="cls-48" d="M-164.56,9s-23.58,1-40.38,9.67c-3.22,1.66-21.52,11.41-28.11,29.09-3.67,9.84-1.78,20.5-1.78,20.5V244.93h129.06s-20-24-13.13-44.89c6.35-19.35,35.33-28.21,38.38-29.1,8.18-2.41,28.14-8.26,45.44,0,19.78,9.44,19.26,30.3,19.19,32.17-.21,4.93-3.17,12-9.09,26-2.81,6.66-5.32,12.1-7.07,15.78H112.64V154.44s8.48,1.95,34.54,5.62c16.91,2.37,25.5,3.52,32.39,1.32,19.63-6.25,22.37-29,22.59-31.12.44-4.25,2.21-21.38-12-29.79-8.77-5.18-19.62-4.7-39.39-3.83-24,1-33.67,2.83-33.67,2.83L112.64,9Z"/><path class="cls-49" d="M-234.83,244.93h129.06S-126,221.25-118.9,200c6.07-18,32.08-27,36-28.35,8.9-3.07,25-8.64,41.42-3.17a37.52,37.52,0,0,1,25.22,28.65c.94,6.31-.77,11.25-4.21,21.13C-27.23,237.78-32,244.93-32,244.93H112.64v97.58s-19.58-7.84-48.75-9.19c-11.09-.51-40-1.85-53.53,13C.68,357,1.64,373,11.37,383.11c12.29,12.75,35.84,13.33,54.54,13.78,28.89.71,46.73-2.29,46.73-2.29v86.23H-8.82s20,31.35,10.09,57c-5,13-19.44,23.6-35.34,27.57-26.91,6.72-59.94-5-71.7-22.21-16.63-24.28-4-62.36-4-62.36h-125Z"/><path class="cls-50" d="M112.64,244.93v97.58s-17.21-6.94-48.75-9.19c-14-1-30.4-2-43.93,6-1.61,1-16.08,9.74-16.37,23.86-.4,19.56,26.8,30,28.07,30.49C42,397.45,51.32,397.29,70,397c30.66-.54,42.68-2.37,42.68-2.37v86.23h127s-22.69-18-22.21-38c.4-16.83,19.87-31.84,39.38-38.3,3.25-1.07,34.64-11,61.6,3.07,18.24,9.52,31,28.26,24.24,46.72-6.39,17.34-26.7,25.16-30.3,26.49h147.8V390.77s16.72,6.37,48.12,10.72c14.17,2,31.72,4.4,44.43-.77,27.89-11.33,37.53-51.63,19.19-65.1-24.7-18.15-70.87-9.1-73.72-8.43-23.43,5.53-38,13-38,13V244.93H329.48s-5.84,19.61-5.94,22.54c-.6,16.21,6.95,20.95,3.92,32.91-3.23,12.76-15.21,20.79-18.38,22.79-1.13.71-25.81,15.74-54,7.38-13.91-4.12-28-13.72-30.84-25.75-1.22-5.23.42-7.85,9.18-30.53,8.94-23.17,8.24-26,8.24-26Z"/><path class="cls-51" d="M460.11,244.93H582s10.87-16.75,11.1-22.68c.69-11.15-6-14.08-7.06-26-.36-3.89-1.82-20,12.69-31.8,16.71-13.65,42-11.43,45.65-11.06,6.2.62,22,2.2,31.53,12.22,10.78,11.37,5.8,25.57,5,27.58-4,10.83-12.19,11.29-17.19,25.29-3,8.52-1.85,13.48-.51,16.54l8.61,10H807.58v235.9H687c0,8.92.07,21.61,0,38.62,0,7.11-.1,12.13-3,18.38a45.24,45.24,0,0,1-19.18,19.91c-19.7,10.82-51.85,10.63-70.7-3.06-19.56-14.21-16-36.61-15.83-37.69.61-3.41,1.74-5.1,3.72-14.4,2-9.64,4.06-21.77,4-21.77H460.11V390.76s15.33,5.41,48.12,10.73c17,2.75,26.14,4.15,36.83,1.39,21.85-5.64,30.57-23.56,32.42-27.82,1.25-2.86,10.79-24.7-5.63-39.44-16.23-14.57-46.16-11.74-55.56-10.85-33.72,3.19-56.18,15.44-56.18,15.44Z"/><path class="cls-6" d="M420.23,190.33c-11.34-12.34-42-42.24-90.07-50.82-73.8-13.16-129.42,34.42-140.25,43.68-64,54.78-69.6,137.33-73,187.91-1.78,26.46-3.31,52.81,6.13,85.79,4.55,15.9,26.17,91.4,96.76,124.07C287.88,612.47,383,595.41,429,530.38c24.63-34.78,41.57-93.92,13.79-140.26-36.34-60.61-132.52-53.32-183.94-36.78-86.84,27.93-123,108-129.51,123"/></g><g class="cls-52"><path class="cls-53" d="M392.39,29.66c0,80.71,4.43,90.43,4.43,90.43a177,177,0,0,0,23.7-1.5c19.25-2.4,22.47-2.54,26.12-2.39,6.47.26,15.75.63,23.23,4.89,16.85,9.59,11.87,31.66,11.2,34.6-1.31,5.81-4.4,19.49-18.27,25.15-10.36,4.22-22.32,2.17-35.86-.16-25.91-4.45-34.55-5.62-34.55-5.62v90.5l129,3.36c2.48,3.63.16,8.87-4,18.38-5.44,12.29-11.43,13.9-14.14,21.45-4.39,12.24,3.78,29.16,21.2,38.3,21.4,11.22,45.35,4.72,48.48,3.83,17.66-5.05,31.34-17.15,34.33-29.87,2.28-9.68-3.41-12.2-4-36-.25-9.51,1.76-14.89,6.06-19.45H739.86V180.07S717,187.28,686,187.73c-5.75.08-50.64.73-62.61-19.92-9-15.49,3.41-38.12,22.22-45.19,15-5.64,35.86-2,73.72,4.6,13.07,2.28,18.57,2.74,18.57,2.74l2-100.3Z"/><path class="cls-54" d="M115.19,29.66s-23.58,1-40.38,9.68C71.59,41,53.29,50.74,46.7,68.42c-3.67,9.85-1.78,20.5-1.78,20.5V265.56H174s-20-24-13.13-44.89c6.35-19.35,35.33-28.22,38.38-29.11,8.18-2.4,28.14-8.26,45.44,0,19.78,9.44,19.27,30.31,19.19,32.17-.2,4.94-3.17,12-9.09,26-2.8,6.66-5.32,12.11-7.07,15.79H392.39v-90.5s8.48,2,34.55,5.62c16.9,2.38,25.49,3.52,32.38,1.33,19.63-6.26,22.38-29,22.59-31.12.44-4.26,2.21-21.38-12-29.8-8.77-5.18-19.61-4.7-39.38-3.83-24,1.06-33.67,2.83-33.67,2.83l-4.43-90.43Z"/><path class="cls-55" d="M44.92,265.56H174s-20.26-23.68-13.13-44.89c6.07-18,32.08-27,36-28.36,8.9-3.07,25-8.63,41.42-3.16a37.51,37.51,0,0,1,25.22,28.65c.95,6.3-.77,11.24-4.2,21.12-6.77,19.48-11.59,26.64-11.59,26.64H392.39v97.57s-19.58-7.84-48.75-9.19c-11.09-.51-40-1.85-53.52,13-9.69,10.67-8.73,26.66,1,36.77,12.28,12.76,35.84,13.33,54.53,13.79,28.89.7,46.73-2.3,46.73-2.3v86.23H270.93s20,31.36,10.1,57c-5,13-19.45,23.61-35.35,27.58-26.9,6.72-59.93-5-71.7-22.22-16.63-24.27-4-62.36-4-62.36h-125Z"/><path class="cls-6" d="M700,211c-11.34-12.34-41.94-42.25-90.07-50.83C536.12,147,480.49,194.55,469.66,203.82c-64.05,54.78-69.6,137.32-73,187.9-1.77,26.47-3.31,52.82,6.13,85.79,4.56,15.9,26.17,91.4,96.76,124.07C567.63,633.09,662.71,616,708.78,551c24.63-34.77,41.58-93.91,13.79-140.25C686.23,350.13,590.05,357.42,538.64,374c-86.84,27.93-123,108-129.51,123"/></g></svg>