<svg id="Layer_1" data-name="Layer 1" xmlns="http://www.w3.org/2000/svg" xmlns:xlink="http://www.w3.org/1999/xlink" viewBox="0 0 491.74 252.77"><defs><style>.cls-1,.cls-10{fill:none;}.cls-2{clip-path:url(#clip-path);}.cls-10,.cls-3,.cls-4,.cls-5,.cls-7,.cls-8,.cls-9{stroke:#9cf;stroke-miterlimit:10;}.cls-3,.cls-4,.cls-5,.cls-7,.cls-8,.cls-9{stroke-width:5px;}.cls-3{fill:url(#radial-gradient);}.cls-4{fill:url(#radial-gradient-2);}.cls-5{fill:url(#radial-gradient-3);}.cls-6{clip-path:url(#clip-path-2);}.cls-7{fill:url(#radial-gradient-4);}.cls-8{fill:url(#radial-gradient-5);}.cls-9{fill:url(#radial-gradient-6);}.cls-10{stroke-linecap:round;stroke-width:80px;}</style><clipPath id="clip-path"><path class="cls-1" d="M-490.55-12.06h127a56.52,56.52,0,0,1-18.15-22c-7.71-17.33,3.33-33.5,4.09-34.58,15.76-22.27,51-23.86,55.25-24,6-.2,22-.55,37.58,7.34,1.59.81,27,14.16,26.08,36.75A36.3,36.3,0,0,1-271.6-23.28a59.3,59.3,0,0,1-19.28,11.22h147.8V102.38A41.52,41.52,0,0,1-159,103.49c-8.29-1.12-13.26-4.72-18.81-8-4-2.34-18.59-11-31.31-13-15.82-2.55-36.23,3.89-47.18,16.4-1.58,1.81-12.42,14.65-6.34,30.32,5.42,14,21.55,23.05,36.35,25.28,17.42,2.62,35.87-3.79,40.4-5.36,5.27-1.84,7.7-3.24,13.3-4.3,11.48-2.16,22.09-.15,29.47,2v77H-490.55V140.68s28.66.2,31,.77a52,52,0,0,1,9.75,3.28c13.92,6.33,16.7,9,23.58,11.27,16.81,5.59,33.78-5.2,35-6,3.92-2.57,14.65-9.61,16.72-22.42,1.63-10.07-3-18.11-5.36-22.18-2.2-3.81-8.58-13.45-20.56-17.92-15.77-5.89-32,.64-35.23,1.93a169.62,169.62,0,0,1-18.7,6.28A53.52,53.52,0,0,1-460.54,97c-11.87,1.88-30-.77-30-.77Z"/></clipPath><radialGradient id="radial-gradient" cx="239.74" cy="-133.67" r="173.05" gradientTransform="translate(-285.43) scale(1.32 1)" gradientUnits="userSpaceOnUse"><stop offset="0" stop-color="#0b3d91"/><stop offset="0.99" stop-color="#082759"/></radialGradient><radialGradient id="radial-gradient-2" cx="195.23" cy="106.37" r="151.33" xlink:href="#radial-gradient"/><radialGradient id="radial-gradient-3" cx="407.41" cy="127" r="151.33" xlink:href="#radial-gradient"/><clipPath id="clip-path-2"><path class="cls-1" d="M137.83,8.56V123s-15.06,1.19-15.88,1.1c-13.11-1.47-17.3-8.22-29.73-13.92-3.82-1.75-20.44-9.39-38.61-6.48-16.68,2.66-30.37,13.51-35.06,25.92a29.17,29.17,0,0,0,3.57,27.11A40.9,40.9,0,0,0,35.83,168.6c17.74,9.68,38.54,6.34,41.18,5.88,5.29-.91,3.5-1.33,21.71-6.1,11.77-3.09,15.85-3.79,20.66-3.86,8.41-.11,18.45,2.91,18.45,2.91v77c157,.36,289.79,1,289.79,1a75.67,75.67,0,0,0,19-2.32c6.5-1.76,17.46-4.92,26.8-14.92a51.21,51.21,0,0,0,11.65-21.29,59.57,59.57,0,0,0,1.65-12.82L485.3,8.56H364.7s.48,6.54,0,30.19C364.29,61.3,361.07,67,359.8,69c-9,14.53-26.53,20.41-28.62,21.08a71.49,71.49,0,0,1-36.24,1.74c-18.74-4.09-31.15-15.32-36.28-26-1.16-2.41-4.93-11.37-2.7-21.14.61-2.71,3-11,3-11l4.8-25.14Z"/></clipPath><radialGradient id="radial-gradient-4" cx="192.96" cy="-109.39" r="175.93" xlink:href="#radial-gradient"/><radialGradient id="radial-gradient-5" cx="451.92" cy="-113.05" r="173.05" xlink:href="#radial-gradient"/><radialGradient id="radial-gradient-6" cx="188.37" cy="86.19" r="145.62" xlink:href="#radial-gradient"/></defs><g class="cls-2"><path class="cls-3" d="M-143.08-248H-21.25s10.88-16.76,11.11-22.68c.69-11.15-6-14.09-7.07-26-.35-3.89-1.81-19.95,12.7-31.8,16.71-13.65,42-11.43,45.65-11.07,6.19.62,22,2.21,31.53,12.23,10.77,11.36,5.8,25.56,5,27.57-4,10.84-12.2,11.29-17.19,25.3-3,8.51-1.85,13.48-.51,16.54l8.61,10H204.38v235.9H83.78c0,8.92.07,21.61,0,38.61,0,7.11-.11,12.14-3,18.39A45.27,45.27,0,0,1,61.56,64.85C41.87,75.67,9.72,75.48-9.13,61.79-28.69,47.57-25.15,25.17-25,24.1c.61-3.42,1.73-5.11,3.71-14.4,2.06-9.65,4.06-21.77,4.05-21.77H-143.08v-90.07S-127.75-96.72-95-91.41c17,2.76,26.15,4.15,36.83,1.4,21.86-5.64,30.57-23.57,32.43-27.82,1.25-2.87,10.79-24.71-5.63-39.45C-47.57-171.84-77.5-169-86.9-168.12c-33.72,3.19-56.18,15.44-56.18,15.44Z"/><path class="cls-4" d="M-141.92-12.06V102.38s-15.06,1.2-15.88,1.11c-13.11-1.47-17.31-8.22-29.73-13.93-3.82-1.75-20.44-9.38-38.62-6.47-16.67,2.66-30.36,13.51-35,25.91a29.19,29.19,0,0,0,3.57,27.12A40.81,40.81,0,0,0-243.92,148c17.74,9.68,38.54,6.33,41.17,5.88,5.29-.92,3.51-1.33,21.72-6.11,11.77-3.08,15.85-3.78,20.66-3.85,8.41-.11,18.45,2.91,18.45,2.91v77c157,.37,289.79,1,289.79,1a75.93,75.93,0,0,0,19-2.31c6.5-1.76,17.46-4.92,26.79-14.92a51.26,51.26,0,0,0,11.66-21.29A59.57,59.57,0,0,0,207,173.46L205.55-12.06H84.94s.48,6.54,0,30.18c-.43,22.55-3.65,28.22-4.92,30.28-9,14.54-26.54,20.41-28.62,21.08a71.45,71.45,0,0,1-36.24,1.75c-18.74-4.1-31.15-15.32-36.28-26C-22.25,42.84-26,33.87-23.8,24.1c.62-2.71,3-11,3-11L-16-12.06Z"/></g><path class="cls-5" d="M137.83,8.56V123s-15.06,1.19-15.88,1.1c-13.11-1.47-17.3-8.22-29.73-13.92-3.82-1.75-20.44-9.39-38.61-6.48-16.68,2.66-30.37,13.51-35.06,25.92a29.17,29.17,0,0,0,3.57,27.11A40.9,40.9,0,0,0,35.83,168.6c17.74,9.68,38.54,6.34,41.18,5.88,5.29-.91,3.5-1.33,21.71-6.1,11.77-3.09,15.85-3.79,20.66-3.86,8.41-.11,18.45,2.91,18.45,2.91v77c157,.36,289.79,1,289.79,1a75.67,75.67,0,0,0,19-2.32c6.5-1.76,17.46-4.92,26.8-14.92a51.21,51.21,0,0,0,11.65-21.29,59.57,59.57,0,0,0,1.65-12.82L485.3,8.56H364.7s.48,6.54,0,30.19C364.29,61.3,361.07,67,359.8,69c-9,14.53-26.53,20.41-28.62,21.08a71.49,71.49,0,0,1-36.24,1.74c-18.74-4.09-31.15-15.32-36.28-26-1.16-2.41-4.93-11.37-2.7-21.14.61-2.71,3-11,3-11l4.8-25.14Z"/><g class="cls-6"><path class="cls-7" d="M-210.8-227.34v97.58s-17.21-6.94-48.75-9.19c-14-1-30.4-2-43.93,6-1.61,1-16.08,9.74-16.37,23.86-.4,19.56,26.8,30,28.07,30.49,10.35,3.83,19.66,3.66,38.3,3.34,30.66-.54,42.68-2.37,42.68-2.37V8.56h127s-22.69-18-22.21-38c.4-16.83,19.87-31.83,39.38-38.3,3.25-1.07,34.65-11,61.6,3.07C13.17-55.13,26-36.39,19.17-17.93,12.78-.59-7.52,7.23-11.13,8.56h147.8V-81.5s16.72,6.37,48.12,10.72c14.17,2,31.73,4.4,44.43-.77,27.9-11.33,37.53-51.63,19.19-65.1-24.69-18.15-70.87-9.1-73.72-8.43-23.43,5.53-38,13-38,13v-95.28H6S.21-207.73.1-204.8c-.6,16.21,7,21,3.92,32.91C.79-159.13-11.19-151.1-14.36-149.1c-1.12.71-25.81,15.74-54,7.38-13.9-4.12-28-13.72-30.84-25.75-1.21-5.23.42-7.85,9.18-30.53,9-23.17,8.24-26,8.24-26Z"/><path class="cls-8" d="M136.67-227.34H258.51s10.87-16.75,11.11-22.67c.68-11.16-6-14.09-7.07-26.05-.36-3.89-1.82-19.95,12.69-31.8,16.71-13.65,42-11.43,45.65-11.06,6.2.62,22,2.2,31.54,12.22,10.77,11.37,5.79,25.57,5,27.58-4,10.83-12.19,11.29-17.19,25.29-3,8.52-1.85,13.48-.51,16.54l8.62,9.95H484.14V8.56H363.53c0,8.93.07,21.61,0,38.62,0,7.11-.1,12.13-3,18.38a45.24,45.24,0,0,1-19.18,19.91c-19.69,10.82-51.85,10.63-70.69-3.06-19.57-14.21-16-36.61-15.84-37.68.61-3.42,1.74-5.11,3.72-14.4,2.05-9.65,4.06-21.78,4-21.78H136.67V-81.5S152-76.1,184.79-70.78c17,2.75,26.14,4.15,36.83,1.39C243.47-75,252.19-92.95,254-97.21c1.26-2.86,10.79-24.7-5.63-39.44-16.23-14.57-46.16-11.74-55.56-10.85-33.72,3.19-56.18,15.44-56.18,15.44Z"/><path class="cls-9" d="M-210.8,8.56h127a56.52,56.52,0,0,1-18.15-22C-109.7-30.75-98.66-46.92-97.9-48c15.76-22.26,51-23.86,55.25-24,6-.19,22-.54,37.58,7.35,1.59.8,27,14.16,26.08,36.74A36.29,36.29,0,0,1,8.15-2.65,59.38,59.38,0,0,1-11.13,8.56h147.8V123a41.55,41.55,0,0,1-15.88,1.1c-8.29-1.12-13.25-4.72-18.81-8-4-2.33-18.59-11-31.31-13-15.82-2.54-36.23,3.9-47.18,16.41-1.58,1.8-12.41,14.64-6.34,30.31,5.43,14,21.55,23.06,36.36,25.28,17.41,2.62,35.86-3.79,40.39-5.36,5.27-1.83,7.7-3.24,13.3-4.29,11.48-2.16,22.1-.15,29.47,2v77H-210.8V161.3s28.67.2,31,.77a54.07,54.07,0,0,1,9.75,3.28c13.92,6.34,16.69,9,23.57,11.27,16.81,5.59,33.78-5.2,35-6,3.92-2.57,14.65-9.61,16.73-22.41,1.62-10.08-3-18.11-5.36-22.18-2.2-3.81-8.59-13.45-20.56-17.93-15.78-5.88-32,.64-35.24,1.94a173.77,173.77,0,0,1-18.69,6.28,56.44,56.44,0,0,1-6.18,1.3c-11.87,1.88-30-.76-30-.76Z"/><path class="cls-10" d="M96.79-281.94c-11.34-12.34-41.94-42.24-90.07-50.82-73.8-13.16-129.42,34.42-140.25,43.68-64.05,54.78-69.6,137.33-73,187.91-1.78,26.46-3.31,52.81,6.13,85.79,4.55,15.9,26.17,91.4,96.76,124.07,68.08,31.51,163.16,14.45,209.23-50.58,24.63-34.78,41.57-93.92,13.79-140.26C83-142.76-13.14-135.47-64.56-118.93c-86.84,27.93-123,108-129.51,123"/></g></svg>