<svg id="Layer_1" data-name="Layer 1" xmlns="http://www.w3.org/2000/svg" xmlns:xlink="http://www.w3.org/1999/xlink" viewBox="0 0 366.84 412.47"><defs><style>.cls-1,.cls-7{fill:none;}.cls-2{clip-path:url(#clip-path);}.cls-10,.cls-11,.cls-13,.cls-14,.cls-15,.cls-16,.cls-17,.cls-19,.cls-20,.cls-21,.cls-23,.cls-24,.cls-25,.cls-26,.cls-28,.cls-29,.cls-3,.cls-4,.cls-5,.cls-6,.cls-7,.cls-9{stroke:#9cf;stroke-miterlimit:10;}.cls-10,.cls-11,.cls-13,.cls-14,.cls-15,.cls-16,.cls-17,.cls-19,.cls-20,.cls-21,.cls-23,.cls-24,.cls-25,.cls-26,.cls-28,.cls-29,.cls-3,.cls-4,.cls-5,.cls-6,.cls-9{stroke-width:5px;}.cls-3{fill:url(#radial-gradient);}.cls-4{fill:url(#radial-gradient-2);}.cls-5{fill:url(#radial-gradient-3);}.cls-6{fill:url(#radial-gradient-4);}.cls-7{stroke-linecap:round;stroke-width:80px;}.cls-8{clip-path:url(#clip-path-2);}.cls-9{fill:url(#radial-gradient-5);}.cls-10{fill:url(#radial-gradient-6);}.cls-11{fill:url(#radial-gradient-7);}.cls-12{clip-path:url(#clip-path-3);}.cls-13{fill:url(#radial-gradient-8);}.cls-14{fill:url(#radial-gradient-9);}.cls-15{fill:url(#radial-gradient-10);}.cls-16{fill:url(#radial-gradient-11);}.cls-17{fill:url(#radial-gradient-12);}.cls-18{clip-path:url(#clip-path-4);}.cls-19{fill:url(#radial-gradient-13);}.cls-20{fill:url(#radial-gradient-14);}.cls-21{fill:url(#radial-gradient-15);}.cls-22{clip-path:url(#clip-path-5);}.cls-23{fill:url(#radial-gradient-16);}.cls-24{fill:url(#radial-gradient-17);}.cls-25{fill:url(#radial-gradient-18);}.cls-26{fill:url(#radial-gradient-19);}.cls-27{clip-path:url(#clip-path-6);}.cls-28{fill:url(#radial-gradient-20);}.cls-29{fill:url(#radial-gradient-21);}</style><clipPath id="clip-path"><path class="cls-1" d="M90.32-429.47s-23.58,1-40.38,9.68c-3.22,1.66-21.52,11.4-28.11,29.08-3.67,9.85-1.78,20.5-1.78,20.5v176.64H149.11s-20-24-13.13-44.89c6.35-19.35,35.33-28.21,38.38-29.11,8.18-2.4,28.14-8.26,45.44,0,19.78,9.45,19.27,30.31,19.19,32.17-.2,4.94-3.17,12-9.09,26.05-2.8,6.65-5.32,12.1-7.07,15.78H367.52v-90.49s8.48,1.95,34.55,5.61c16.9,2.38,25.5,3.52,32.38,1.33,19.63-6.25,22.38-29,22.59-31.12.44-4.25,2.22-21.38-12-29.8-8.77-5.18-19.61-4.7-39.38-3.83C381.64-340.81,372-339,372-339l-4.43-90.44Z"/></clipPath><radialGradient id="radial-gradient" cx="628.2" cy="-71.74" r="169.69" gradientTransform="translate(-634.46) scale(1.32 1)" gradientUnits="userSpaceOnUse"><stop offset="0" stop-color="#0b3d91"/><stop offset="0.99" stop-color="#082759"/></radialGradient><radialGradient id="radial-gradient-2" cx="896.33" cy="-75.62" r="175.93" xlink:href="#radial-gradient"/><radialGradient id="radial-gradient-3" cx="672.34" cy="160.28" r="149.76" xlink:href="#radial-gradient"/><radialGradient id="radial-gradient-4" cx="891.75" cy="119.96" r="145.62" xlink:href="#radial-gradient"/><clipPath id="clip-path-2"><path class="cls-1" d="M617.52-447.71c0,80.71,4.43,90.43,4.43,90.43a177,177,0,0,0,23.7-1.5c19.25-2.4,22.47-2.54,26.12-2.39,6.47.26,15.75.63,23.23,4.89,16.85,9.59,11.87,31.66,11.2,34.6-1.31,5.81-4.4,19.49-18.27,25.15-10.36,4.22-22.32,2.17-35.86-.16-25.91-4.45-34.55-5.61-34.55-5.61v90.49l129,3.36c2.48,3.63.16,8.87-4,18.39C737-177.78,731-176.17,728.33-168.62c-4.39,12.25,3.78,29.16,21.21,38.3,21.39,11.22,45.34,4.73,48.47,3.83,17.66-5,31.34-17.15,34.33-29.87,2.28-9.68-3.4-12.2-4-36-.25-9.51,1.76-14.89,6.06-19.45H965V-297.3s-22.84,7.21-53.88,7.66c-5.75.08-50.64.73-62.61-19.91-9-15.5,3.41-38.12,22.22-45.2,15-5.64,35.86-2,73.72,4.6,13.07,2.28,18.57,2.74,18.57,2.74l2-100.3Z"/></clipPath><radialGradient id="radial-gradient-5" cx="817.82" cy="-89.98" r="169.69" xlink:href="#radial-gradient"/><radialGradient id="radial-gradient-6" cx="861.96" cy="142.03" r="149.76" xlink:href="#radial-gradient"/><radialGradient id="radial-gradient-7" cx="621.61" cy="206.54" r="169.69" xlink:href="#radial-gradient"/><clipPath id="clip-path-3"><path class="cls-1" d="M11.36,84.71H140.42S120.15,61,127.29,39.81c6.07-18,32.08-27,36-28.35,8.9-3.07,25-8.64,41.41-3.17A37.54,37.54,0,0,1,229.93,37c.94,6.3-.77,11.24-4.21,21.12C219,77.55,214.14,84.71,214.14,84.71H358.83v97.57s-19.59-7.84-48.76-9.19c-11.09-.51-40-1.85-53.52,13-9.68,10.66-8.72,26.66,1,36.77,12.28,12.75,35.84,13.33,54.53,13.78,28.9.71,46.74-2.29,46.74-2.29V320.6H237.36s20,31.35,10.1,57c-5,13-19.45,23.61-35.34,27.58-26.91,6.71-59.94-5-71.7-22.22-16.63-24.27-4-62.36-4-62.36h-125Z"/></clipPath><radialGradient id="radial-gradient-8" cx="885.15" cy="10.76" r="147.63" xlink:href="#radial-gradient"/><radialGradient id="radial-gradient-9" cx="655.49" cy="-33.24" r="144.01" xlink:href="#radial-gradient"/><radialGradient id="radial-gradient-10" cx="889.73" cy="202.65" r="175.93" xlink:href="#radial-gradient"/><radialGradient id="radial-gradient-11" cx="665.75" cy="438.55" r="149.76" xlink:href="#radial-gradient"/><radialGradient id="radial-gradient-12" cx="885.15" cy="398.24" r="145.62" xlink:href="#radial-gradient"/><clipPath id="clip-path-4"><path class="cls-1" d="M611.48,75.74v97.57s-17.2-6.94-48.75-9.19c-14-1-30.39-2-43.92,6-1.61.95-16.09,9.74-16.38,23.86-.4,19.57,26.81,30,28.07,30.49,10.35,3.83,19.67,3.66,38.31,3.34,30.65-.54,42.67-2.37,42.67-2.37v86.23h127s-22.7-18-22.22-38c.4-16.83,19.87-31.83,39.38-38.29,3.26-1.08,34.65-11,61.61,3.06,18.24,9.52,31,28.26,24.23,46.72-6.39,17.34-26.69,25.16-30.29,26.49H959V221.57s16.72,6.37,48.12,10.72c14.17,2,31.73,4.4,44.43-.76,27.9-11.34,37.53-51.63,19.19-65.11C1046,148.27,999.82,157.32,997,158c-23.42,5.53-38,13-38,13V75.74H828.32s-5.83,19.6-5.94,22.53c-.59,16.22,7,21,3.93,32.92C823.08,143.94,811.09,152,807.92,154c-1.12.71-25.8,15.74-54,7.38-13.9-4.12-28-13.72-30.83-25.74-1.22-5.24.42-7.86,9.17-30.53,8.95-23.18,8.25-26,8.25-26Z"/></clipPath><radialGradient id="radial-gradient-13" cx="847.12" cy="-42.21" r="144.01" xlink:href="#radial-gradient"/><radialGradient id="radial-gradient-14" cx="813.24" cy="197.57" r="169.69" xlink:href="#radial-gradient"/><radialGradient id="radial-gradient-15" cx="857.38" cy="429.58" r="149.76" xlink:href="#radial-gradient"/><clipPath id="clip-path-5"><path class="cls-1" d="M-6.51,569.73V755.25s2.19,20.14,15.32,32.18c11.91,10.92,28,15.09,30.47,15.72a103.27,103.27,0,0,0,20.62,2.48H341V722.47s24.61-.68,31,.77A61.56,61.56,0,0,1,383.59,727c12,5.31,17.4,9,21.72,10.81,15.36,6.57,48-6,51.69-28.4,3.3-19.92-17.49-40.48-35.84-43.15C405.5,664,398.11,675.65,371,678.81a107.55,107.55,0,0,1-30-.76V569.73H219.49s13.51,17.81,12.82,40.15c-.12,3.7-.87,27.93-26.1,40-19.65,9.45-43.83,6.58-59.64-.06-17.8-7.46-25.13-19.75-27.45-23.8-8.86-15.43-5.78-31.61-4.19-40,2.21-11.6,3.57-16.36,3.57-16.36Z"/></clipPath><radialGradient id="radial-gradient-16" cx="871.6" cy="259.89" r="147.63" xlink:href="#radial-gradient"/><radialGradient id="radial-gradient-17" cx="641.94" cy="215.89" r="144.01" xlink:href="#radial-gradient"/><radialGradient id="radial-gradient-18" cx="608.05" cy="455.67" r="169.69" xlink:href="#radial-gradient"/><radialGradient id="radial-gradient-19" cx="876.18" cy="451.78" r="175.93" xlink:href="#radial-gradient"/><clipPath id="clip-path-6"><path class="cls-1" d="M605.53,548.62h127a56.5,56.5,0,0,1-18.16-22c-7.71-17.33,3.33-33.5,4.1-34.58,15.76-22.27,51-23.86,55.25-24,6-.2,22-.55,37.58,7.34,1.58.81,27,14.16,26.08,36.75a36.29,36.29,0,0,1-12.87,25.25,59.31,59.31,0,0,1-19.27,11.22H953V663.06a41.32,41.32,0,0,1-15.88,1.11c-8.29-1.12-13.25-4.72-18.81-8-4-2.34-18.59-11-31.3-13-15.83-2.55-36.24,3.9-47.18,16.4-1.59,1.81-12.42,14.65-6.35,30.32,5.43,14,21.55,23,36.36,25.28,17.42,2.62,35.86-3.79,40.39-5.36,5.28-1.84,7.7-3.24,13.3-4.3,11.49-2.16,22.1-.14,29.47,2v77H605.53V701.36s28.67.2,31,.77a53.8,53.8,0,0,1,9.75,3.28c13.92,6.33,16.69,9,23.57,11.27,16.81,5.59,33.79-5.2,35-6,3.93-2.57,14.66-9.61,16.73-22.42,1.63-10.07-3-18.1-5.36-22.18-2.2-3.8-8.58-13.45-20.56-17.92-15.77-5.89-32,.64-35.23,1.93a169.62,169.62,0,0,1-18.7,6.28,53.52,53.52,0,0,1-6.18,1.31c-11.87,1.88-30-.76-30-.76Z"/></clipPath><radialGradient id="radial-gradient-20" cx="842.61" cy="194.77" r="144.01" xlink:href="#radial-gradient"/><radialGradient id="radial-gradient-21" cx="808.73" cy="434.55" r="169.69" xlink:href="#radial-gradient"/></defs><g class="cls-2"><path class="cls-3" d="M20.05-193.57H149.11S128.85-217.25,136-238.46c6.07-18,32.08-27,36-28.36,8.9-3.07,25-8.63,41.42-3.16a37.51,37.51,0,0,1,25.22,28.65c.95,6.31-.77,11.25-4.2,21.13-6.77,19.48-11.59,26.63-11.59,26.63H367.52V-96s-19.58-7.85-48.75-9.2c-11.09-.51-40-1.85-53.52,13-9.69,10.66-8.73,26.65,1,36.76,12.28,12.76,35.84,13.33,54.53,13.79,28.89.7,46.73-2.3,46.73-2.3V42.33H246.06s20,31.35,10.1,57c-5,13-19.45,23.6-35.35,27.57-26.9,6.72-59.93-5-71.7-22.21-16.62-24.28-4-62.36-4-62.36h-125Z"/><path class="cls-4" d="M367.52-193.57V-96s-17.2-7-48.75-9.2c-14-1-30.4-2-43.92,6-1.61.94-16.09,9.73-16.38,23.86-.4,19.56,26.8,30,28.07,30.49,10.35,3.82,19.67,3.66,38.3,3.33,30.66-.53,42.68-2.37,42.68-2.37V42.33h127s-22.7-18-22.22-38c.4-16.83,19.87-31.84,39.38-38.3,3.25-1.08,34.65-11,61.61,3.06,18.24,9.52,31,28.27,24.23,46.73C591.1,33.18,570.8,41,567.2,42.33H715V-47.74S731.71-41.37,763.11-37c14.17,2,31.73,4.39,44.43-.77,27.9-11.34,37.53-51.63,19.19-65.11C802-121,755.86-112,753-111.31c-23.42,5.52-38,13-38,13v-95.28H584.36S578.53-174,578.42-171c-.59,16.21,7,20.95,3.92,32.91-3.22,12.75-15.21,20.79-18.38,22.79-1.12.7-25.8,15.73-54,7.37-13.9-4.11-28-13.72-30.83-25.74-1.22-5.23.42-7.86,9.17-30.53,8.95-23.17,8.25-26,8.25-26Z"/><path class="cls-5" d="M20.05,42.33V227.85S22.24,248,35.38,260C47.29,271,63.33,275.12,65.84,275.74a102.5,102.5,0,0,0,20.63,2.48h281V195.07s24.61-.68,31,.77a62.6,62.6,0,0,1,11.61,3.73c12,5.31,17.39,9,21.71,10.82,15.36,6.56,48-6,51.7-28.4,3.3-19.92-17.49-40.48-35.85-43.15-15.65-2.27-23.05,9.41-50.18,12.57a108,108,0,0,1-30-.77V42.33H246.06s13.51,17.81,12.81,40.15c-.11,3.7-.87,27.93-26.1,40.05-19.65,9.44-43.82,6.57-59.63-.06C155.34,115,148,102.72,145.68,98.66c-8.85-15.43-5.77-31.6-4.18-40,2.2-11.59,3.57-16.35,3.57-16.35Z"/><path class="cls-6" d="M367.52,42.33h127a56.5,56.5,0,0,1-18.16-22c-7.71-17.33,3.33-33.5,4.1-34.58,15.76-22.27,51-23.86,55.25-24,6-.2,22-.55,37.58,7.34,1.58.81,27,14.16,26.08,36.75a36.29,36.29,0,0,1-12.87,25.25A59.31,59.31,0,0,1,567.2,42.33H715V156.77a41.52,41.52,0,0,1-15.88,1.11c-8.29-1.12-13.25-4.72-18.81-8-4-2.34-18.59-11-31.3-13-15.83-2.55-36.24,3.9-47.18,16.4-1.59,1.81-12.42,14.65-6.35,30.32,5.43,14,21.55,23,36.36,25.28,17.42,2.62,35.86-3.79,40.39-5.36,5.28-1.84,7.7-3.24,13.3-4.3,11.48-2.16,22.1-.15,29.47,2v77H367.52V195.07s28.67.2,31,.77a52.29,52.29,0,0,1,9.75,3.28c13.92,6.33,16.69,9,23.57,11.27,16.81,5.59,33.79-5.2,35-6,3.93-2.57,14.66-9.61,16.73-22.42,1.63-10.07-3-18.1-5.36-22.18-2.2-3.81-8.58-13.45-20.56-17.92-15.77-5.89-32,.64-35.23,1.93a170.42,170.42,0,0,1-18.7,6.28,53.52,53.52,0,0,1-6.18,1.31c-11.87,1.88-30-.77-30-.77Z"/><path class="cls-7" d="M675.11-248.17C663.77-260.51,633.17-290.42,585-299c-73.79-13.15-129.42,34.43-140.25,43.69-64.05,54.78-69.6,137.33-73,187.91-1.78,26.46-3.32,52.81,6.12,85.78,4.56,15.91,26.17,91.41,96.76,124.08C542.76,174,637.84,156.9,683.91,91.87,708.54,57.1,725.49-2,697.7-48.38,661.36-109,565.18-101.71,513.77-85.17c-86.84,27.93-123,108-129.51,123"/></g><g class="cls-8"><path class="cls-9" d="M270.05-211.81H399.11S378.85-235.49,386-256.7c6.07-18,32.08-27,36-28.36,8.9-3.07,25-8.63,41.42-3.16a37.51,37.51,0,0,1,25.22,28.65c.95,6.3-.77,11.24-4.2,21.13-6.77,19.47-11.59,26.63-11.59,26.63H617.52v97.58s-19.58-7.85-48.75-9.2c-11.09-.51-40-1.85-53.52,13-9.69,10.67-8.73,26.66,1,36.77,12.28,12.76,35.84,13.33,54.53,13.79,28.89.7,46.73-2.3,46.73-2.3V24.09H496.06s20,31.35,10.1,57c-5,13-19.45,23.61-35.35,27.58-26.9,6.72-59.93-5-71.7-22.21-16.62-24.28-4-62.36-4-62.36h-125Z"/><path class="cls-10" d="M270.05,24.09V209.61s2.19,20.13,15.33,32.18c11.91,10.92,27.95,15.08,30.46,15.71A102.5,102.5,0,0,0,336.47,260h281V176.83s24.61-.68,31,.76a63.3,63.3,0,0,1,11.61,3.74c12,5.31,17.39,9,21.71,10.82,15.36,6.56,48-6,51.7-28.4,3.3-19.93-17.49-40.48-35.85-43.15-15.65-2.27-23.05,9.41-50.18,12.57a108,108,0,0,1-30-.77V24.09H496.06s13.51,17.81,12.81,40.15c-.11,3.7-.87,27.93-26.1,40.05-19.65,9.44-43.82,6.57-59.63-.06-17.8-7.47-25.13-19.75-27.46-23.81-8.85-15.43-5.77-31.6-4.18-40,2.2-11.59,3.57-16.35,3.57-16.35Z"/></g><path class="cls-11" d="M11.36,84.71H140.42S120.15,61,127.29,39.81c6.07-18,32.08-27,36-28.35,8.9-3.07,25-8.64,41.41-3.17A37.54,37.54,0,0,1,229.93,37c.94,6.3-.77,11.24-4.21,21.12C219,77.55,214.14,84.71,214.14,84.71H358.83v97.57s-19.59-7.84-48.76-9.19c-11.09-.51-40-1.85-53.52,13-9.68,10.66-8.72,26.66,1,36.77,12.28,12.75,35.84,13.33,54.53,13.78,28.9.71,46.74-2.29,46.74-2.29V320.6H237.36s20,31.35,10.1,57c-5,13-19.45,23.61-35.34,27.58-26.91,6.71-59.94-5-71.7-22.22-16.63-24.27-4-62.36-4-62.36h-125Z"/><g class="cls-12"><path class="cls-13" d="M358.83-151.19c0,80.71,4.42,90.43,4.42,90.43a177,177,0,0,0,23.7-1.5c19.25-2.4,22.47-2.54,26.12-2.4,6.48.27,15.76.64,23.24,4.9,16.85,9.59,11.86,31.66,11.2,34.59C446.2-19.35,443.1-5.67,429.24,0c-10.36,4.23-22.32,2.17-35.87-.15-25.91-4.45-34.54-5.62-34.54-5.62v90.5l129,3.36c2.49,3.63.17,8.87-4,18.38-5.44,12.29-11.43,13.89-14.14,21.45-4.39,12.24,3.79,29.16,21.21,38.3,21.4,11.22,45.34,4.72,48.47,3.83,17.66-5.06,31.35-17.15,34.34-29.88,2.27-9.68-3.41-12.19-4-36-.25-9.51,1.76-14.89,6.06-19.44H706.3V-.78s-22.85,7.21-53.88,7.66c-5.76.08-50.65.73-62.61-19.92-9-15.49,3.4-38.12,22.21-45.19,15-5.65,35.86-2,73.72,4.6,13.07,2.28,18.57,2.73,18.57,2.73l2-100.29Z"/><path class="cls-14" d="M81.63-151.19s-23.58,1-40.38,9.68c-3.22,1.66-21.53,11.4-28.11,29.08-3.67,9.84-1.78,20.5-1.78,20.5V84.71H140.42s-20-24-13.13-44.9c6.34-19.35,35.33-28.21,38.37-29.1,8.19-2.4,28.15-8.26,45.45,0,19.78,9.44,19.26,30.3,19.18,32.17-.2,4.93-3.16,12-9.08,26-2.81,6.66-5.32,12.11-7.07,15.79H358.83V-5.79s8.48,2,34.54,5.62c16.91,2.38,25.5,3.52,32.38,1.33,19.63-6.26,22.38-29,22.6-31.13.44-4.25,2.21-21.38-12-29.79-8.77-5.18-19.62-4.7-39.39-3.83-24,1.06-33.67,2.83-33.67,2.83l-4.42-90.43Z"/><path class="cls-15" d="M358.83,84.71v97.57s-17.21-6.94-48.76-9.19c-14-1-30.39-2-43.92,6-1.61.95-16.09,9.74-16.38,23.86-.4,19.56,26.81,30,28.07,30.49,10.35,3.83,19.67,3.66,38.31,3.34,30.66-.54,42.68-2.37,42.68-2.37V320.6h127s-22.69-18-22.22-38c.4-16.83,19.88-31.83,39.39-38.3,3.25-1.07,34.64-11,61.6,3.07,18.24,9.52,31,28.26,24.24,46.72-6.4,17.34-26.7,25.16-30.3,26.49H706.3V230.54s16.72,6.37,48.11,10.72c14.18,2,31.73,4.4,44.44-.77,27.89-11.33,37.53-51.62,19.19-65.1-24.7-18.15-70.88-9.1-73.72-8.43-23.43,5.53-38,13-38,13V84.71H575.67s-5.84,19.6-5.95,22.53c-.59,16.22,7,21,3.93,32.91-3.23,12.76-15.22,20.79-18.39,22.79-1.12.71-25.8,15.74-54,7.38-13.91-4.12-28-13.72-30.84-25.75-1.22-5.23.42-7.85,9.18-30.53,8.94-23.17,8.24-26,8.24-26Z"/><path class="cls-16" d="M11.36,320.6V506.12s2.19,20.14,15.32,32.18c11.91,10.92,28,15.09,30.47,15.72a103.27,103.27,0,0,0,20.62,2.48H358.83V473.34s24.61-.67,31,.77a61.56,61.56,0,0,1,11.61,3.74c12,5.31,17.4,9,21.72,10.81,15.36,6.57,48-6,51.69-28.39,3.3-19.93-17.49-40.49-35.84-43.15-15.66-2.28-23,9.4-50.19,12.57a107.87,107.87,0,0,1-30-.77V320.6H237.36s13.51,17.81,12.82,40.15c-.12,3.7-.87,27.94-26.1,40.06-19.66,9.44-43.83,6.57-59.64-.06-17.8-7.47-25.13-19.76-27.45-23.81-8.86-15.43-5.78-31.61-4.19-40,2.21-11.6,3.57-16.36,3.57-16.36Z"/><path class="cls-17" d="M358.83,320.6h127a56.52,56.52,0,0,1-18.15-22c-7.71-17.33,3.33-33.5,4.09-34.58,15.76-22.26,51-23.86,55.25-24,6-.2,22-.55,37.58,7.34,1.59.8,27,14.16,26.08,36.75a36.32,36.32,0,0,1-12.86,25.25A59.38,59.38,0,0,1,558.5,320.6H706.3V435.05a41.57,41.57,0,0,1-15.88,1.1c-8.29-1.12-13.26-4.71-18.81-8-4-2.33-18.59-11-31.31-13-15.82-2.54-36.23,3.9-47.18,16.41-1.58,1.8-12.42,14.65-6.34,30.32,5.42,14,21.55,23.05,36.35,25.27,17.42,2.62,35.87-3.79,40.4-5.36,5.27-1.83,7.7-3.24,13.3-4.29,11.48-2.16,22.09-.15,29.47,2v77H358.83V473.34s28.66.2,31,.77a53.53,53.53,0,0,1,9.75,3.28c13.92,6.34,16.7,9,23.58,11.27,16.81,5.6,33.78-5.2,35-6,3.92-2.57,14.65-9.61,16.72-22.41,1.63-10.08-3-18.11-5.36-22.18-2.2-3.81-8.58-13.45-20.56-17.92-15.77-5.89-32,.63-35.23,1.93a174.23,174.23,0,0,1-18.7,6.28,55.72,55.72,0,0,1-6.18,1.31c-11.87,1.87-30-.77-30-.77Z"/><path class="cls-7" d="M666.42,30.1c-11.34-12.34-41.95-42.24-90.07-50.82C502.55-33.87,446.93,13.7,436.09,23c-64,54.78-69.59,137.33-73,187.91-1.78,26.46-3.31,52.82,6.13,85.79,4.55,15.9,26.17,91.4,96.75,124.07,68.09,31.51,163.17,14.45,209.23-50.58,24.64-34.78,41.58-93.92,13.8-140.25-36.34-60.62-132.52-53.33-183.94-36.79-86.84,27.93-123,108-129.51,123"/></g><g class="cls-18"><path class="cls-19" d="M334.28-160.16s-23.58,1-40.38,9.68c-3.22,1.66-21.52,11.4-28.11,29.08-3.67,9.84-1.77,20.5-1.77,20.5V75.74H393.07s-20-24-13.12-44.9c6.34-19.35,35.33-28.21,38.37-29.1,8.18-2.4,28.14-8.26,45.44,0C483.55,11.18,483,32.05,483,33.91c-.2,4.94-3.16,12-9.09,26-2.8,6.66-5.32,12.11-7.07,15.79H611.48v-90.5S620-12.8,646-9.14c16.9,2.38,25.5,3.52,32.38,1.33,19.63-6.26,22.38-29,22.59-31.12.44-4.26,2.22-21.38-12-29.8-8.77-5.18-19.61-4.7-39.38-3.83-24,1.06-33.67,2.83-33.67,2.83l-4.43-90.43Z"/><path class="cls-20" d="M264,75.74H393.07S372.81,52.05,380,30.84c6.06-18,32.07-27,36-28.35,8.9-3.07,25-8.63,41.42-3.17A37.52,37.52,0,0,1,482.58,28c.95,6.3-.77,11.24-4.2,21.12-6.77,19.48-11.59,26.64-11.59,26.64H611.48v97.57s-19.58-7.84-48.75-9.19c-11.09-.51-40-1.85-53.52,13-9.69,10.66-8.73,26.66,1,36.77,12.28,12.76,35.84,13.33,54.53,13.79,28.89.7,46.73-2.3,46.73-2.3v86.23H490s20,31.35,10.1,57c-5,13-19.45,23.61-35.35,27.58-26.9,6.71-59.93-5-71.7-22.22-16.62-24.27-4-62.36-4-62.36H264Z"/><path class="cls-21" d="M264,311.63V497.16s2.18,20.13,15.32,32.18c11.91,10.91,28,15.08,30.46,15.71a103.4,103.4,0,0,0,20.63,2.48H611.48V464.38s24.61-.68,31,.76a62.29,62.29,0,0,1,11.61,3.74c12,5.31,17.39,9,21.72,10.82,15.35,6.56,48-6,51.69-28.4,3.3-19.93-17.49-40.49-35.85-43.15-15.65-2.28-23,9.4-50.18,12.57a108,108,0,0,1-30-.77V311.63H490s13.51,17.81,12.81,40.16c-.11,3.7-.86,27.93-26.09,40-19.66,9.44-43.83,6.57-59.64-.06C399.3,384.31,392,372,389.64,368c-8.85-15.43-5.77-31.61-4.18-40,2.21-11.59,3.57-16.36,3.57-16.36Z"/></g><g class="cls-22"><path class="cls-23" d="M341,97.94c0,80.7,4.42,90.43,4.42,90.43a177,177,0,0,0,23.7-1.5c19.25-2.4,22.47-2.55,26.12-2.4,6.48.26,15.76.64,23.24,4.9C435.29,199,430.3,221,429.64,224c-1.31,5.81-4.4,19.5-18.27,25.15-10.36,4.23-22.32,2.17-35.87-.15-25.91-4.45-34.54-5.62-34.54-5.62v90.49l129,3.37c2.49,3.63.17,8.87-4,18.38-5.43,12.29-11.43,13.89-14.14,21.45-4.39,12.24,3.79,29.16,21.21,38.29,21.4,11.23,45.34,4.73,48.47,3.83,17.66-5,31.35-17.14,34.34-29.87,2.28-9.68-3.41-12.2-4-36-.25-9.51,1.76-14.89,6.06-19.45H688.43V248.35s-22.85,7.21-53.88,7.65c-5.76.09-50.65.74-62.61-19.91-9-15.5,3.4-38.12,22.21-45.19,15-5.65,35.86-2,73.72,4.59,13.07,2.29,18.57,2.74,18.57,2.74l2-100.29Z"/><path class="cls-24" d="M63.76,97.94s-23.58,1-40.38,9.67C20.16,109.27,1.85,119-4.73,136.7c-3.67,9.84-1.78,20.5-1.78,20.5V333.83H122.55s-20-24-13.13-44.89c6.35-19.35,35.33-28.21,38.37-29.11,8.19-2.4,28.15-8.25,45.45,0C213,269.28,212.5,290.14,212.43,292c-.21,4.94-3.17,12-9.09,26.05-2.81,6.66-5.32,12.1-7.07,15.78H341V243.34s8.48,1.95,34.54,5.62c16.91,2.37,25.5,3.52,32.39,1.32,19.63-6.25,22.37-29,22.59-31.12.44-4.25,2.21-21.38-12-29.79-8.77-5.18-19.62-4.7-39.39-3.83-24,1.05-33.67,2.83-33.67,2.83L341,97.94Z"/><path class="cls-25" d="M-6.51,333.83H122.55s-20.27-23.68-13.13-44.89c6.07-18,32.08-27,36-28.35,8.9-3.07,25-8.64,41.42-3.17a37.53,37.53,0,0,1,25.22,28.65c.94,6.31-.77,11.25-4.21,21.13-6.77,19.48-11.58,26.63-11.58,26.63H341v97.58s-19.58-7.84-48.76-9.19c-11.08-.52-40-1.85-53.52,13C229,445.9,230,461.9,239.69,472c12.28,12.76,35.84,13.34,54.53,13.79,28.9.71,46.74-2.3,46.74-2.3v86.24H219.49s20,31.35,10.1,57c-5,13-19.45,23.6-35.34,27.57-26.91,6.72-59.94-5-71.7-22.21-16.63-24.28-4-62.36-4-62.36h-125Z"/><path class="cls-26" d="M341,333.83v97.58s-17.21-6.94-48.76-9.19c-14-1-30.39-2-43.92,6-1.61.95-16.08,9.74-16.37,23.86-.41,19.56,26.8,30,28.06,30.49,10.35,3.82,19.67,3.66,38.31,3.34,30.66-.54,42.68-2.38,42.68-2.38v86.24h127s-22.69-18-22.22-38c.41-16.83,19.88-31.84,39.39-38.3,3.25-1.07,34.64-11,61.6,3.07,18.24,9.52,31,28.26,24.24,46.72-6.4,17.34-26.7,25.16-30.3,26.49h147.8V479.66s16.72,6.38,48.11,10.73c14.18,2,31.73,4.4,44.44-.77,27.89-11.33,37.53-51.63,19.19-65.1-24.7-18.15-70.88-9.1-73.72-8.43-23.43,5.53-38,13-38,13V333.83H557.8s-5.84,19.61-5.95,22.54c-.59,16.21,7,20.95,3.93,32.91-3.23,12.76-15.21,20.79-18.39,22.79-1.12.71-25.8,15.73-54,7.38-13.91-4.12-28-13.72-30.84-25.75-1.22-5.23.42-7.85,9.18-30.53,8.94-23.17,8.24-26,8.24-26Z"/><path class="cls-7" d="M648.55,279.23c-11.34-12.34-41.95-42.24-90.07-50.82-73.8-13.16-129.42,34.42-140.25,43.68-64.05,54.78-69.6,137.33-73,187.91-1.78,26.46-3.31,52.81,6.13,85.79,4.55,15.9,26.17,91.4,96.76,124.07,68.08,31.51,163.16,14.44,209.22-50.58C682,584.5,698.92,525.36,671.14,479,634.8,418.4,538.62,425.7,487.2,442.23c-86.84,27.94-123,108-129.51,123"/></g><g class="cls-27"><path class="cls-28" d="M328.33,76.83s-23.58,1-40.38,9.67c-3.22,1.66-21.52,11.41-28.11,29.08-3.67,9.85-1.78,20.5-1.78,20.5V312.72H387.12s-20-24-13.13-44.89c6.35-19.35,35.33-28.21,38.38-29.11,8.18-2.4,28.14-8.26,45.44,0,19.78,9.45,19.27,30.31,19.19,32.17-.2,4.94-3.17,12-9.09,26.05-2.8,6.66-5.32,12.1-7.07,15.78H605.53V222.23s8.48,2,34.55,5.61c16.9,2.38,25.5,3.52,32.38,1.33,19.63-6.25,22.38-29,22.59-31.12.44-4.25,2.22-21.38-12-29.8-8.77-5.17-19.61-4.7-39.38-3.83-24,1.06-33.67,2.84-33.67,2.84l-4.43-90.43Z"/><path class="cls-29" d="M258.06,312.72H387.12S366.86,289,374,267.83c6.07-18,32.08-27,36-28.36,8.9-3.07,25-8.63,41.42-3.16A37.51,37.51,0,0,1,476.63,265c.95,6.31-.77,11.25-4.2,21.13-6.77,19.48-11.59,26.63-11.59,26.63H605.53V410.3s-19.58-7.85-48.75-9.19c-11.09-.52-40-1.86-53.52,13-9.69,10.66-8.73,26.66,1,36.76,12.28,12.76,35.84,13.33,54.53,13.79,28.89.71,46.73-2.3,46.73-2.3v86.24H484.07s20,31.35,10.1,57c-5,13-19.45,23.6-35.35,27.57-26.9,6.72-59.93-5-71.7-22.21-16.62-24.28-4-62.36-4-62.36h-125Z"/></g></svg>